<?xml version="1.0" encoding="UTF-8" standalone="no"?>
<svg
   xmlns:dc="http://purl.org/dc/elements/1.1/"
   xmlns:cc="http://creativecommons.org/ns#"
   xmlns:rdf="http://www.w3.org/1999/02/22-rdf-syntax-ns#"
   xmlns:svg="http://www.w3.org/2000/svg"
   xmlns="http://www.w3.org/2000/svg"
   viewBox="0 0 799.90002 399.95001"
   height="399.95001"
   width="799.90002"
   xml:space="preserve"
   id="svg2"
   version="1.1"><metadata
     id="metadata8"><rdf:RDF><cc:Work
         rdf:about=""><dc:format>image/svg+xml</dc:format><dc:type
           rdf:resource="http://purl.org/dc/dcmitype/StillImage" /></cc:Work></rdf:RDF></metadata><defs
     id="defs6"><clipPath
       id="clipPath54"
       clipPathUnits="userSpaceOnUse"><path
         id="path52"
         d="M 32.668,26.668 H 541.84 V 276.293 H 32.668 Z" /></clipPath><clipPath
       id="clipPath64"
       clipPathUnits="userSpaceOnUse"><path
         id="path62"
         d="M 32.668,194 H 541.84 v 2 H 32.668 Z" /></clipPath><clipPath
       id="clipPath74"
       clipPathUnits="userSpaceOnUse"><path
         id="path72"
         d="M 32.668,118 H 541.84 v 2 H 32.668 Z" /></clipPath><clipPath
       id="clipPath84"
       clipPathUnits="userSpaceOnUse"><path
         id="path82"
         d="M 32.668,42 H 541.84 v 1 H 32.668 Z" /></clipPath><clipPath
       id="clipPath94"
       clipPathUnits="userSpaceOnUse"><path
         id="path92"
         d="m 119,26.668 h 2 v 249.625 h -2 z" /></clipPath><clipPath
       id="clipPath104"
       clipPathUnits="userSpaceOnUse"><path
         id="path102"
         d="m 209,26.668 h 2 v 249.625 h -2 z" /></clipPath><clipPath
       id="clipPath114"
       clipPathUnits="userSpaceOnUse"><path
         id="path112"
         d="m 300,26.668 h 2 v 249.625 h -2 z" /></clipPath><clipPath
       id="clipPath124"
       clipPathUnits="userSpaceOnUse"><path
         id="path122"
         d="m 390,26.668 h 2 v 249.625 h -2 z" /></clipPath><clipPath
       id="clipPath134"
       clipPathUnits="userSpaceOnUse"><path
         id="path132"
         d="m 481,26.668 h 2 v 249.625 h -2 z" /></clipPath></defs><g
     transform="matrix(1.3333333,0,0,1.3333333,0,1.3332084e-5)"
     id="g10"><g
       id="g12"><path
         id="path14"
         style="fill:#222831;fill-opacity:1;fill-rule:nonzero;stroke:none"
         d="M 0,0 H 599.926 V 299.961 H 0 Z" /><g
         id="text32"
         style="font-variant:normal;font-weight:normal;font-size:9px;font-family:'JetBrains Mono';-inkscape-font-specification:JetBrainsMono-Regular;writing-mode:lr-tb;fill:#a1a1a1;fill-opacity:1;fill-rule:nonzero;stroke:none"
         transform="translate(114.80078,287.99414)"
         aria-label="1020304050
Spain
Germany
US
France
Italy
Iran
China"><path
           id="path432"
           style=""
           d="m 0.81,-0.72 h 1.737 v -4.545 q 0,-0.072 0,-0.162 0.009,-0.099 0.009,-0.18 0,-0.081 0,-0.135 0.009,-0.063 0.009,-0.063 H 2.547 Q 2.484,-5.751 2.421,-5.706 2.367,-5.661 2.304,-5.616 2.25,-5.571 2.196,-5.535 L 0.927,-4.671 V -5.49 l 1.395,-0.99 h 1.035 v 5.76 H 4.815 V 0 H 0.81 Z" /><path
           id="path434"
           style=""
           d="m 6.5340002,-1.845 q 0,0.558 0.315,0.891 0.315,0.324 0.855,0.324 0.54,0 0.855,-0.324 0.315,-0.333 0.315,-0.891 v -2.79 q 0,-0.558 -0.315,-0.882 -0.315,-0.333 -0.855,-0.333 -0.54,0 -0.855,0.333 -0.315,0.324 -0.315,0.882 z m -0.81,-2.79 q 0,-0.441 0.135,-0.801 0.144,-0.36 0.396,-0.612 0.261,-0.252 0.621,-0.387 0.369,-0.135 0.828,-0.135 0.459,0 0.819,0.135 0.369,0.135 0.621,0.387 0.261,0.252 0.396,0.612 0.144,0.36 0.144,0.801 v 2.79 q 0,0.441 -0.144,0.801 -0.135,0.351 -0.396,0.603 -0.252,0.252 -0.621,0.396 -0.369,0.135 -0.819,0.135 -0.459,0 -0.828,-0.135 -0.36,-0.135 -0.621,-0.387 -0.252,-0.252 -0.396,-0.612 -0.135,-0.36 -0.135,-0.801 z m 1.53,1.08 q 0,-0.225 0.117,-0.36 0.126,-0.135 0.333,-0.135 0.207,0 0.324,0.135 0.126,0.135 0.126,0.36 v 0.72 q 0,0.225 -0.126,0.36 -0.117,0.135 -0.324,0.135 -0.207,0 -0.333,-0.135 -0.117,-0.135 -0.117,-0.36 z" /><path
           id="path436"
           style=""
           d="m 95.13,-4.77 q 0,0.729 -0.405,1.413 -0.396,0.675 -1.269,1.431 l -1.089,0.945 q -0.045,0.036 -0.099,0.072 -0.054,0.036 -0.108,0.072 -0.072,0.045 -0.135,0.081 v 0.036 q 0.144,-0.009 0.279,-0.009 0.126,-0.009 0.252,-0.009 0.135,0 0.243,0 h 2.394 V 0 h -4.05 v -0.9 l 1.71,-1.467 q 0.387,-0.333 0.657,-0.63 0.279,-0.297 0.45,-0.585 0.171,-0.288 0.252,-0.576 0.081,-0.288 0.081,-0.603 0,-0.504 -0.306,-0.792 -0.297,-0.297 -0.81,-0.297 -0.567,0 -0.909,0.297 -0.333,0.297 -0.333,0.783 h -0.837 q 0.018,-0.405 0.171,-0.738 0.153,-0.333 0.423,-0.567 0.279,-0.234 0.648,-0.36 0.378,-0.135 0.837,-0.135 0.45,0 0.81,0.126 0.36,0.126 0.612,0.36 0.252,0.234 0.387,0.567 0.144,0.333 0.144,0.747 z" /><path
           id="path438"
           style=""
           d="m 97.046998,-1.845 q 0,0.558 0.315,0.891 0.315,0.324 0.855,0.324 0.54,0 0.855,-0.324 0.315,-0.333 0.315,-0.891 v -2.79 q 0,-0.558 -0.315,-0.882 -0.315,-0.333 -0.855,-0.333 -0.54,0 -0.855,0.333 -0.315,0.324 -0.315,0.882 z m -0.81,-2.79 q 0,-0.441 0.135,-0.801 0.144,-0.36 0.396,-0.612 0.261,-0.252 0.621,-0.387 0.369,-0.135 0.828,-0.135 0.459,0 0.819,0.135 0.369,0.135 0.621,0.387 0.261,0.252 0.396002,0.612 0.144,0.36 0.144,0.801 v 2.79 q 0,0.441 -0.144,0.801 -0.135002,0.351 -0.396002,0.603 -0.252,0.252 -0.621,0.396 -0.369,0.135 -0.819,0.135 -0.459,0 -0.828,-0.135 -0.36,-0.135 -0.621,-0.387 -0.252,-0.252 -0.396,-0.612 -0.135,-0.36 -0.135,-0.801 z m 1.53,1.08 q 0,-0.225 0.117,-0.36 0.126,-0.135 0.333,-0.135 0.207,0 0.324,0.135 0.126,0.135 0.126,0.36 v 0.72 q 0,0.225 -0.126,0.36 -0.117,0.135 -0.324,0.135 -0.207,0 -0.333,-0.135 -0.117,-0.135 -0.117,-0.36 z" /><path
           id="path440"
           style=""
           d="m 183.62325,-3.87 q 0.486,0 0.873,0.144 0.396,0.135 0.666,0.396 0.279,0.252 0.432,0.621 0.153,0.369 0.153,0.819 0,0.459 -0.144,0.828 -0.144,0.36 -0.414,0.621 -0.27,0.252 -0.657,0.396 -0.378,0.135 -0.855,0.135 -0.423,0 -0.783,-0.126 -0.351,-0.126 -0.621,-0.351 -0.261,-0.234 -0.432,-0.558 -0.162,-0.324 -0.198,-0.72 h 0.81 q 0.072,0.468 0.405,0.756 0.333,0.279 0.819,0.279 0.567,0 0.909,-0.342 0.342,-0.351 0.342,-0.918 0,-0.567 -0.351,-0.909 -0.351,-0.351 -0.936,-0.351 h -0.756 v -0.855 l 1.287,-1.305 q 0.09,-0.09 0.189,-0.171 0.099,-0.081 0.189,-0.144 0.099,-0.081 0.207,-0.153 v -0.018 q -0.099,0.009 -0.207,0.018 -0.099,0.009 -0.216,0.018 -0.108,0 -0.234,0 h -2.259 v -0.72 h 3.6 v 0.9 l -1.521,1.449 q -0.054,0.054 -0.108,0.099 -0.054,0.045 -0.099,0.081 -0.045,0.045 -0.09,0.081 z" /><path
           id="path442"
           style=""
           d="m 187.56525,-1.845 q 0,0.558 0.315,0.891 0.315,0.324 0.855,0.324 0.54,0 0.855,-0.324 0.315,-0.333 0.315,-0.891 v -2.79 q 0,-0.558 -0.315,-0.882 -0.315,-0.333 -0.855,-0.333 -0.54,0 -0.855,0.333 -0.315,0.324 -0.315,0.882 z m -0.81,-2.79 q 0,-0.441 0.135,-0.801 0.144,-0.36 0.396,-0.612 0.261,-0.252 0.621,-0.387 0.369,-0.135 0.828,-0.135 0.459,0 0.819,0.135 0.369,0.135 0.621,0.387 0.261,0.252 0.396,0.612 0.144,0.36 0.144,0.801 v 2.79 q 0,0.441 -0.144,0.801 -0.135,0.351 -0.396,0.603 -0.252,0.252 -0.621,0.396 -0.369,0.135 -0.819,0.135 -0.459,0 -0.828,-0.135 -0.36,-0.135 -0.621,-0.387 -0.252,-0.252 -0.396,-0.612 -0.135,-0.36 -0.135,-0.801 z m 1.53,1.08 q 0,-0.225 0.117,-0.36 0.126,-0.135 0.333,-0.135 0.207,0 0.324,0.135 0.126,0.135 0.126,0.36 v 0.72 q 0,0.225 -0.126,0.36 -0.117,0.135 -0.324,0.135 -0.207,0 -0.333,-0.135 -0.117,-0.135 -0.117,-0.36 z" /><path
           id="path444"
           style=""
           d="m 274.86525,-6.48 h 0.882 l -2.628,4.005 v 0.36 h 2.115 V -3.69 h 0.81 V 0 h -0.81 v -1.395 h -2.925 v -1.17 z" /><path
           id="path446"
           style=""
           d="m 278.07825,-1.845 q 0,0.558 0.315,0.891 0.315,0.324 0.855,0.324 0.54,0 0.855,-0.324 0.315,-0.333 0.315,-0.891 v -2.79 q 0,-0.558 -0.315,-0.882 -0.315,-0.333 -0.855,-0.333 -0.54,0 -0.855,0.333 -0.315,0.324 -0.315,0.882 z m -0.81,-2.79 q 0,-0.441 0.135,-0.801 0.144,-0.36 0.396,-0.612 0.261,-0.252 0.621,-0.387 0.369,-0.135 0.828,-0.135 0.459,0 0.819,0.135 0.369,0.135 0.621,0.387 0.261,0.252 0.396,0.612 0.144,0.36 0.144,0.801 v 2.79 q 0,0.441 -0.144,0.801 -0.135,0.351 -0.396,0.603 -0.252,0.252 -0.621,0.396 -0.369,0.135 -0.819,0.135 -0.459,0 -0.828,-0.135 -0.36,-0.135 -0.621,-0.387 -0.252,-0.252 -0.396,-0.612 -0.135,-0.36 -0.135,-0.801 z m 1.53,1.08 q 0,-0.225 0.117,-0.36 0.126,-0.135 0.333,-0.135 0.207,0 0.324,0.135 0.126,0.135 0.126,0.36 v 0.72 q 0,0.225 -0.126,0.36 -0.117,0.135 -0.324,0.135 -0.207,0 -0.333,-0.135 -0.117,-0.135 -0.117,-0.36 z" /><path
           id="path448"
           style=""
           d="m 365.0415,-4.14 q 0.819,0 1.278,0.513 0.468,0.504 0.468,1.377 v 0.45 q 0,0.432 -0.144,0.783 -0.144,0.351 -0.414,0.594 -0.261,0.243 -0.639,0.378 -0.378,0.135 -0.846,0.135 -0.828,0 -1.359,-0.387 -0.531,-0.396 -0.648,-1.053 h 0.855 q 0.09,0.324 0.387,0.522 0.306,0.198 0.774,0.198 0.549,0 0.873,-0.315 0.324,-0.315 0.324,-0.855 v -0.45 q 0,-0.54 -0.324,-0.855 -0.324,-0.315 -0.882,-0.315 -0.693,0 -1.026,0.495 h -0.828 l 0.045,-3.555 h 3.564 v 0.738 h -2.781 l -0.027,2.286 h 0.054 q 0.081,-0.189 0.252,-0.342 0.144,-0.126 0.387,-0.234 0.252,-0.108 0.657,-0.108 z" /><path
           id="path450"
           style=""
           d="m 368.5965,-1.845 q 0,0.558 0.315,0.891 0.315,0.324 0.855,0.324 0.54,0 0.855,-0.324 0.315,-0.333 0.315,-0.891 v -2.79 q 0,-0.558 -0.315,-0.882 -0.315,-0.333 -0.855,-0.333 -0.54,0 -0.855,0.333 -0.315,0.324 -0.315,0.882 z m -0.81,-2.79 q 0,-0.441 0.135,-0.801 0.144,-0.36 0.396,-0.612 0.261,-0.252 0.621,-0.387 0.369,-0.135 0.828,-0.135 0.459,0 0.819,0.135 0.369,0.135 0.621,0.387 0.261,0.252 0.396,0.612 0.144,0.36 0.144,0.801 v 2.79 q 0,0.441 -0.144,0.801 -0.135,0.351 -0.396,0.603 -0.252,0.252 -0.621,0.396 -0.369,0.135 -0.819,0.135 -0.459,0 -0.828,-0.135 -0.36,-0.135 -0.621,-0.387 -0.252,-0.252 -0.396,-0.612 -0.135,-0.36 -0.135,-0.801 z m 1.53,1.08 q 0,-0.225 0.117,-0.36 0.126,-0.135 0.333,-0.135 0.207,0 0.324,0.135 0.126,0.135 0.126,0.36 v 0.72 q 0,0.225 -0.126,0.36 -0.117,0.135 -0.324,0.135 -0.207,0 -0.333,-0.135 -0.117,-0.135 -0.117,-0.36 z" /><path
           id="path452"
           style=""
           d="m 440.825,-160.64437 q -0.441,0 -0.819,-0.117 -0.378,-0.126 -0.657,-0.351 -0.27,-0.234 -0.432,-0.558 -0.153,-0.324 -0.162,-0.729 h 0.855 q 0,0.234 0.09,0.423 0.099,0.189 0.27,0.324 0.171,0.135 0.396,0.216 0.225,0.072 0.477,0.072 0.567,0 0.9,-0.261 0.333,-0.27 0.333,-0.729 0,-0.387 -0.243,-0.684 -0.243,-0.30601 -0.702,-0.477 l -0.684,-0.252 q -1.503,-0.549 -1.503,-1.818 0,-0.81 0.513,-1.26 0.513,-0.459 1.413,-0.459 0.423,0 0.774,0.117 0.351,0.11699 0.603,0.342 0.261,0.225 0.405,0.549 0.153,0.31499 0.162,0.711 h -0.855 q 0,-0.225 -0.09,-0.405 -0.09,-0.189 -0.243,-0.315 -0.144,-0.135 -0.342,-0.207 -0.198,-0.072 -0.423,-0.072 -0.513,0 -0.81,0.243 -0.288,0.243 -0.288,0.657 0,0.405 0.216,0.675 0.225,0.261 0.72,0.441 l 0.72,0.261 q 0.72,0.261 1.098,0.756 0.378,0.495 0.378,1.17 0,0.81 -0.558,1.278 -0.549,0.459 -1.512,0.459 z" /><path
           id="path454"
           style=""
           d="m 444.686,-165.68437 v 0.855 h 0.072 q 0.117,-0.45 0.477,-0.693 0.36,-0.252 0.909,-0.252 0.378,0 0.684,0.135 0.306,0.135 0.522,0.387 0.216,0.243 0.333,0.603 0.126,0.36 0.126,0.81 v 1.26 q 0,0.45 -0.126,0.81 -0.117,0.36 -0.333,0.612 -0.216,0.243 -0.522,0.378 -0.306,0.135 -0.684,0.135 -0.549,0 -0.909,-0.243 -0.36,-0.252 -0.477,-0.702 h -0.072 q 0.009,0.153 0.027,0.306 0.009,0.135 0.009,0.279 0.009,0.144 0.009,0.27 v 1.485 h -0.81 v -6.435 z m 0.045,3.105 q 0,0.567 0.297,0.9 0.306,0.333 0.81,0.333 0.54,0 0.846,-0.333 0.315,-0.333 0.315,-0.9 v -1.26 q 0,-0.585 -0.306,-0.909 -0.306,-0.324 -0.855,-0.324 -0.504,0 -0.81,0.333 -0.297,0.333 -0.297,0.9 z" /><path
           id="path456"
           style=""
           d="m 448.69099,-162.17437 q 0,-0.351 0.117,-0.63 0.126,-0.288 0.351,-0.486 0.234,-0.198 0.558,-0.306 0.324,-0.108 0.729,-0.108 h 1.476 v -0.405 q 0,-0.459 -0.306,-0.71101 -0.297,-0.26099 -0.864,-0.26099 -0.414,0 -0.711,0.153 -0.288,0.153 -0.387,0.423 h -0.81 q 0.126,-0.585 0.639,-0.927 0.522,-0.342 1.287,-0.342 0.918,0 1.44,0.432 0.522,0.423 0.522,1.188 v 3.42 h -0.738 v -0.945 h -0.072 q -0.117,0.477 -0.549,0.756 -0.432,0.279 -1.053,0.279 -0.747,0 -1.188,-0.414 -0.441,-0.414 -0.441,-1.116 z m 1.809,0.864 q 0.306,0 0.567,-0.081 0.261,-0.081 0.45,-0.225 0.189,-0.153 0.297,-0.351 0.108,-0.198 0.108,-0.432 v -0.675 h -1.458 q -0.45,0 -0.711,0.234 -0.252,0.23399 -0.252,0.648 0,0.414 0.261,0.648 0.261,0.234 0.738,0.234 z" /><path
           id="path458"
           style=""
           d="m 453.98299,-160.73437 v -0.738 h 1.8 v -3.474 h -1.575 v -0.738 h 2.385 v 4.212 h 1.485 v 0.738 z m 1.98,-6.885 h 0.18 q 0.261,0 0.423,0.153 0.162,0.153 0.162,0.39599 0,0.24301 -0.162,0.38701 -0.162,0.144 -0.423,0.144 h -0.18 q -0.261,0 -0.423,-0.135 -0.162,-0.144 -0.162,-0.39601 0,-0.24299 0.162,-0.39599 0.162,-0.153 0.423,-0.153 z" /><path
           id="path460"
           style=""
           d="m 458.91499,-160.73437 v -4.95 h 0.765 v 0.855 h 0.072 q 0.117,-0.45 0.468,-0.693 0.36,-0.252 0.891,-0.252 0.369,0 0.666,0.126 0.306,0.126 0.513,0.36 0.216,0.225 0.333,0.549 0.117,0.315 0.117,0.711 v 3.294 h -0.81 v -3.159 q 0,-0.567 -0.288,-0.882 -0.288,-0.315 -0.801,-0.315 -0.513,0 -0.819,0.342 -0.297,0.333 -0.297,0.909 v 3.105 z" /><path
           id="path462"
           style=""
           d="m 440.681,-153.22844 h 2.124 v 1.485 q 0,0.441 -0.144,0.801 -0.135,0.36 -0.396,0.612 -0.252,0.252 -0.621,0.387 -0.36,0.135 -0.819,0.135 -0.45,0 -0.819,-0.135 -0.369,-0.135 -0.63,-0.387 -0.252,-0.252 -0.396,-0.612 -0.135,-0.36 -0.135,-0.801 v -2.79 q 0,-0.432 0.144,-0.792 0.144,-0.36 0.396,-0.612 0.261,-0.252 0.63,-0.387 0.369,-0.144 0.81,-0.144 0.819,0 1.341,0.414 0.522,0.414 0.684,1.206 h -0.828 q -0.09,-0.423 -0.405,-0.657 -0.315,-0.243 -0.792,-0.243 -0.54,0 -0.855,0.324 -0.315,0.324 -0.315,0.891 v 2.79 q 0,0.567 0.315,0.891 0.315,0.324 0.855,0.324 0.54,0 0.855,-0.324 0.315,-0.324 0.315,-0.891 v -0.765 h -1.314 z" /><path
           id="path464"
           style=""
           d="m 445.829,-149.80844 q -0.927,0 -1.458,-0.504 -0.522,-0.504 -0.522,-1.386 v -1.35 q 0,-0.882 0.522,-1.386 0.531,-0.504 1.458,-0.504 0.927,0 1.449,0.504 0.531,0.504 0.531,1.386 v 0.909 h -3.15 v 0.396 q 0,0.567 0.306,0.891 0.315,0.324 0.864,0.324 0.405,0 0.702,-0.126 0.297,-0.126 0.441,-0.369 h 0.81 q -0.153,0.567 -0.684,0.891 -0.522,0.324 -1.269,0.324 z m 1.17,-3.006 v -0.234 q 0,-0.558 -0.306,-0.864 -0.306,-0.306 -0.864,-0.306 -0.558,0 -0.864,0.306 -0.306,0.306 -0.306,0.864 v 0.234 z" /><path
           id="path466"
           style=""
           d="m 449.13199,-154.84844 h 0.765 v 0.855 h 0.072 q 0.117,-0.441 0.486,-0.693 0.369,-0.252 0.909,-0.252 0.783,0 1.224,0.495 0.45,0.486 0.45,1.341 v 0.279 h -0.81 v -0.18 q 0,-0.585 -0.297,-0.9 -0.288,-0.324 -0.828,-0.324 -0.531,0 -0.846,0.333 -0.315,0.324 -0.315,0.891 v 3.105 h -0.81 z" /><path
           id="path468"
           style=""
           d="m 453.68599,-154.84844 h 0.639 v 0.729 h 0.063 q 0.036,-0.396 0.252,-0.603 0.216,-0.216 0.576,-0.216 0.36,0 0.594,0.216 0.234,0.207 0.324,0.603 h 0.045 q 0.036,-0.396 0.252,-0.603 0.216,-0.216 0.576,-0.216 0.459,0 0.711,0.342 0.252,0.333 0.252,0.927 v 3.771 h -0.702 v -3.771 q 0,-0.315 -0.144,-0.477 -0.135,-0.171 -0.396,-0.171 -0.549,0 -0.549,0.693 v 3.726 h -0.702 v -3.771 q 0,-0.261 -0.126,-0.45 -0.117,-0.198 -0.414,-0.198 -0.27,0 -0.423,0.198 -0.126,0.18 -0.126,0.495 v 3.726 h -0.702 z" /><path
           id="path470"
           style=""
           d="m 458.68999,-151.33844 q 0,-0.351 0.117,-0.63 0.126,-0.288 0.351,-0.486 0.234,-0.198 0.558,-0.306 0.324,-0.108 0.729,-0.108 h 1.476 v -0.405 q 0,-0.459 -0.306,-0.711 -0.297,-0.261 -0.864,-0.261 -0.414,0 -0.711,0.153 -0.288,0.153 -0.387,0.423 h -0.81 q 0.126,-0.585 0.639,-0.927 0.522,-0.342 1.287,-0.342 0.918,0 1.44,0.432 0.522,0.423 0.522,1.188 v 3.42 h -0.738 v -0.945 h -0.072 q -0.117,0.477 -0.549,0.756 -0.432,0.279 -1.053,0.279 -0.747,0 -1.188,-0.414 -0.441,-0.414 -0.441,-1.116 z m 1.809,0.864 q 0.306,0 0.567,-0.081 0.261,-0.081 0.45,-0.225 0.189,-0.153 0.297,-0.351 0.108,-0.198 0.108,-0.432 v -0.675 h -1.458 q -0.45,0 -0.711,0.234 -0.252,0.234 -0.252,0.648 0,0.414 0.261,0.648 0.261,0.234 0.738,0.234 z" /><path
           id="path472"
           style=""
           d="m 463.91898,-149.89844 v -4.95 h 0.765 v 0.855 h 0.072 q 0.117,-0.45 0.468,-0.693 0.36,-0.252 0.891,-0.252 0.369,0 0.666,0.126 0.306,0.126 0.513,0.36 0.216,0.225 0.333,0.549 0.117,0.315 0.117,0.711 v 3.294 h -0.81 v -3.159 q 0,-0.567 -0.288,-0.882 -0.288,-0.315 -0.801,-0.315 -0.513,0 -0.819,0.342 -0.297,0.333 -0.297,0.909 v 3.105 z" /><path
           id="path474"
           style=""
           d="m 469.47201,-154.84844 1.134,2.844 q 0.081,0.207 0.126,0.387 0.054,0.18 0.081,0.315 0.036,0.171 0.045,0.306 h 0.063 q 0.009,-0.135 0.045,-0.297 0.027,-0.144 0.072,-0.324 0.045,-0.18 0.117,-0.387 l 1.044,-2.844 h 0.873 l -2.403,6.435 h -0.864 l 0.684,-1.845 -1.917,-4.59 z" /><path
           id="path476"
           style=""
           d="m 440.825,-138.97641 q -0.927,0 -1.431,-0.504 -0.504,-0.504 -0.504,-1.386 v -4.68 h 0.81 v 4.68 q 0,0.54 0.288,0.855 0.288,0.315 0.837,0.315 0.54,0 0.828,-0.315 0.297,-0.315 0.297,-0.855 v -4.68 h 0.81 v 4.68 q 0,0.891 -0.504,1.395 -0.504,0.495 -1.431,0.495 z" /><path
           id="path478"
           style=""
           d="m 445.829,-138.97641 q -0.441,0 -0.819,-0.117 -0.378,-0.126 -0.657,-0.351 -0.27,-0.234 -0.432,-0.558 -0.153,-0.324 -0.162,-0.729 h 0.855 q 0,0.234 0.09,0.423 0.099,0.189 0.27,0.324 0.171,0.135 0.396,0.216 0.225,0.072 0.477,0.072 0.567,0 0.9,-0.261 0.333,-0.27 0.333,-0.729 0,-0.387 -0.243,-0.684 -0.243,-0.306 -0.702,-0.477 l -0.684,-0.252 q -1.503,-0.549 -1.503,-1.818 0,-0.81 0.513,-1.26 0.513,-0.459 1.413,-0.459 0.423,0 0.774,0.117 0.351,0.117 0.603,0.342 0.261,0.225 0.405,0.549 0.153,0.315 0.162,0.711 h -0.855 q 0,-0.225 -0.09,-0.405 -0.09,-0.189 -0.243,-0.315 -0.144,-0.135 -0.342,-0.207 -0.198,-0.072 -0.423,-0.072 -0.513,0 -0.81,0.243 -0.288,0.243 -0.288,0.657 0,0.405 0.216,0.675 0.225,0.261 0.72,0.441 l 0.72,0.261 q 0.72,0.261 1.098,0.756 0.378,0.495 0.378,1.17 0,0.81 -0.558,1.278 -0.549,0.459 -1.512,0.459 z" /><path
           id="path480"
           style=""
           d="m 438.98,-134.71947 h 3.87 v 0.72 h -3.078 v 2.097 h 2.844 v 0.72 h -2.826 v 2.952 h -0.81 z" /><path
           id="path482"
           style=""
           d="m 444.137,-133.18047 h 0.765 v 0.855 h 0.072 q 0.117,-0.441 0.486,-0.693 0.369,-0.252 0.909,-0.252 0.783,0 1.224,0.495 0.45,0.486 0.45,1.341 v 0.279 h -0.81 v -0.18 q 0,-0.585 -0.297,-0.9 -0.288,-0.324 -0.828,-0.324 -0.531,0 -0.846,0.333 -0.315,0.324 -0.315,0.891 v 3.105 h -0.81 z" /><path
           id="path484"
           style=""
           d="m 448.69099,-129.67047 q 0,-0.351 0.117,-0.63 0.126,-0.288 0.351,-0.486 0.234,-0.198 0.558,-0.306 0.324,-0.108 0.729,-0.108 h 1.476 v -0.405 q 0,-0.459 -0.306,-0.711 -0.297,-0.261 -0.864,-0.261 -0.414,0 -0.711,0.153 -0.288,0.153 -0.387,0.423 h -0.81 q 0.126,-0.585 0.639,-0.927 0.522,-0.342 1.287,-0.342 0.918,0 1.44,0.432 0.522,0.423 0.522,1.188 v 3.42 h -0.738 v -0.945 h -0.072 q -0.117,0.477 -0.549,0.756 -0.432,0.279 -1.053,0.279 -0.747,0 -1.188,-0.414 -0.441,-0.414 -0.441,-1.116 z m 1.809,0.864 q 0.306,0 0.567,-0.081 0.261,-0.081 0.45,-0.225 0.189,-0.153 0.297,-0.351 0.108,-0.198 0.108,-0.432 v -0.675 h -1.458 q -0.45,0 -0.711,0.234 -0.252,0.234 -0.252,0.648 0,0.414 0.261,0.648 0.261,0.234 0.738,0.234 z" /><path
           id="path486"
           style=""
           d="m 453.91999,-128.23047 v -4.95 h 0.765 v 0.855 h 0.072 q 0.117,-0.45 0.468,-0.693 0.36,-0.252 0.891,-0.252 0.369,0 0.666,0.126 0.306,0.126 0.513,0.36 0.216,0.225 0.333,0.549 0.117,0.315 0.117,0.711 v 3.294 h -0.81 v -3.159 q 0,-0.567 -0.288,-0.882 -0.288,-0.315 -0.801,-0.315 -0.513,0 -0.819,0.342 -0.297,0.333 -0.297,0.909 v 3.105 z" /><path
           id="path488"
           style=""
           d="m 460.89499,-128.14047 q -0.459,0 -0.828,-0.135 -0.36,-0.135 -0.621,-0.387 -0.252,-0.252 -0.396,-0.612 -0.135,-0.36 -0.135,-0.801 v -1.26 q 0,-0.441 0.135,-0.801 0.144,-0.36 0.396,-0.612 0.261,-0.252 0.621,-0.387 0.369,-0.135 0.828,-0.135 0.819,0 1.341,0.45 0.531,0.441 0.639,1.215 h -0.81 q -0.063,-0.432 -0.387,-0.684 -0.315,-0.261 -0.783,-0.261 -0.54,0 -0.855,0.324 -0.315,0.324 -0.315,0.891 v 1.26 q 0,0.567 0.306,0.891 0.315,0.324 0.864,0.324 0.468,0 0.783,-0.252 0.324,-0.261 0.387,-0.693 h 0.81 q -0.117,0.783 -0.648,1.224 -0.522,0.441 -1.332,0.441 z" /><path
           id="path490"
           style=""
           d="m 465.82698,-128.14047 q -0.927,0 -1.458,-0.504 -0.522,-0.504 -0.522,-1.386 v -1.35 q 0,-0.882 0.522,-1.386 0.531,-0.504 1.458,-0.504 0.927,0 1.449,0.504 0.531,0.504 0.531,1.386 v 0.909 h -3.15 v 0.396 q 0,0.567 0.306,0.891 0.315,0.324 0.864,0.324 0.405,0 0.702,-0.126 0.297,-0.126 0.441,-0.369 h 0.81 q -0.153,0.567 -0.684,0.891 -0.522,0.324 -1.269,0.324 z m 1.17,-3.006 v -0.234 q 0,-0.558 -0.306,-0.864 -0.306,-0.306 -0.864,-0.306 -0.558,0 -0.864,0.306 -0.306,0.306 -0.306,0.864 v 0.234 z" /><path
           id="path492"
           style=""
           d="m 440.411,-118.10553 v -5.058 h -1.431 v -0.711 h 3.69 v 0.711 h -1.431 v 5.058 h 1.431 v 0.711 h -3.69 v -0.711 z" /><path
           id="path494"
           style=""
           d="m 443.669,-122.34453 h 1.44 v -1.53 h 0.81 v 1.53 h 1.935 v 0.738 h -1.935 v 2.934 q 0,0.252 0.153,0.396 0.162,0.144 0.432,0.144 h 1.26 v 0.738 h -1.26 q -0.639,0 -1.017,-0.351 -0.378,-0.351 -0.378,-0.927 v -2.934 h -1.44 z" /><path
           id="path496"
           style=""
           d="m 448.69099,-118.83453 q 0,-0.351 0.117,-0.63 0.126,-0.288 0.351,-0.486 0.234,-0.198 0.558,-0.306 0.324,-0.108 0.729,-0.108 h 1.476 v -0.405 q 0,-0.459 -0.306,-0.711 -0.297,-0.261 -0.864,-0.261 -0.414,0 -0.711,0.153 -0.288,0.153 -0.387,0.423 h -0.81 q 0.126,-0.585 0.639,-0.927 0.522,-0.342 1.287,-0.342 0.918,0 1.44,0.432 0.522,0.423 0.522,1.188 v 3.42 h -0.738 v -0.945 h -0.072 q -0.117,0.477 -0.549,0.756 -0.432,0.279 -1.053,0.279 -0.747,0 -1.188,-0.414 -0.441,-0.414 -0.441,-1.116 z m 1.809,0.864 q 0.306,0 0.567,-0.081 0.261,-0.081 0.45,-0.225 0.189,-0.153 0.297,-0.351 0.108,-0.198 0.108,-0.432 v -0.675 h -1.458 q -0.45,0 -0.711,0.234 -0.252,0.234 -0.252,0.648 0,0.414 0.261,0.648 0.261,0.234 0.738,0.234 z" /><path
           id="path498"
           style=""
           d="m 455.93599,-123.96453 v 5.13 q 0,0.333 0.18,0.522 0.18,0.18 0.495,0.18 h 1.467 v 0.738 h -1.467 q -0.693,0 -1.089,-0.378 -0.396,-0.387 -0.396,-1.062 v -4.392 h -1.638 v -0.738 z" /><path
           id="path500"
           style=""
           d="m 459.47299,-122.34453 1.134,2.844 q 0.081,0.207 0.126,0.387 0.054,0.18 0.081,0.315 0.036,0.171 0.045,0.306 h 0.063 q 0.009,-0.135 0.045,-0.297 0.027,-0.144 0.072,-0.324 0.045,-0.18 0.117,-0.387 l 1.044,-2.844 h 0.873 l -2.403,6.435 h -0.864 l 0.684,-1.845 -1.917,-4.59 z" /><path
           id="path502"
           style=""
           d="m 440.411,-107.2735 v -5.058 h -1.431 v -0.711 h 3.69 v 0.711 h -1.431 v 5.058 h 1.431 v 0.711 h -3.69 v -0.711 z" /><path
           id="path504"
           style=""
           d="m 444.137,-111.5125 h 0.765 v 0.855 h 0.072 q 0.117,-0.441 0.486,-0.693 0.369,-0.252 0.909,-0.252 0.783,0 1.224,0.495 0.45,0.486 0.45,1.341 v 0.279 h -0.81 v -0.18 q 0,-0.585 -0.297,-0.9 -0.288,-0.324 -0.828,-0.324 -0.531,0 -0.846,0.333 -0.315,0.324 -0.315,0.891 v 3.105 h -0.81 z" /><path
           id="path506"
           style=""
           d="m 448.69099,-108.0025 q 0,-0.351 0.117,-0.63 0.126,-0.288 0.351,-0.486 0.234,-0.198 0.558,-0.306 0.324,-0.108 0.729,-0.108 h 1.476 v -0.405 q 0,-0.459 -0.306,-0.711 -0.297,-0.261 -0.864,-0.261 -0.414,0 -0.711,0.153 -0.288,0.153 -0.387,0.423 h -0.81 q 0.126,-0.585 0.639,-0.927 0.522,-0.342 1.287,-0.342 0.918,0 1.44,0.432 0.522,0.423 0.522,1.188 v 3.42 h -0.738 v -0.945 h -0.072 q -0.117,0.477 -0.549,0.756 -0.432,0.279 -1.053,0.279 -0.747,0 -1.188,-0.414 -0.441,-0.414 -0.441,-1.116 z m 1.809,0.864 q 0.306,0 0.567,-0.081 0.261,-0.081 0.45,-0.225 0.189,-0.153 0.297,-0.351 0.108,-0.198 0.108,-0.432 v -0.675 h -1.458 q -0.45,0 -0.711,0.234 -0.252,0.234 -0.252,0.648 0,0.414 0.261,0.648 0.261,0.234 0.738,0.234 z" /><path
           id="path508"
           style=""
           d="m 453.91999,-106.5625 v -4.95 h 0.765 v 0.855 h 0.072 q 0.117,-0.45 0.468,-0.693 0.36,-0.252 0.891,-0.252 0.369,0 0.666,0.126 0.306,0.126 0.513,0.36 0.216,0.225 0.333,0.549 0.117,0.315 0.117,0.711 v 3.294 h -0.81 v -3.159 q 0,-0.567 -0.288,-0.882 -0.288,-0.315 -0.801,-0.315 -0.513,0 -0.819,0.342 -0.297,0.333 -0.297,0.909 v 3.105 z" /><path
           id="path510"
           style=""
           d="m 440.879,-102.29656 q 0.846,0 1.359,0.468 0.522,0.459 0.621,1.287 h -0.81 q -0.054,-0.486 -0.369,-0.756 -0.306,-0.279 -0.801,-0.279 -0.54,0 -0.855,0.324 -0.315,0.324 -0.315,0.891 v 2.789998 q 0,0.566999 0.306,0.891 0.315,0.324 0.864,0.324 0.495,0 0.801,-0.270001 0.315,-0.279 0.369,-0.765 h 0.81 q -0.099,0.828 -0.621,1.296001 -0.513,0.459 -1.359,0.459 -0.459,0 -0.828,-0.135001 -0.36,-0.135 -0.621,-0.387 -0.252,-0.251999 -0.396,-0.611999 -0.135,-0.36 -0.135,-0.801 v -2.789998 q 0,-0.441 0.135,-0.801 0.144,-0.36 0.396,-0.612 0.261,-0.252 0.621,-0.387 0.369,-0.135 0.828,-0.135 z" /><path
           id="path512"
           style=""
           d="m 443.921,-102.29656 h 0.81 v 1.62 q 0,0.126 -0.009,0.279 0,0.144 -0.009,0.27 -0.018,0.152997 -0.027,0.305998 h 0.072 q 0.117,-0.449998 0.468,-0.692998 0.36,-0.252 0.891,-0.252 0.369,0 0.666,0.126 0.306,0.126 0.513,0.36 0.216,0.225 0.333,0.548998 0.117,0.315 0.117,0.711 v 3.294 h -0.81 v -3.159001 q 0,-0.566999 -0.288,-0.881999 -0.288,-0.314998 -0.801,-0.314998 -0.513,0 -0.819,0.341998 -0.297,0.333 -0.297,0.908999 v 3.105001 h -0.81 z" /><path
           id="path514"
           style=""
           d="m 448.97899,-95.726562 v -0.738 h 1.8 v -3.474001 h -1.575 v -0.737997 h 2.385 v 4.211998 h 1.485 v 0.738 z m 1.98,-6.884998 h 0.18 q 0.261,0 0.423,0.153 0.162,0.153 0.162,0.396 0,0.243 -0.162,0.387 -0.162,0.144 -0.423,0.144 h -0.18 q -0.261,0 -0.423,-0.135 -0.162,-0.144 -0.162,-0.396 0,-0.243 0.162,-0.396 0.162,-0.153 0.423,-0.153 z" /><path
           id="path516"
           style=""
           d="m 453.91999,-95.726562 v -4.949998 h 0.765 v 0.854998 h 0.072 q 0.117,-0.449998 0.468,-0.692998 0.36,-0.252 0.891,-0.252 0.369,0 0.666,0.126 0.306,0.126 0.513,0.36 0.216,0.225 0.333,0.548998 0.117,0.315 0.117,0.711 v 3.294 h -0.81 v -3.159001 q 0,-0.566999 -0.288,-0.881999 -0.288,-0.314998 -0.801,-0.314998 -0.513,0 -0.819,0.341998 -0.297,0.333 -0.297,0.908999 v 3.105001 z" /><path
           id="path518"
           style=""
           d="m 458.68999,-97.166562 q 0,-0.351 0.117,-0.63 0.126,-0.288001 0.351,-0.486 0.234,-0.198001 0.558,-0.306 0.324,-0.108 0.729,-0.108 h 1.476 v -0.405 q 0,-0.459001 -0.306,-0.711 -0.297,-0.260998 -0.864,-0.260998 -0.414,0 -0.711,0.152997 -0.288,0.153001 -0.387,0.423001 h -0.81 q 0.126,-0.584998 0.639,-0.926998 0.522,-0.342 1.287,-0.342 0.918,0 1.44,0.432 0.522,0.422997 0.522,1.187997 v 3.420001 h -0.738 v -0.945 h -0.072 q -0.117,0.476999 -0.549,0.756 -0.432,0.279 -1.053,0.279 -0.747,0 -1.188,-0.414 -0.441,-0.414 -0.441,-1.116 z m 1.809,0.864 q 0.306,0 0.567,-0.081 0.261,-0.081 0.45,-0.225001 0.189,-0.152999 0.297,-0.351 0.108,-0.197999 0.108,-0.432 v -0.675 h -1.458 q -0.45,0 -0.711,0.234001 -0.252,0.234 -0.252,0.648 0,0.414 0.261,0.647999 0.261,0.234001 0.738,0.234001 z" /></g><path
         id="path34"
         style="fill:#fe4365;fill-opacity:1;fill-rule:nonzero;stroke:none"
         d="m 544.676,121.688 h 5.418 v 5.418 h -5.418 z" /><path
         id="path36"
         style="fill:#eca25c;fill-opacity:1;fill-rule:nonzero;stroke:none"
         d="m 544.676,132.52 h 5.418 v 5.418 h -5.418 z" /><path
         id="path38"
         style="fill:#3f9778;fill-opacity:1;fill-rule:nonzero;stroke:none"
         d="m 544.676,143.355 h 5.418 v 5.418 h -5.418 z" /><path
         id="path40"
         style="fill:#eedbff;fill-opacity:1;fill-rule:nonzero;stroke:none"
         d="m 544.676,154.191 h 5.418 v 5.418 h -5.418 z" /><path
         id="path42"
         style="fill:#236ead;fill-opacity:1;fill-rule:nonzero;stroke:none"
         d="m 544.676,165.023 h 5.418 v 5.418 h -5.418 z" /><path
         id="path44"
         style="fill:#60f6ff;fill-opacity:1;fill-rule:nonzero;stroke:none"
         d="m 544.676,175.859 h 5.418 v 5.418 h -5.418 z" /><path
         id="path46"
         style="fill:#d4ec9f;fill-opacity:1;fill-rule:nonzero;stroke:none"
         d="m 544.676,186.695 h 5.418 v 5.418 h -5.418 z" /></g><g
       id="g48"><g
         clip-path="url(#clipPath54)"
         id="g50"><path
           id="path56"
           style="fill:#222831;fill-opacity:1;fill-rule:nonzero;stroke:none"
           d="M 32.668,26.668 H 541.84 V 276.293 H 32.668 Z" /></g></g><g
       id="g58"><g
         clip-path="url(#clipPath64)"
         id="g60"><path
           id="path66"
           style="fill:none;stroke:#575757;stroke-width:0.749906;stroke-linecap:butt;stroke-linejoin:miter;stroke-miterlimit:10;stroke-dasharray:1.417323, 1.417323;stroke-dashoffset:0;stroke-opacity:1"
           d="M 32.668,194.875 H 541.84" /></g></g><g
       id="g68"><g
         clip-path="url(#clipPath74)"
         id="g70"><path
           id="path76"
           style="fill:none;stroke:#575757;stroke-width:0.749906;stroke-linecap:butt;stroke-linejoin:miter;stroke-miterlimit:10;stroke-dasharray:1.417323, 1.417323;stroke-dashoffset:0;stroke-opacity:1"
           d="M 32.668,118.746 H 541.84" /></g></g><g
       id="g78"><g
         clip-path="url(#clipPath84)"
         id="g80"><path
           id="path86"
           style="fill:none;stroke:#575757;stroke-width:0.749906;stroke-linecap:butt;stroke-linejoin:miter;stroke-miterlimit:10;stroke-dasharray:1.417323, 1.417323;stroke-dashoffset:0;stroke-opacity:1"
           d="M 32.668,42.613 H 541.84" /></g></g><g
       id="g88"><g
         clip-path="url(#clipPath94)"
         id="g90"><path
           id="path96"
           style="fill:none;stroke:#575757;stroke-width:0.749906;stroke-linecap:butt;stroke-linejoin:miter;stroke-miterlimit:10;stroke-dasharray:1.417323, 1.417323;stroke-dashoffset:0;stroke-opacity:1"
           d="M 119.801,26.668 V 276.293" /></g></g><g
       id="g98"><g
         clip-path="url(#clipPath104)"
         id="g100"><path
           id="path106"
           style="fill:none;stroke:#575757;stroke-width:0.749906;stroke-linecap:butt;stroke-linejoin:miter;stroke-miterlimit:10;stroke-dasharray:1.417323, 1.417323;stroke-dashoffset:0;stroke-opacity:1"
           d="M 210.316,26.668 V 276.293" /></g></g><g
       id="g108"><g
         clip-path="url(#clipPath114)"
         id="g110"><path
           id="path116"
           style="fill:none;stroke:#575757;stroke-width:0.749906;stroke-linecap:butt;stroke-linejoin:miter;stroke-miterlimit:10;stroke-dasharray:1.417323, 1.417323;stroke-dashoffset:0;stroke-opacity:1"
           d="M 300.832,26.668 V 276.293" /></g></g><g
       id="g118"><g
         clip-path="url(#clipPath124)"
         id="g120"><path
           id="path126"
           style="fill:none;stroke:#575757;stroke-width:0.749906;stroke-linecap:butt;stroke-linejoin:miter;stroke-miterlimit:10;stroke-dasharray:1.417323, 1.417323;stroke-dashoffset:0;stroke-opacity:1"
           d="M 391.348,26.668 V 276.293" /></g></g><g
       id="g128"><g
         clip-path="url(#clipPath134)"
         id="g130"><path
           id="path136"
           style="fill:none;stroke:#575757;stroke-width:0.749906;stroke-linecap:butt;stroke-linejoin:miter;stroke-miterlimit:10;stroke-dasharray:1.417323, 1.417323;stroke-dashoffset:0;stroke-opacity:1"
           d="M 481.863,26.668 V 276.293" /></g></g><g
       id="g138"><path
         id="path140"
         style="fill:none;stroke:#fe4365;stroke-width:1.49981296;stroke-linecap:butt;stroke-linejoin:miter;stroke-miterlimit:10;stroke-dasharray:none;stroke-opacity:1"
         d="m 38.336,266.793 9.051,1.379 9.054,-2.352 9.051,-5.652 9.051,-9.164 9.051,-6.031 9.051,-1.45 9.054,-10.023 9.051,-8.578 9.051,-10.875 9.051,-12.043 9.05,-13.711" /><path
         id="path142"
         style="fill:none;stroke:#eedbff;stroke-width:1.49981296;stroke-linecap:butt;stroke-linejoin:miter;stroke-miterlimit:10;stroke-dasharray:none;stroke-opacity:1"
         d="m 38.336,267.965 18.105,-2.246 9.051,-1.723 18.102,-0.91 9.051,-1.457 18.105,-8.113 27.152,-30.348 9.055,-24.219" /><path
         id="path144"
         style="fill:none;stroke:#60f6ff;stroke-width:1.49981296;stroke-linecap:butt;stroke-linejoin:miter;stroke-miterlimit:10;stroke-dasharray:none;stroke-opacity:1"
         d="m 38.336,266.73 9.051,-0.054 9.054,-0.723 9.051,-1.34 9.051,-1.906 9.051,-2.434 9.051,-3.023 9.054,-3.508 9.051,-3.734 9.051,-3.406 9.051,-3.68 9.05,-4.641 9.055,-5.246 9.051,-4.82 9.051,-4.281 9.05,-3.711 9.051,-3.149 9.055,-2.519 9.051,-1.793" /><path
         id="path146"
         style="fill:none;stroke:#d4ec9f;stroke-width:1.49981296;stroke-linecap:butt;stroke-linejoin:miter;stroke-miterlimit:10;stroke-dasharray:none;stroke-opacity:1"
         d="m 38.336,269.285 9.051,-3.07 9.054,-3.024 9.051,-2.964 9.051,-2.903 9.051,-2.84 9.051,-2.754 9.054,-2.679 9.051,-2.594 9.051,-2.496 9.051,-2.399 9.05,-2.289 9.055,-2.175 9.051,-2.059 9.051,-1.937 9.05,-1.793 9.051,-1.715 9.055,-1.586 9.051,-1.465 9.05,-1.387 9.051,-1.156 9.051,-0.938 9.051,-0.691 9.054,0.465 9.051,0.75 9.051,1.226 9.051,1.731 18.105,5.453 9.051,3.066 9.051,3.043 9.051,2.922 9.05,2.961 9.055,2.742 9.051,2.598 9.051,2.285 9.05,1.934 9.051,1.816 9.051,1.621 9.055,1.508 9.05,1.383 9.051,1.25 9.051,1.129 9.051,1.004 9.054,0.89 9.051,0.762 9.051,0.652 9.051,0.54 9.051,0.429 9.054,0.324 9.051,0.219 9.051,0.125 9.051,0.031 9.05,-0.062 9.051,-0.152 9.055,-0.235" /><path
         id="path148"
         style="fill:none;stroke:#236ead;stroke-width:1.49981296;stroke-linecap:butt;stroke-linejoin:miter;stroke-miterlimit:10;stroke-dasharray:none;stroke-opacity:1"
         d="m 38.336,266.719 9.051,0.406 9.054,-0.598 9.051,-1.734 9.051,-2.949 9.051,-4.196 9.051,-5.347 9.054,-6.215 9.051,-9.125 9.051,-14.012 9.051,-17.844 9.05,-17.421 18.106,-26.286 9.051,-7.289 9.05,-9.472 9.051,-12.012 9.055,-14.687 9.051,-17.465 9.05,-20.621 9.051,-24.442" /><path
         id="path150"
         style="fill:none;stroke:#3f9778;stroke-width:1.49981296;stroke-linecap:butt;stroke-linejoin:miter;stroke-miterlimit:10;stroke-dasharray:none;stroke-opacity:1"
         d="m 38.336,268.109 9.051,0.856 9.054,0.121 9.051,-0.668 9.051,-2.02 9.051,-2.175 9.051,0.074 9.054,-6.363 9.051,-4.856 9.051,-3.832" /><path
         id="path152"
         style="fill:none;stroke:#eca25c;stroke-width:1.49981296;stroke-linecap:butt;stroke-linejoin:miter;stroke-miterlimit:10;stroke-dasharray:none;stroke-opacity:1"
         d="m 47.387,270.332 18.105,-0.055 18.102,-0.218 9.051,-0.059 9.054,-0.246 9.051,-0.598 9.051,-0.203 9.051,-1.078 9.05,-2.234 9.055,-3.539" /><path
         id="path154"
         style="fill:#d4ec9f;fill-opacity:1;fill-rule:nonzero;stroke:none"
         d="m 539.172,269.484 c 0,4 -6,4 -6,0 0,-4 6,-4 6,0" /><path
         id="path156"
         style="fill:#d4ec9f;fill-opacity:1;fill-rule:nonzero;stroke:none"
         d="m 530.117,267.961 c 0,4 -5.996,4 -5.996,0 0,-4 5.996,-4 5.996,0" /><path
         id="path158"
         style="fill:#d4ec9f;fill-opacity:1;fill-rule:nonzero;stroke:none"
         d="m 521.066,266.82 c 0,4 -6,4 -6,0 0,-4 6,-4 6,0" /><path
         id="path160"
         style="fill:#d4ec9f;fill-opacity:1;fill-rule:nonzero;stroke:none"
         d="m 512.016,266.059 c 0,4 -6,4 -6,0 0,-4 6,-4 6,0" /><path
         id="path162"
         style="fill:#d4ec9f;fill-opacity:1;fill-rule:nonzero;stroke:none"
         d="m 502.965,265.676 c 0,4 -6,4 -6,0 0,-4 6,-4 6,0" /><path
         id="path164"
         style="fill:#d4ec9f;fill-opacity:1;fill-rule:nonzero;stroke:none"
         d="m 493.914,267.199 c 0,4 -6,4 -6,0 0,-4 6,-4 6,0" /><path
         id="path166"
         style="fill:#d4ec9f;fill-opacity:1;fill-rule:nonzero;stroke:none"
         d="m 484.859,266.059 c 0,4 -5.996,4 -5.996,0 0,-4 5.996,-4 5.996,0" /><path
         id="path168"
         style="fill:#d4ec9f;fill-opacity:1;fill-rule:nonzero;stroke:none"
         d="m 475.809,267.961 c 0,4 -6,4 -6,0 0,-4 6,-4 6,0" /><path
         id="path170"
         style="fill:#d4ec9f;fill-opacity:1;fill-rule:nonzero;stroke:none"
         d="m 466.758,266.82 c 0,4 -6,4 -6,0 0,-4 6,-4 6,0" /><path
         id="path172"
         style="fill:#d4ec9f;fill-opacity:1;fill-rule:nonzero;stroke:none"
         d="m 457.707,262.633 c 0,4 -6,4 -6,0 0,-4 6,-4 6,0" /><path
         id="path174"
         style="fill:#d4ec9f;fill-opacity:1;fill-rule:nonzero;stroke:none"
         d="m 448.656,264.914 c 0,4 -6,4 -6,0 0,-3.996 6,-3.996 6,0" /><path
         id="path176"
         style="fill:#d4ec9f;fill-opacity:1;fill-rule:nonzero;stroke:none"
         d="m 439.605,262.25 c 0,4 -6,4 -6,0 0,-4 6,-4 6,0" /><path
         id="path178"
         style="fill:#d4ec9f;fill-opacity:1;fill-rule:nonzero;stroke:none"
         d="m 430.551,260.348 c 0,4 -5.996,4 -5.996,0 0,-4 5.996,-4 5.996,0" /><path
         id="path180"
         style="fill:#d4ec9f;fill-opacity:1;fill-rule:nonzero;stroke:none"
         d="m 421.5,260.348 c 0,4 -6,4 -6,0 0,-4 6,-4 6,0" /><path
         id="path182"
         style="fill:#d4ec9f;fill-opacity:1;fill-rule:nonzero;stroke:none"
         d="m 412.449,259.969 c 0,3.996 -6,3.996 -6,0 0,-4 6,-4 6,0" /><path
         id="path184"
         style="fill:#d4ec9f;fill-opacity:1;fill-rule:nonzero;stroke:none"
         d="m 403.398,258.824 c 0,4 -6,4 -6,0 0,-4 6,-4 6,0" /><path
         id="path186"
         style="fill:#d4ec9f;fill-opacity:1;fill-rule:nonzero;stroke:none"
         d="m 394.348,257.301 c 0,4 -6,4 -6,0 0,-3.996 6,-3.996 6,0" /><path
         id="path188"
         style="fill:#d4ec9f;fill-opacity:1;fill-rule:nonzero;stroke:none"
         d="m 385.293,258.445 c 0,4 -5.996,4 -5.996,0 0,-4 5.996,-4 5.996,0" /><path
         id="path190"
         style="fill:#d4ec9f;fill-opacity:1;fill-rule:nonzero;stroke:none"
         d="m 376.242,255.02 c 0,4 -6,4 -6,0 0,-4 6,-4 6,0" /><path
         id="path192"
         style="fill:#d4ec9f;fill-opacity:1;fill-rule:nonzero;stroke:none"
         d="m 367.191,257.684 c 0,4 -6,4 -6,0 0,-4 6,-4 6,0" /><path
         id="path194"
         style="fill:#d4ec9f;fill-opacity:1;fill-rule:nonzero;stroke:none"
         d="m 358.141,253.117 c 0,3.996 -6,3.996 -6,0 0,-4 6,-4 6,0" /><path
         id="path196"
         style="fill:#d4ec9f;fill-opacity:1;fill-rule:nonzero;stroke:none"
         d="m 349.09,254.258 c 0,4 -6,4 -6,0 0,-4 6,-4 6,0" /><path
         id="path198"
         style="fill:#d4ec9f;fill-opacity:1;fill-rule:nonzero;stroke:none"
         d="m 340.035,259.969 c 0,3.996 -5.996,3.996 -5.996,0 0,-4 5.996,-4 5.996,0" /><path
         id="path200"
         style="fill:#d4ec9f;fill-opacity:1;fill-rule:nonzero;stroke:none"
         d="m 330.984,251.211 c 0,4 -6,4 -6,0 0,-4 6,-4 6,0" /><path
         id="path202"
         style="fill:#d4ec9f;fill-opacity:1;fill-rule:nonzero;stroke:none"
         d="m 321.934,244.359 c 0,4 -6,4 -6,0 0,-4 6,-4 6,0" /><path
         id="path204"
         style="fill:#d4ec9f;fill-opacity:1;fill-rule:nonzero;stroke:none"
         d="m 312.883,213.91 c 0,3.996 -6,3.996 -6,0 0,-4 6,-4 6,0" /><path
         id="path206"
         style="fill:#d4ec9f;fill-opacity:1;fill-rule:nonzero;stroke:none"
         d="m 303.832,270.246 c 0,4 -6,4 -6,0 0,-4 6,-4 6,0" /><path
         id="path208"
         style="fill:#d4ec9f;fill-opacity:1;fill-rule:nonzero;stroke:none"
         d="m 294.777,192.973 c 0,4 -5.996,4 -5.996,0 0,-4 5.996,-4 5.996,0" /><path
         id="path210"
         style="fill:#d4ec9f;fill-opacity:1;fill-rule:nonzero;stroke:none"
         d="m 276.676,224.566 c 0,4 -6,4 -6,0 0,-4 6,-4 6,0" /><path
         id="path212"
         style="fill:#d4ec9f;fill-opacity:1;fill-rule:nonzero;stroke:none"
         d="m 267.625,227.992 c 0,4 -6,4 -6,0 0,-4 6,-4 6,0" /><path
         id="path214"
         style="fill:#d4ec9f;fill-opacity:1;fill-rule:nonzero;stroke:none"
         d="m 258.574,218.094 c 0,4 -6,4 -6,0 0,-3.996 6,-3.996 6,0" /><path
         id="path216"
         style="fill:#d4ec9f;fill-opacity:1;fill-rule:nonzero;stroke:none"
         d="m 249.523,233.703 c 0,4 -6,4 -6,0 0,-4 6,-4 6,0" /><path
         id="path218"
         style="fill:#d4ec9f;fill-opacity:1;fill-rule:nonzero;stroke:none"
         d="m 240.469,231.801 c 0,3.996 -5.996,3.996 -5.996,0 0,-4 5.996,-4 5.996,0" /><path
         id="path220"
         style="fill:#d4ec9f;fill-opacity:1;fill-rule:nonzero;stroke:none"
         d="m 231.418,216.953 c 0,4 -6,4 -6,0 0,-4 6,-4 6,0" /><path
         id="path222"
         style="fill:#d4ec9f;fill-opacity:1;fill-rule:nonzero;stroke:none"
         d="m 222.367,213.148 c 0,3.997 -6,3.997 -6,0 0,-4 6,-4 6,0" /><path
         id="path224"
         style="fill:#d4ec9f;fill-opacity:1;fill-rule:nonzero;stroke:none"
         d="m 213.316,175.082 c 0,4 -6,4 -6,0 0,-4 6,-4 6,0" /><path
         id="path226"
         style="fill:#d4ec9f;fill-opacity:1;fill-rule:nonzero;stroke:none"
         d="m 204.266,269.102 c 0,4 -6,4 -6,0 0,-4 6,-4 6,0" /><path
         id="path228"
         style="fill:#d4ec9f;fill-opacity:1;fill-rule:nonzero;stroke:none"
         d="m 195.211,232.941 c 0,4 -5.996,4 -5.996,0 0,-4 5.996,-4 5.996,0" /><path
         id="path230"
         style="fill:#d4ec9f;fill-opacity:1;fill-rule:nonzero;stroke:none"
         d="m 186.16,230.277 c 0,4 -6,4 -6,0 0,-4 6,-4 6,0" /><path
         id="path232"
         style="fill:#d4ec9f;fill-opacity:1;fill-rule:nonzero;stroke:none"
         d="m 177.109,232.941 c 0,4 -6,4 -6,0 0,-4 6,-4 6,0" /><path
         id="path234"
         style="fill:#d4ec9f;fill-opacity:1;fill-rule:nonzero;stroke:none"
         d="m 168.059,237.891 c 0,4 -6,4 -6,0 0,-4 6,-4 6,0" /><path
         id="path236"
         style="fill:#d4ec9f;fill-opacity:1;fill-rule:nonzero;stroke:none"
         d="m 159.008,238.652 c 0,3.996 -6,3.996 -6,0 0,-4 6,-4 6,0" /><path
         id="path238"
         style="fill:#d4ec9f;fill-opacity:1;fill-rule:nonzero;stroke:none"
         d="m 149.953,244.359 c 0,4 -5.996,4 -5.996,0 0,-4 5.996,-4 5.996,0" /><path
         id="path240"
         style="fill:#d4ec9f;fill-opacity:1;fill-rule:nonzero;stroke:none"
         d="m 140.902,243.598 c 0,4 -6,4 -6,0 0,-4 6,-4 6,0" /><path
         id="path242"
         style="fill:#d4ec9f;fill-opacity:1;fill-rule:nonzero;stroke:none"
         d="m 131.852,245.883 c 0,4 -6,4 -6,0 0,-4 6,-4 6,0" /><path
         id="path244"
         style="fill:#d4ec9f;fill-opacity:1;fill-rule:nonzero;stroke:none"
         d="m 122.801,246.645 c 0,4 -6,4 -6,0 0,-4 6,-4 6,0" /><path
         id="path246"
         style="fill:#d4ec9f;fill-opacity:1;fill-rule:nonzero;stroke:none"
         d="m 113.75,232.18 c 0,4 -6,4 -6,0 0,-4 6,-4 6,0" /><path
         id="path248"
         style="fill:#d4ec9f;fill-opacity:1;fill-rule:nonzero;stroke:none"
         d="m 104.699,253.496 c 0,4 -6,4 -6,0 0,-4 6,-4 6,0" /><path
         id="path250"
         style="fill:#d4ec9f;fill-opacity:1;fill-rule:nonzero;stroke:none"
         d="m 95.645,255.02 c 0,4 -5.997,4 -5.997,0 0,-4 5.997,-4 5.997,0" /><path
         id="path252"
         style="fill:#d4ec9f;fill-opacity:1;fill-rule:nonzero;stroke:none"
         d="m 86.594,256.543 c 0,3.996 -6,3.996 -6,0 0,-4 6,-4 6,0" /><path
         id="path254"
         style="fill:#d4ec9f;fill-opacity:1;fill-rule:nonzero;stroke:none"
         d="m 77.543,270.246 c 0,4 -6,4 -6,0 0,-4 6,-4 6,0" /><path
         id="path256"
         style="fill:#d4ec9f;fill-opacity:1;fill-rule:nonzero;stroke:none"
         d="m 68.492,252.355 c 0,4 -6,4 -6,0 0,-4 6,-4 6,0" /><path
         id="path258"
         style="fill:#d4ec9f;fill-opacity:1;fill-rule:nonzero;stroke:none"
         d="m 59.441,261.109 c 0,4 -6,4 -6,0 0,-4 6,-4 6,0" /><path
         id="path260"
         style="fill:#d4ec9f;fill-opacity:1;fill-rule:nonzero;stroke:none"
         d="m 50.387,265.676 c 0,4 -5.996,4 -5.996,0 0,-4 5.996,-4 5.996,0" /><path
         id="path262"
         style="fill:#d4ec9f;fill-opacity:1;fill-rule:nonzero;stroke:none"
         d="m 41.336,264.914 c 0,4 -6,4 -6,0 0,-3.996 6,-3.996 6,0" /><path
         id="path264"
         style="fill:#60f6ff;fill-opacity:1;fill-rule:nonzero;stroke:none"
         d="m 204.266,214.289 c 0,4 -6,4 -6,0 0,-4 6,-4 6,0" /><path
         id="path266"
         style="fill:#60f6ff;fill-opacity:1;fill-rule:nonzero;stroke:none"
         d="m 195.211,214.289 c 0,4 -5.996,4 -5.996,0 0,-4 5.996,-4 5.996,0" /><path
         id="path268"
         style="fill:#60f6ff;fill-opacity:1;fill-rule:nonzero;stroke:none"
         d="m 186.16,215.051 c 0,4 -6,4 -6,0 0,-4 6,-4 6,0" /><path
         id="path270"
         style="fill:#60f6ff;fill-opacity:1;fill-rule:nonzero;stroke:none"
         d="m 177.109,219.617 c 0,4 -6,4 -6,0 0,-4 6,-4 6,0" /><path
         id="path272"
         style="fill:#60f6ff;fill-opacity:1;fill-rule:nonzero;stroke:none"
         d="m 168.059,221.902 c 0,4 -6,4 -6,0 0,-4 6,-4 6,0" /><path
         id="path274"
         style="fill:#60f6ff;fill-opacity:1;fill-rule:nonzero;stroke:none"
         d="m 159.008,227.992 c 0,4 -6,4 -6,0 0,-4 6,-4 6,0" /><path
         id="path276"
         style="fill:#60f6ff;fill-opacity:1;fill-rule:nonzero;stroke:none"
         d="m 149.953,234.082 c 0,4 -5.996,4 -5.996,0 0,-4 5.996,-4 5.996,0" /><path
         id="path278"
         style="fill:#60f6ff;fill-opacity:1;fill-rule:nonzero;stroke:none"
         d="m 140.902,238.652 c 0,3.996 -6,3.996 -6,0 0,-4 6,-4 6,0" /><path
         id="path280"
         style="fill:#60f6ff;fill-opacity:1;fill-rule:nonzero;stroke:none"
         d="m 131.852,242.457 c 0,4 -6,4 -6,0 0,-4 6,-4 6,0" /><path
         id="path282"
         style="fill:#60f6ff;fill-opacity:1;fill-rule:nonzero;stroke:none"
         d="m 122.801,247.023 c 0,4 -6,4 -6,0 0,-3.996 6,-3.996 6,0" /><path
         id="path284"
         style="fill:#60f6ff;fill-opacity:1;fill-rule:nonzero;stroke:none"
         d="m 113.75,250.449 c 0,4 -6,4 -6,0 0,-3.996 6,-3.996 6,0" /><path
         id="path286"
         style="fill:#60f6ff;fill-opacity:1;fill-rule:nonzero;stroke:none"
         d="m 104.699,254.637 c 0,4 -6,4 -6,0 0,-4 6,-4 6,0" /><path
         id="path288"
         style="fill:#60f6ff;fill-opacity:1;fill-rule:nonzero;stroke:none"
         d="m 95.645,252.355 c 0,4 -5.997,4 -5.997,0 0,-4 5.997,-4 5.997,0" /><path
         id="path290"
         style="fill:#60f6ff;fill-opacity:1;fill-rule:nonzero;stroke:none"
         d="m 86.594,263.012 c 0,4 -6,4 -6,0 0,-4 6,-4 6,0" /><path
         id="path292"
         style="fill:#60f6ff;fill-opacity:1;fill-rule:nonzero;stroke:none"
         d="m 77.543,264.535 c 0,4 -6,4 -6,0 0,-4 6,-4 6,0" /><path
         id="path294"
         style="fill:#60f6ff;fill-opacity:1;fill-rule:nonzero;stroke:none"
         d="m 68.492,265.297 c 0,4 -6,4 -6,0 0,-4 6,-4 6,0" /><path
         id="path296"
         style="fill:#60f6ff;fill-opacity:1;fill-rule:nonzero;stroke:none"
         d="m 59.441,265.297 c 0,4 -6,4 -6,0 0,-4 6,-4 6,0" /><path
         id="path298"
         style="fill:#60f6ff;fill-opacity:1;fill-rule:nonzero;stroke:none"
         d="m 50.387,266.82 c 0,4 -5.996,4 -5.996,0 0,-4 5.996,-4 5.996,0" /><path
         id="path300"
         style="fill:#60f6ff;fill-opacity:1;fill-rule:nonzero;stroke:none"
         d="m 41.336,266.438 c 0,4 -6,4 -6,0 0,-4 6,-4 6,0" /><path
         id="path302"
         style="fill:#236ead;fill-opacity:1;fill-rule:nonzero;stroke:none"
         d="m 222.367,32.336 c 0,4 -6,4 -6,0 0,-4 6,-4 6,0" /><path
         id="path304"
         style="fill:#236ead;fill-opacity:1;fill-rule:nonzero;stroke:none"
         d="m 213.316,108.469 c 0,4 -6,4 -6,0 0,-4 6,-4 6,0" /><path
         id="path306"
         style="fill:#236ead;fill-opacity:1;fill-rule:nonzero;stroke:none"
         d="m 204.266,90.195 c 0,4 -6,4 -6,0 0,-4 6,-4 6,0" /><path
         id="path308"
         style="fill:#236ead;fill-opacity:1;fill-rule:nonzero;stroke:none"
         d="m 195.211,139.68 c 0,4 -5.996,4 -5.996,0 0,-4 5.996,-4 5.996,0" /><path
         id="path310"
         style="fill:#236ead;fill-opacity:1;fill-rule:nonzero;stroke:none"
         d="m 186.16,138.16 c 0,3.996 -6,3.996 -6,0 0,-4 6,-4 6,0" /><path
         id="path312"
         style="fill:#236ead;fill-opacity:1;fill-rule:nonzero;stroke:none"
         d="m 177.109,130.926 c 0,4 -6,4 -6,0 0,-4 6,-4 6,0" /><path
         id="path314"
         style="fill:#236ead;fill-opacity:1;fill-rule:nonzero;stroke:none"
         d="m 168.059,204.391 c 0,4 -6,4 -6,0 0,-4 6,-4 6,0" /><path
         id="path316"
         style="fill:#236ead;fill-opacity:1;fill-rule:nonzero;stroke:none"
         d="m 159.008,103.898 c 0,4 -6,4 -6,0 0,-4 6,-4 6,0" /><path
         id="path318"
         style="fill:#236ead;fill-opacity:1;fill-rule:nonzero;stroke:none"
         d="m 140.902,196.398 c 0,4 -6,4 -6,0 0,-4 6,-4 6,0" /><path
         id="path320"
         style="fill:#236ead;fill-opacity:1;fill-rule:nonzero;stroke:none"
         d="m 131.852,207.055 c 0,4 -6,4 -6,0 0,-3.996 6,-3.996 6,0" /><path
         id="path322"
         style="fill:#236ead;fill-opacity:1;fill-rule:nonzero;stroke:none"
         d="m 122.801,234.082 c 0,4 -6,4 -6,0 0,-4 6,-4 6,0" /><path
         id="path324"
         style="fill:#236ead;fill-opacity:1;fill-rule:nonzero;stroke:none"
         d="m 113.75,220.379 c 0,4 -6,4 -6,0 0,-4 6,-4 6,0" /><path
         id="path326"
         style="fill:#236ead;fill-opacity:1;fill-rule:nonzero;stroke:none"
         d="m 104.699,257.301 c 0,4 -6,4 -6,0 0,-3.996 6,-3.996 6,0" /><path
         id="path328"
         style="fill:#236ead;fill-opacity:1;fill-rule:nonzero;stroke:none"
         d="m 95.645,252.355 c 0,4 -5.997,4 -5.997,0 0,-4 5.997,-4 5.997,0" /><path
         id="path330"
         style="fill:#236ead;fill-opacity:1;fill-rule:nonzero;stroke:none"
         d="m 86.594,255.398 c 0,4 -6,4 -6,0 0,-4 6,-4 6,0" /><path
         id="path332"
         style="fill:#236ead;fill-opacity:1;fill-rule:nonzero;stroke:none"
         d="m 77.543,260.348 c 0,4 -6,4 -6,0 0,-4 6,-4 6,0" /><path
         id="path334"
         style="fill:#236ead;fill-opacity:1;fill-rule:nonzero;stroke:none"
         d="m 68.492,260.727 c 0,4 -6,4 -6,0 0,-3.997 6,-3.997 6,0" /><path
         id="path336"
         style="fill:#236ead;fill-opacity:1;fill-rule:nonzero;stroke:none"
         d="m 59.441,264.156 c 0,3.996 -6,3.996 -6,0 0,-4 6,-4 6,0" /><path
         id="path338"
         style="fill:#236ead;fill-opacity:1;fill-rule:nonzero;stroke:none"
         d="m 50.387,269.102 c 0,4 -5.996,4 -5.996,0 0,-4 5.996,-4 5.996,0" /><path
         id="path340"
         style="fill:#236ead;fill-opacity:1;fill-rule:nonzero;stroke:none"
         d="m 41.336,267.961 c 0,4 -6,4 -6,0 0,-4 6,-4 6,0" /><path
         id="path342"
         style="fill:#eedbff;fill-opacity:1;fill-rule:nonzero;stroke:none"
         d="m 149.953,192.211 c 0,4 -5.996,4 -5.996,0 0,-4 5.996,-4 5.996,0" /><path
         id="path344"
         style="fill:#eedbff;fill-opacity:1;fill-rule:nonzero;stroke:none"
         d="m 140.902,234.844 c 0,4 -6,4 -6,0 0,-4 6,-4 6,0" /><path
         id="path346"
         style="fill:#eedbff;fill-opacity:1;fill-rule:nonzero;stroke:none"
         d="m 113.75,249.309 c 0,4 -6,4 -6,0 0,-4 6,-4 6,0" /><path
         id="path348"
         style="fill:#eedbff;fill-opacity:1;fill-rule:nonzero;stroke:none"
         d="m 95.645,266.438 c 0,4 -5.997,4 -5.997,0 0,-4 5.997,-4 5.997,0" /><path
         id="path350"
         style="fill:#eedbff;fill-opacity:1;fill-rule:nonzero;stroke:none"
         d="m 86.594,259.207 c 0,4 -6,4 -6,0 0,-4 6,-4 6,0" /><path
         id="path352"
         style="fill:#eedbff;fill-opacity:1;fill-rule:nonzero;stroke:none"
         d="m 68.492,265.297 c 0,4 -6,4 -6,0 0,-4 6,-4 6,0" /><path
         id="path354"
         style="fill:#eedbff;fill-opacity:1;fill-rule:nonzero;stroke:none"
         d="m 59.441,265.676 c 0,4 -6,4 -6,0 0,-4 6,-4 6,0" /><path
         id="path356"
         style="fill:#eedbff;fill-opacity:1;fill-rule:nonzero;stroke:none"
         d="m 41.336,267.961 c 0,4 -6,4 -6,0 0,-4 6,-4 6,0" /><path
         id="path358"
         style="fill:#3f9778;fill-opacity:1;fill-rule:nonzero;stroke:none"
         d="m 122.801,254.258 c 0,4 -6,4 -6,0 0,-4 6,-4 6,0" /><path
         id="path360"
         style="fill:#3f9778;fill-opacity:1;fill-rule:nonzero;stroke:none"
         d="m 113.75,239.793 c 0,4 -6,4 -6,0 0,-4 6,-4 6,0" /><path
         id="path362"
         style="fill:#3f9778;fill-opacity:1;fill-rule:nonzero;stroke:none"
         d="m 104.699,267.199 c 0,4 -6,4 -6,0 0,-4 6,-4 6,0" /><path
         id="path364"
         style="fill:#3f9778;fill-opacity:1;fill-rule:nonzero;stroke:none"
         d="m 95.645,262.25 c 0,4 -5.997,4 -5.997,0 0,-4 5.997,-4 5.997,0" /><path
         id="path366"
         style="fill:#3f9778;fill-opacity:1;fill-rule:nonzero;stroke:none"
         d="m 86.594,262.633 c 0,4 -6,4 -6,0 0,-4 6,-4 6,0" /><path
         id="path368"
         style="fill:#3f9778;fill-opacity:1;fill-rule:nonzero;stroke:none"
         d="m 77.543,267.582 c 0,3.996 -6,3.996 -6,0 0,-4 6,-4 6,0" /><path
         id="path370"
         style="fill:#3f9778;fill-opacity:1;fill-rule:nonzero;stroke:none"
         d="m 68.492,268.34 c 0,4 -6,4 -6,0 0,-3.996 6,-3.996 6,0" /><path
         id="path372"
         style="fill:#3f9778;fill-opacity:1;fill-rule:nonzero;stroke:none"
         d="m 59.441,268.34 c 0,4 -6,4 -6,0 0,-3.996 6,-3.996 6,0" /><path
         id="path374"
         style="fill:#3f9778;fill-opacity:1;fill-rule:nonzero;stroke:none"
         d="m 50.387,269.484 c 0,4 -5.996,4 -5.996,0 0,-4 5.996,-4 5.996,0" /><path
         id="path376"
         style="fill:#3f9778;fill-opacity:1;fill-rule:nonzero;stroke:none"
         d="m 41.336,267.961 c 0,4 -6,4 -6,0 0,-4 6,-4 6,0" /><path
         id="path378"
         style="fill:#eca25c;fill-opacity:1;fill-rule:nonzero;stroke:none"
         d="m 149.953,262.25 c 0,4 -5.996,4 -5.996,0 0,-4 5.996,-4 5.996,0" /><path
         id="path380"
         style="fill:#eca25c;fill-opacity:1;fill-rule:nonzero;stroke:none"
         d="m 140.902,264.914 c 0,4 -6,4 -6,0 0,-3.996 6,-3.996 6,0" /><path
         id="path382"
         style="fill:#eca25c;fill-opacity:1;fill-rule:nonzero;stroke:none"
         d="m 131.852,269.484 c 0,4 -6,4 -6,0 0,-4 6,-4 6,0" /><path
         id="path384"
         style="fill:#eca25c;fill-opacity:1;fill-rule:nonzero;stroke:none"
         d="m 122.801,268.34 c 0,4 -6,4 -6,0 0,-3.996 6,-3.996 6,0" /><path
         id="path386"
         style="fill:#eca25c;fill-opacity:1;fill-rule:nonzero;stroke:none"
         d="m 113.75,268.723 c 0,4 -6,4 -6,0 0,-4 6,-4 6,0" /><path
         id="path388"
         style="fill:#eca25c;fill-opacity:1;fill-rule:nonzero;stroke:none"
         d="m 104.699,270.246 c 0,4 -6,4 -6,0 0,-4 6,-4 6,0" /><path
         id="path390"
         style="fill:#eca25c;fill-opacity:1;fill-rule:nonzero;stroke:none"
         d="m 95.645,270.246 c 0,4 -5.997,4 -5.997,0 0,-4 5.997,-4 5.997,0" /><path
         id="path392"
         style="fill:#eca25c;fill-opacity:1;fill-rule:nonzero;stroke:none"
         d="m 86.594,269.484 c 0,4 -6,4 -6,0 0,-4 6,-4 6,0" /><path
         id="path394"
         style="fill:#eca25c;fill-opacity:1;fill-rule:nonzero;stroke:none"
         d="m 68.492,270.625 c 0,4 -6,4 -6,0 0,-4 6,-4 6,0" /><path
         id="path396"
         style="fill:#eca25c;fill-opacity:1;fill-rule:nonzero;stroke:none"
         d="m 50.387,270.246 c 0,4 -5.996,4 -5.996,0 0,-4 5.996,-4 5.996,0" /><path
         id="path398"
         style="fill:#fe4365;fill-opacity:1;fill-rule:nonzero;stroke:none"
         d="m 140.902,189.926 c 0,4 -6,4 -6,0 0,-4 6,-4 6,0" /><path
         id="path400"
         style="fill:#fe4365;fill-opacity:1;fill-rule:nonzero;stroke:none"
         d="m 131.852,192.211 c 0,4 -6,4 -6,0 0,-4 6,-4 6,0" /><path
         id="path402"
         style="fill:#fe4365;fill-opacity:1;fill-rule:nonzero;stroke:none"
         d="m 122.801,236.746 c 0,4 -6,4 -6,0 0,-4 6,-4 6,0" /><path
         id="path404"
         style="fill:#fe4365;fill-opacity:1;fill-rule:nonzero;stroke:none"
         d="m 113.75,198.301 c 0,4 -6,4 -6,0 0,-4 6,-4 6,0" /><path
         id="path406"
         style="fill:#fe4365;fill-opacity:1;fill-rule:nonzero;stroke:none"
         d="m 104.699,250.832 c 0,4 -6,4 -6,0 0,-4 6,-4 6,0" /><path
         id="path408"
         style="fill:#fe4365;fill-opacity:1;fill-rule:nonzero;stroke:none"
         d="m 95.645,235.227 c 0,3.996 -5.997,3.996 -5.997,0 0,-4 5.997,-4 5.997,0" /><path
         id="path410"
         style="fill:#fe4365;fill-opacity:1;fill-rule:nonzero;stroke:none"
         d="m 86.594,247.406 c 0,4 -6,4 -6,0 0,-4 6,-4 6,0" /><path
         id="path412"
         style="fill:#fe4365;fill-opacity:1;fill-rule:nonzero;stroke:none"
         d="m 77.543,241.316 c 0,4 -6,4 -6,0 0,-4 6,-4 6,0" /><path
         id="path414"
         style="fill:#fe4365;fill-opacity:1;fill-rule:nonzero;stroke:none"
         d="m 68.492,270.625 c 0,4 -6,4 -6,0 0,-4 6,-4 6,0" /><path
         id="path416"
         style="fill:#fe4365;fill-opacity:1;fill-rule:nonzero;stroke:none"
         d="m 59.441,263.773 c 0,4 -6,4 -6,0 0,-4 6,-4 6,0" /><path
         id="path418"
         style="fill:#fe4365;fill-opacity:1;fill-rule:nonzero;stroke:none"
         d="m 50.387,268.34 c 0,4 -5.996,4 -5.996,0 0,-3.996 5.996,-3.996 5.996,0" /><path
         id="path420"
         style="fill:#fe4365;fill-opacity:1;fill-rule:nonzero;stroke:none"
         d="m 41.336,266.82 c 0,4 -6,4 -6,0 0,-4 6,-4 6,0" /><g
         id="text430"
         style="font-variant:normal;font-weight:normal;font-size:9px;font-family:'JetBrains Mono';-inkscape-font-specification:JetBrainsMono-Regular;writing-mode:lr-tb;fill:#a1a1a1;fill-opacity:1;fill-rule:nonzero;stroke:none"
         transform="translate(14.832031,197.74023)"
         aria-label="200
400
600
JHU CSSE COVID-19 dataset -- `relative_deaths` / `day_index_1000`"><path
           id="path521"
           style=""
           d="m 4.617,-4.77 q 0,0.729 -0.405,1.413 -0.396,0.675 -1.269,1.431 l -1.089,0.945 q -0.045,0.036 -0.099,0.072 -0.054,0.036 -0.108,0.072 -0.072,0.045 -0.135,0.081 v 0.036 q 0.144,-0.009 0.279,-0.009 0.126,-0.009 0.252,-0.009 0.135,0 0.243,0 H 4.68 V 0 H 0.63 V -0.9 L 2.34,-2.367 Q 2.727,-2.7 2.997,-2.997 3.276,-3.294 3.447,-3.582 3.618,-3.87 3.699,-4.158 3.78,-4.446 3.78,-4.761 3.78,-5.265 3.474,-5.553 3.177,-5.85 2.664,-5.85 2.097,-5.85 1.755,-5.553 1.422,-5.256 1.422,-4.77 H 0.585 q 0.018,-0.405 0.171,-0.738 0.153,-0.333 0.423,-0.567 0.279,-0.234 0.648,-0.36 0.378,-0.135 0.837,-0.135 0.45,0 0.81,0.126 0.36,0.126 0.612,0.36 0.252,0.234 0.387,0.567 0.144,0.333 0.144,0.747 z" /><path
           id="path523"
           style=""
           d="m 6.5340002,-1.845 q 0,0.558 0.315,0.891 0.315,0.324 0.855,0.324 0.54,0 0.855,-0.324 0.315,-0.333 0.315,-0.891 v -2.79 q 0,-0.558 -0.315,-0.882 -0.315,-0.333 -0.855,-0.333 -0.54,0 -0.855,0.333 -0.315,0.324 -0.315,0.882 z m -0.81,-2.79 q 0,-0.441 0.135,-0.801 0.144,-0.36 0.396,-0.612 0.261,-0.252 0.621,-0.387 0.369,-0.135 0.828,-0.135 0.459,0 0.819,0.135 0.369,0.135 0.621,0.387 0.261,0.252 0.396,0.612 0.144,0.36 0.144,0.801 v 2.79 q 0,0.441 -0.144,0.801 -0.135,0.351 -0.396,0.603 -0.252,0.252 -0.621,0.396 -0.369,0.135 -0.819,0.135 -0.459,0 -0.828,-0.135 -0.36,-0.135 -0.621,-0.387 -0.252,-0.252 -0.396,-0.612 -0.135,-0.36 -0.135,-0.801 z m 1.53,1.08 q 0,-0.225 0.117,-0.36 0.126,-0.135 0.333,-0.135 0.207,0 0.324,0.135 0.126,0.135 0.126,0.36 v 0.72 q 0,0.225 -0.126,0.36 -0.117,0.135 -0.324,0.135 -0.207,0 -0.333,-0.135 -0.117,-0.135 -0.117,-0.36 z" /><path
           id="path525"
           style=""
           d="m 11.529,-1.845 q 0,0.558 0.315,0.891 0.315,0.324 0.855,0.324 0.54,0 0.855,-0.324 0.315,-0.333 0.315,-0.891 v -2.79 q 0,-0.558 -0.315,-0.882 -0.315,-0.333 -0.855,-0.333 -0.54,0 -0.855,0.333 -0.315,0.324 -0.315,0.882 z m -0.81,-2.79 q 0,-0.441 0.135,-0.801 0.144,-0.36 0.396,-0.612 0.261,-0.252 0.621,-0.387 0.369,-0.135 0.828,-0.135 0.459,0 0.819,0.135 0.369,0.135 0.621,0.387 0.261,0.252 0.396,0.612 0.144,0.36 0.144,0.801 v 2.79 q 0,0.441 -0.144,0.801 -0.135,0.351 -0.396,0.603 -0.252,0.252 -0.621,0.396 -0.369,0.135 -0.819,0.135 -0.459,0 -0.828,-0.135 -0.36,-0.135 -0.621,-0.387 -0.252,-0.252 -0.396,-0.612 -0.135,-0.36 -0.135,-0.801 z m 1.53,1.08 q 0,-0.225 0.117,-0.36 0.126,-0.135 0.333,-0.135 0.207,0 0.324,0.135 0.126,0.135 0.126,0.36 v 0.72 q 0,0.225 -0.126,0.36 -0.117,0.135 -0.324,0.135 -0.207,0 -0.333,-0.135 -0.117,-0.135 -0.117,-0.36 z" /><path
           id="path527"
           style=""
           d="m 3.321,-82.608906 h 0.882 l -2.628,4.005 v 0.36 H 3.69 v -1.575 H 4.5 v 3.69 H 3.69 v -1.395 H 0.765 v -1.17 z" /><path
           id="path529"
           style=""
           d="m 6.5340002,-77.973906 q 0,0.558 0.315,0.891 0.315,0.324 0.855,0.324 0.54,0 0.855,-0.324 0.315,-0.333 0.315,-0.891 v -2.79 q 0,-0.558 -0.315,-0.882 -0.315,-0.333 -0.855,-0.333 -0.54,0 -0.855,0.333 -0.315,0.324 -0.315,0.882 z m -0.81,-2.79 q 0,-0.441 0.135,-0.801 0.144,-0.36 0.396,-0.612 0.261,-0.252 0.621,-0.387 0.369,-0.135 0.828,-0.135 0.459,0 0.819,0.135 0.369,0.135 0.621,0.387 0.261,0.252 0.396,0.612 0.144,0.36 0.144,0.801 v 2.79 q 0,0.441 -0.144,0.801 -0.135,0.351 -0.396,0.603 -0.252,0.252 -0.621,0.396 -0.369,0.135 -0.819,0.135 -0.459,0 -0.828,-0.135 -0.36,-0.135 -0.621,-0.387 -0.252,-0.252 -0.396,-0.612 -0.135,-0.36 -0.135,-0.801 z m 1.53,1.08 q 0,-0.225 0.117,-0.36 0.126,-0.135 0.333,-0.135 0.207,0 0.324,0.135 0.126,0.135 0.126,0.36 v 0.72 q 0,0.225 -0.126,0.36 -0.117,0.135 -0.324,0.135 -0.207,0 -0.333,-0.135 -0.117,-0.135 -0.117,-0.36 z" /><path
           id="path531"
           style=""
           d="m 11.529,-77.973906 q 0,0.558 0.315,0.891 0.315,0.324 0.855,0.324 0.54,0 0.855,-0.324 0.315,-0.333 0.315,-0.891 v -2.79 q 0,-0.558 -0.315,-0.882 -0.315,-0.333 -0.855,-0.333 -0.54,0 -0.855,0.333 -0.315,0.324 -0.315,0.882 z m -0.81,-2.79 q 0,-0.441 0.135,-0.801 0.144,-0.36 0.396,-0.612 0.261,-0.252 0.621,-0.387 0.369,-0.135 0.828,-0.135 0.459,0 0.819,0.135 0.369,0.135 0.621,0.387 0.261,0.252 0.396,0.612 0.144,0.36 0.144,0.801 v 2.79 q 0,0.441 -0.144,0.801 -0.135,0.351 -0.396,0.603 -0.252,0.252 -0.621,0.396 -0.369,0.135 -0.819,0.135 -0.459,0 -0.828,-0.135 -0.36,-0.135 -0.621,-0.387 -0.252,-0.252 -0.396,-0.612 -0.135,-0.36 -0.135,-0.801 z m 1.53,1.08 q 0,-0.225 0.117,-0.36 0.126,-0.135 0.333,-0.135 0.207,0 0.324,0.135 0.126,0.135 0.126,0.36 v 0.72 q 0,0.225 -0.126,0.36 -0.117,0.135 -0.324,0.135 -0.207,0 -0.333,-0.135 -0.117,-0.135 -0.117,-0.36 z" /><path
           id="path533"
           style=""
           d="m 2.709,-152.1717 q -0.459,0 -0.846,-0.144 -0.378,-0.144 -0.657,-0.405 -0.27,-0.27 -0.423,-0.639 -0.153,-0.378 -0.153,-0.837 0,-0.54 0.243,-1.152 0.252,-0.612 0.702,-1.35 l 1.224,-2.043 H 3.78 l -1.368,2.16 q -0.18,0.288 -0.306,0.468 -0.117,0.18 -0.189,0.279 -0.081,0.108 -0.126,0.153 h 0.135 q 0.072,-0.144 0.207,-0.252 0.126,-0.099 0.324,-0.171 0.198,-0.081 0.504,-0.081 0.396,0 0.729,0.144 0.333,0.144 0.567,0.405 0.243,0.261 0.378,0.63 0.135,0.36 0.135,0.81 0,0.45 -0.153,0.828 -0.153,0.369 -0.432,0.639 -0.27,0.261 -0.648,0.414 -0.378,0.144 -0.828,0.144 z m -1.269,-2.025 q 0,0.594 0.351,0.954 0.351,0.351 0.918,0.351 0.27,0 0.495,-0.09 0.234,-0.099 0.396,-0.27 0.171,-0.171 0.261,-0.405 0.099,-0.243 0.099,-0.54 0,-0.297 -0.099,-0.531 -0.09,-0.243 -0.261,-0.414 -0.162,-0.171 -0.396,-0.261 -0.225,-0.099 -0.495,-0.099 -0.558,0 -0.918,0.36 -0.351,0.36 -0.351,0.945 z" /><path
           id="path535"
           style=""
           d="m 6.5340002,-154.1067 q 0,0.558 0.315,0.891 0.315,0.324 0.855,0.324 0.54,0 0.855,-0.324 0.315,-0.333 0.315,-0.891 v -2.79 q 0,-0.558 -0.315,-0.882 -0.315,-0.333 -0.855,-0.333 -0.54,0 -0.855,0.333 -0.315,0.324 -0.315,0.882 z m -0.81,-2.79 q 0,-0.441 0.135,-0.801 0.144,-0.36 0.396,-0.612 0.261,-0.252 0.621,-0.387 0.369,-0.135 0.828,-0.135 0.459,0 0.819,0.135 0.369,0.135 0.621,0.387 0.261,0.252 0.396,0.612 0.144,0.36 0.144,0.801 v 2.79 q 0,0.441 -0.144,0.801 -0.135,0.351 -0.396,0.603 -0.252,0.252 -0.621,0.396 -0.369,0.135 -0.819,0.135 -0.459,0 -0.828,-0.135 -0.36,-0.135 -0.621,-0.387 -0.252,-0.252 -0.396,-0.612 -0.135,-0.36 -0.135,-0.801 z m 1.53,1.08 q 0,-0.225 0.117,-0.36 0.126,-0.135 0.333,-0.135 0.207,0 0.324,0.135 0.126,0.135 0.126,0.36 v 0.72 q 0,0.225 -0.126,0.36 -0.117,0.135 -0.324,0.135 -0.207,0 -0.333,-0.135 -0.117,-0.135 -0.117,-0.36 z" /><path
           id="path537"
           style=""
           d="m 11.529,-154.1067 q 0,0.558 0.315,0.891 0.315,0.324 0.855,0.324 0.54,0 0.855,-0.324 0.315,-0.333 0.315,-0.891 v -2.79 q 0,-0.558 -0.315,-0.882 -0.315,-0.333 -0.855,-0.333 -0.54,0 -0.855,0.333 -0.315,0.324 -0.315,0.882 z m -0.81,-2.79 q 0,-0.441 0.135,-0.801 0.144,-0.36 0.396,-0.612 0.261,-0.252 0.621,-0.387 0.369,-0.135 0.828,-0.135 0.459,0 0.819,0.135 0.369,0.135 0.621,0.387 0.261,0.252 0.396,0.612 0.144,0.36 0.144,0.801 v 2.79 q 0,0.441 -0.144,0.801 -0.135,0.351 -0.396,0.603 -0.252,0.252 -0.621,0.396 -0.369,0.135 -0.819,0.135 -0.459,0 -0.828,-0.135 -0.36,-0.135 -0.621,-0.387 -0.252,-0.252 -0.396,-0.612 -0.135,-0.36 -0.135,-0.801 z m 1.53,1.08 q 0,-0.225 0.117,-0.36 0.126,-0.135 0.333,-0.135 0.207,0 0.324,0.135 0.126,0.135 0.126,0.36 v 0.72 q 0,0.225 -0.126,0.36 -0.117,0.135 -0.324,0.135 -0.207,0 -0.333,-0.135 -0.117,-0.135 -0.117,-0.36 z" /><path
           id="path539"
           style=""
           d="m 112.35188,-177.50498 q 0.576,0 0.918,-0.324 0.342,-0.333 0.342,-0.891 v -3.915 h -2.52 v -0.72 h 3.33 v 4.635 q 0,0.441 -0.144,0.801 -0.144,0.36 -0.414,0.612 -0.27,0.252 -0.657,0.387 -0.378,0.135 -0.855,0.135 -0.396,0 -0.738,-0.117 -0.342,-0.117 -0.612,-0.333 -0.261,-0.225 -0.441,-0.531 -0.171,-0.306 -0.234,-0.684 h 0.81 q 0.081,0.432 0.414,0.693 0.333,0.252 0.801,0.252 z" /><path
           id="path541"
           style=""
           d="m 116.54588,-183.35498 v 2.736 h 2.16 v -2.736 h 0.81 v 6.48 h -0.81 v -3.006 h -2.16 v 3.006 h -0.81 v -6.48 z" /><path
           id="path543"
           style=""
           d="m 122.62088,-176.78498 q -0.927,0 -1.431,-0.504 -0.504,-0.504 -0.504,-1.386 v -4.68 h 0.81 v 4.68 q 0,0.54 0.288,0.855 0.288,0.315 0.837,0.315 0.54,0 0.828,-0.315 0.297,-0.315 0.297,-0.855 v -4.68 h 0.81 v 4.68 q 0,0.891 -0.504,1.395 -0.504,0.495 -1.431,0.495 z" /><path
           id="path545"
           style=""
           d="m 132.67388,-183.44498 q 0.846,0 1.359,0.468 0.522,0.459 0.621,1.287 h -0.81 q -0.054,-0.486 -0.369,-0.756 -0.306,-0.279 -0.801,-0.279 -0.54,0 -0.855,0.324 -0.315,0.324 -0.315,0.891 v 2.79 q 0,0.567 0.306,0.891 0.315,0.324 0.864,0.324 0.495,0 0.801,-0.27 0.315,-0.279 0.369,-0.765 h 0.81 q -0.099,0.828 -0.621,1.296 -0.513,0.459 -1.359,0.459 -0.459,0 -0.828,-0.135 -0.36,-0.135 -0.621,-0.387 -0.252,-0.252 -0.396,-0.612 -0.135,-0.36 -0.135,-0.801 v -2.79 q 0,-0.441 0.135,-0.801 0.144,-0.36 0.396,-0.612 0.261,-0.252 0.621,-0.387 0.369,-0.135 0.828,-0.135 z" /><path
           id="path547"
           style=""
           d="m 137.62387,-176.78498 q -0.441,0 -0.819,-0.117 -0.378,-0.126 -0.657,-0.351 -0.27,-0.234 -0.432,-0.558 -0.153,-0.324 -0.162,-0.729 h 0.855 q 0,0.234 0.09,0.423 0.099,0.189 0.27,0.324 0.171,0.135 0.396,0.216 0.225,0.072 0.477,0.072 0.567,0 0.9,-0.261 0.333,-0.27 0.333,-0.729 0,-0.387 -0.243,-0.684 -0.243,-0.306 -0.702,-0.477 l -0.684,-0.252 q -1.503,-0.549 -1.503,-1.818 0,-0.81 0.513,-1.26 0.513,-0.459 1.413,-0.459 0.423,0 0.774,0.117 0.351,0.117 0.603,0.342 0.261,0.225 0.405,0.549 0.153,0.315 0.162,0.711 h -0.855 q 0,-0.225 -0.09,-0.405 -0.09,-0.189 -0.243,-0.315 -0.144,-0.135 -0.342,-0.207 -0.198,-0.072 -0.423,-0.072 -0.513,0 -0.81,0.243 -0.288,0.243 -0.288,0.657 0,0.405 0.216,0.675 0.225,0.261 0.72,0.441 l 0.72,0.261 q 0.72,0.261 1.098,0.756 0.378,0.495 0.378,1.17 0,0.81 -0.558,1.278 -0.549,0.459 -1.512,0.459 z" /><path
           id="path549"
           style=""
           d="m 142.61888,-176.78498 q -0.441,0 -0.819,-0.117 -0.378,-0.126 -0.657,-0.351 -0.27,-0.234 -0.432,-0.558 -0.153,-0.324 -0.162,-0.729 h 0.855 q 0,0.234 0.09,0.423 0.099,0.189 0.27,0.324 0.171,0.135 0.396,0.216 0.225,0.072 0.477,0.072 0.567,0 0.9,-0.261 0.333,-0.27 0.333,-0.729 0,-0.387 -0.243,-0.684 -0.243,-0.306 -0.702,-0.477 l -0.684,-0.252 q -1.503,-0.549 -1.503,-1.818 0,-0.81 0.513,-1.26 0.513,-0.459 1.413,-0.459 0.423,0 0.774,0.117 0.351,0.117 0.603,0.342 0.261,0.225 0.405,0.549 0.153,0.315 0.162,0.711 h -0.855 q 0,-0.225 -0.09,-0.405 -0.09,-0.189 -0.243,-0.315 -0.144,-0.135 -0.342,-0.207 -0.198,-0.072 -0.423,-0.072 -0.513,0 -0.81,0.243 -0.288,0.243 -0.288,0.657 0,0.405 0.216,0.675 0.225,0.261 0.72,0.441 l 0.72,0.261 q 0.72,0.261 1.098,0.756 0.378,0.495 0.378,1.17 0,0.81 -0.558,1.278 -0.549,0.459 -1.512,0.459 z" /><path
           id="path551"
           style=""
           d="m 145.77788,-176.87498 v -6.48 h 3.825 v 0.738 h -3.015 v 2.034 h 2.7 v 0.738 h -2.7 v 2.232 h 3.015 v 0.738 z" /><path
           id="path553"
           style=""
           d="m 157.67587,-183.44498 q 0.846,0 1.359,0.468 0.522,0.459 0.621,1.287 h -0.81 q -0.054,-0.486 -0.369,-0.756 -0.306,-0.279 -0.801,-0.279 -0.54,0 -0.855,0.324 -0.315,0.324 -0.315,0.891 v 2.79 q 0,0.567 0.306,0.891 0.315,0.324 0.864,0.324 0.495,0 0.801,-0.27 0.315,-0.279 0.369,-0.765 h 0.81 q -0.099,0.828 -0.621,1.296 -0.513,0.459 -1.359,0.459 -0.459,0 -0.828,-0.135 -0.36,-0.135 -0.621,-0.387 -0.252,-0.252 -0.396,-0.612 -0.135,-0.36 -0.135,-0.801 v -2.79 q 0,-0.441 0.135,-0.801 0.144,-0.36 0.396,-0.612 0.261,-0.252 0.621,-0.387 0.369,-0.135 0.828,-0.135 z" /><path
           id="path555"
           style=""
           d="m 161.45587,-178.71998 q 0,0.558 0.315,0.891 0.315,0.324 0.855,0.324 0.54,0 0.855,-0.324 0.315,-0.333 0.315,-0.891 v -2.79 q 0,-0.558 -0.315,-0.882 -0.315,-0.333 -0.855,-0.333 -0.54,0 -0.855,0.333 -0.315,0.324 -0.315,0.882 z m -0.81,-2.79 q 0,-0.441 0.135,-0.801 0.144,-0.36 0.396,-0.612 0.261,-0.252 0.621,-0.387 0.369,-0.135 0.828,-0.135 0.459,0 0.819,0.135 0.369,0.135 0.621,0.387 0.261,0.252 0.396,0.612 0.144,0.36 0.144,0.801 v 2.79 q 0,0.441 -0.144,0.801 -0.135,0.351 -0.396,0.603 -0.252,0.252 -0.621,0.396 -0.369,0.135 -0.819,0.135 -0.459,0 -0.828,-0.135 -0.36,-0.135 -0.621,-0.387 -0.252,-0.252 -0.396,-0.612 -0.135,-0.36 -0.135,-0.801 z" /><path
           id="path557"
           style=""
           d="m 165.31688,-183.35498 h 0.864 l 1.242,5.067 q 0.045,0.189 0.081,0.351 0.036,0.153 0.054,0.27 0.018,0.144 0.036,0.252 h 0.036 q 0.018,-0.108 0.045,-0.252 0.018,-0.117 0.054,-0.27 0.036,-0.162 0.081,-0.351 l 1.269,-5.067 h 0.846 l -1.764,6.48 h -1.134 z" /><path
           id="path559"
           style=""
           d="m 172.21088,-177.58598 v -5.058 h -1.431 v -0.711 h 3.69 v 0.711 h -1.431 v 5.058 h 1.431 v 0.711 h -3.69 v -0.711 z" /><path
           id="path561"
           style=""
           d="m 177.52088,-177.59498 q 0.567,0 0.909,-0.342 0.351,-0.351 0.351,-0.918 v -2.529 q 0,-0.567 -0.351,-0.909 -0.342,-0.342 -0.909,-0.342 h -0.999 v 5.04 z m -1.809,0.72 v -6.48 h 1.809 q 0.468,0 0.846,0.144 0.387,0.144 0.657,0.405 0.279,0.252 0.423,0.621 0.153,0.36 0.153,0.801 v 2.529 q 0,0.441 -0.153,0.81 -0.144,0.369 -0.423,0.63 -0.27,0.252 -0.657,0.396 -0.378,0.144 -0.846,0.144 z" /><path
           id="path563"
           style=""
           d="m 180.82387,-180.20498 h 3.6 v 0.72 h -3.6 z" /><path
           id="path565"
           style=""
           d="m 185.72888,-177.59498 h 1.737 v -4.545 q 0,-0.072 0,-0.162 0.009,-0.099 0.009,-0.18 0,-0.081 0,-0.135 0.009,-0.063 0.009,-0.063 h -0.018 q -0.063,0.054 -0.126,0.099 -0.054,0.045 -0.117,0.09 -0.054,0.045 -0.108,0.081 l -1.269,0.864 v -0.819 l 1.395,-0.99 h 1.035 v 5.76 h 1.458 v 0.72 h -4.005 z" /><path
           id="path567"
           style=""
           d="m 192.61388,-183.44498 q 0.459,0 0.837,0.144 0.387,0.144 0.657,0.414 0.279,0.261 0.432,0.639 0.153,0.369 0.153,0.828 0,0.54 -0.252,1.152 -0.243,0.612 -0.693,1.35 l -1.224,2.043 h -0.981 l 1.368,-2.16 q 0.189,-0.297 0.306,-0.468 0.117,-0.18 0.189,-0.279 0.081,-0.108 0.126,-0.153 h -0.135 q -0.072,0.144 -0.207,0.252 -0.126,0.099 -0.324,0.18 -0.189,0.072 -0.504,0.072 -0.396,0 -0.729,-0.144 -0.333,-0.144 -0.576,-0.405 -0.234,-0.261 -0.369,-0.621 -0.135,-0.369 -0.135,-0.819 0,-0.45 0.153,-0.819 0.153,-0.378 0.423,-0.639 0.279,-0.27 0.657,-0.414 0.378,-0.153 0.828,-0.153 z m -1.251,2.025 q 0,0.297 0.09,0.54 0.099,0.234 0.261,0.405 0.171,0.171 0.396,0.27 0.234,0.09 0.504,0.09 0.558,0 0.909,-0.36 0.36,-0.36 0.36,-0.945 0,-0.594 -0.351,-0.945 -0.351,-0.36 -0.918,-0.36 -0.27,0 -0.504,0.099 -0.225,0.09 -0.396,0.261 -0.162,0.171 -0.261,0.414 -0.09,0.234 -0.09,0.531 z" /><path
           id="path569"
           style=""
           d="m 200.64187,-179.97998 q 0,-0.45 0.117,-0.81 0.126,-0.36 0.342,-0.603 0.216,-0.252 0.522,-0.387 0.306,-0.135 0.684,-0.135 0.549,0 0.909,0.252 0.36,0.243 0.477,0.693 h 0.072 q -0.009,-0.153 -0.018,-0.306 -0.018,-0.135 -0.027,-0.279 0,-0.153 0,-0.27 v -1.62 h 0.81 v 6.57 h -0.765 v -0.855 h -0.072 q -0.117,0.45 -0.477,0.702 -0.36,0.243 -0.909,0.243 -0.378,0 -0.684,-0.135 -0.306,-0.135 -0.522,-0.378 -0.216,-0.252 -0.342,-0.612 -0.117,-0.36 -0.117,-0.81 z m 1.971,2.493 q 0.504,0 0.801,-0.333 0.306,-0.333 0.306,-0.9 v -1.26 q 0,-0.567 -0.306,-0.9 -0.297,-0.333 -0.801,-0.333 -0.549,0 -0.85499,0.324 -0.30601,0.324 -0.30601,0.909 v 1.26 q 0,0.567 0.30601,0.9 0.31499,0.333 0.85499,0.333 z" /><path
           id="path571"
           style=""
           d="m 205.49287,-178.31498 q 0,-0.351 0.117,-0.63 0.126,-0.288 0.351,-0.486 0.234,-0.198 0.558,-0.306 0.324,-0.108 0.729,-0.108 h 1.476 v -0.405 q 0,-0.459 -0.306,-0.711 -0.297,-0.261 -0.864,-0.261 -0.414,0 -0.711,0.153 -0.288,0.153 -0.387,0.423 h -0.81 q 0.126,-0.585 0.639,-0.927 0.522,-0.342 1.287,-0.342 0.918,0 1.44,0.432 0.522,0.423 0.522,1.188 v 3.42 h -0.738 v -0.945 h -0.072 q -0.117,0.477 -0.549,0.756 -0.432,0.279 -1.053,0.279 -0.747,0 -1.188,-0.414 -0.441,-0.414 -0.441,-1.116 z m 1.809,0.864 q 0.306,0 0.567,-0.081 0.261,-0.081 0.45,-0.225 0.189,-0.153 0.297,-0.351 0.108,-0.198 0.108,-0.432 v -0.675 h -1.458 q -0.45,0 -0.711,0.234 -0.252,0.234 -0.252,0.648 0,0.414 0.261,0.648 0.261,0.234 0.738,0.234 z" /><path
           id="path573"
           style=""
           d="m 210.46088,-181.82498 h 1.44 v -1.53 h 0.81 v 1.53 h 1.935 v 0.738 h -1.935 v 2.934 q 0,0.252 0.153,0.396 0.162,0.144 0.432,0.144 h 1.26 v 0.738 h -1.26 q -0.639,0 -1.017,-0.351 -0.378,-0.351 -0.378,-0.927 v -2.934 h -1.44 z" /><path
           id="path575"
           style=""
           d="m 215.49188,-178.31498 q 0,-0.351 0.117,-0.63 0.126,-0.288 0.351,-0.486 0.234,-0.198 0.558,-0.306 0.324,-0.108 0.729,-0.108 h 1.476 v -0.405 q 0,-0.459 -0.306,-0.711 -0.297,-0.261 -0.864,-0.261 -0.414,0 -0.711,0.153 -0.288,0.153 -0.387,0.423 h -0.81 q 0.126,-0.585 0.639,-0.927 0.522,-0.342 1.287,-0.342 0.918,0 1.44,0.432 0.522,0.423 0.522,1.188 v 3.42 h -0.738 v -0.945 h -0.072 q -0.117,0.477 -0.549,0.756 -0.432,0.279 -1.053,0.279 -0.747,0 -1.188,-0.414 -0.441,-0.414 -0.441,-1.116 z m 1.809,0.864 q 0.306,0 0.567,-0.081 0.261,-0.081 0.45,-0.225 0.189,-0.153 0.297,-0.351 0.108,-0.198 0.108,-0.432 v -0.675 h -1.458 q -0.45,0 -0.711,0.234 -0.252,0.234 -0.252,0.648 0,0.414 0.261,0.648 0.261,0.234 0.738,0.234 z" /><path
           id="path577"
           style=""
           d="m 222.48488,-176.78498 q -0.783,0 -1.296,-0.351 -0.504,-0.36 -0.576,-0.954 h 0.855 q 0.054,0.261 0.333,0.423 0.279,0.162 0.684,0.162 h 0.252 q 0.486,0 0.756,-0.198 0.27,-0.207 0.27,-0.549 0,-0.585 -0.828,-0.711 l -0.747,-0.108 q -0.729,-0.108 -1.089,-0.459 -0.36,-0.351 -0.36,-0.981 0,-0.666 0.468,-1.035 0.477,-0.369 1.323,-0.369 h 0.252 q 0.36,0 0.666,0.09 0.306,0.09 0.54,0.261 0.234,0.162 0.378,0.396 0.153,0.225 0.198,0.504 h -0.855 q -0.054,-0.234 -0.306,-0.378 -0.252,-0.153 -0.621,-0.153 h -0.252 q -0.459,0 -0.72,0.18 -0.252,0.18 -0.252,0.54 0,0.288 0.171,0.441 0.18,0.144 0.576,0.198 l 0.747,0.108 q 0.801,0.117 1.161,0.468 0.369,0.351 0.369,0.999 0,0.693 -0.486,1.089 -0.477,0.387 -1.359,0.387 z" /><path
           id="path579"
           style=""
           d="m 227.62387,-176.78498 q -0.927,0 -1.458,-0.504 -0.522,-0.504 -0.522,-1.386 v -1.35 q 0,-0.882 0.522,-1.386 0.531,-0.504 1.458,-0.504 0.927,0 1.449,0.504 0.531,0.504 0.531,1.386 v 0.909 h -3.15 v 0.396 q 0,0.567 0.306,0.891 0.315,0.324 0.864,0.324 0.405,0 0.702,-0.126 0.297,-0.126 0.441,-0.369 h 0.81 q -0.153,0.567 -0.684,0.891 -0.522,0.324 -1.269,0.324 z m 1.17,-3.006 v -0.234 q 0,-0.558 -0.306,-0.864 -0.306,-0.306 -0.864,-0.306 -0.558,0 -0.864,0.306 -0.306,0.306 -0.306,0.864 v 0.234 z" /><path
           id="path581"
           style=""
           d="m 230.45888,-181.82498 h 1.44 v -1.53 h 0.81 v 1.53 h 1.935 v 0.738 h -1.935 v 2.934 q 0,0.252 0.153,0.396 0.162,0.144 0.432,0.144 h 1.26 v 0.738 h -1.26 q -0.639,0 -1.017,-0.351 -0.378,-0.351 -0.378,-0.927 v -2.934 h -1.44 z" /><path
           id="path583"
           style=""
           d="m 240.81788,-180.20498 h 3.6 v 0.72 h -3.6 z" /><path
           id="path585"
           style=""
           d="m 245.82187,-180.20498 h 3.6 v 0.72 h -3.6 z" /><path
           id="path587"
           style=""
           d="m 256.45088,-184.03898 h 0.99 l 0.99,1.314 h -0.81 z" /><path
           id="path589"
           style=""
           d="m 260.93287,-181.82498 h 0.765 v 0.855 h 0.072 q 0.117,-0.441 0.486,-0.693 0.369,-0.252 0.909,-0.252 0.783,0 1.224,0.495 0.45,0.486 0.45,1.341 v 0.279 h -0.81 v -0.18 q 0,-0.585 -0.297,-0.9 -0.288,-0.324 -0.828,-0.324 -0.531,0 -0.846,0.333 -0.315,0.324 -0.315,0.891 v 3.105 h -0.81 z" /><path
           id="path591"
           style=""
           d="m 267.61989,-176.78498 q -0.927,0 -1.458,-0.504 -0.522,-0.504 -0.522,-1.386 v -1.35 q 0,-0.882 0.522,-1.386 0.531,-0.504 1.458,-0.504 0.927,0 1.449,0.504 0.531,0.504 0.531,1.386 v 0.909 h -3.15 v 0.396 q 0,0.567 0.306,0.891 0.315,0.324 0.864,0.324 0.405,0 0.702,-0.126 0.297,-0.126 0.441,-0.369 h 0.81 q -0.153,0.567 -0.684,0.891 -0.522,0.324 -1.269,0.324 z m 1.17,-3.006 v -0.234 q 0,-0.558 -0.306,-0.864 -0.306,-0.306 -0.864,-0.306 -0.558,0 -0.864,0.306 -0.306,0.306 -0.306,0.864 v 0.234 z" /><path
           id="path593"
           style=""
           d="m 272.73189,-183.44498 v 5.13 q 0,0.333 0.18,0.522 0.18,0.18 0.495,0.18 h 1.467 v 0.738 h -1.467 q -0.693,0 -1.089,-0.378 -0.396,-0.387 -0.396,-1.062 v -4.392 h -1.638 v -0.738 z" /><path
           id="path595"
           style=""
           d="m 275.48588,-178.31498 q 0,-0.351 0.117,-0.63 0.126,-0.288 0.351,-0.486 0.234,-0.198 0.558,-0.306 0.324,-0.108 0.729,-0.108 h 1.476 v -0.405 q 0,-0.459 -0.306,-0.711 -0.297,-0.261 -0.864,-0.261 -0.414,0 -0.711,0.153 -0.288,0.153 -0.387,0.423 h -0.81 q 0.126,-0.585 0.639,-0.927 0.522,-0.342 1.287,-0.342 0.918,0 1.44,0.432 0.522,0.423 0.522,1.188 v 3.42 h -0.738 v -0.945 h -0.072 q -0.117,0.477 -0.549,0.756 -0.432,0.279 -1.053,0.279 -0.747,0 -1.188,-0.414 -0.441,-0.414 -0.441,-1.116 z m 1.809,0.864 q 0.306,0 0.567,-0.081 0.261,-0.081 0.45,-0.225 0.189,-0.153 0.297,-0.351 0.108,-0.198 0.108,-0.432 v -0.675 h -1.458 q -0.45,0 -0.711,0.234 -0.252,0.234 -0.252,0.648 0,0.414 0.261,0.648 0.261,0.234 0.738,0.234 z" /><path
           id="path597"
           style=""
           d="m 280.46288,-181.82498 h 1.44 v -1.53 h 0.81 v 1.53 h 1.935 v 0.738 h -1.935 v 2.934 q 0,0.252 0.153,0.396 0.162,0.144 0.432,0.144 h 1.26 v 0.738 h -1.26 q -0.639,0 -1.017,-0.351 -0.378,-0.351 -0.378,-0.927 v -2.934 h -1.44 z" /><path
           id="path599"
           style=""
           d="m 285.77288,-176.87498 v -0.738 h 1.8 v -3.474 h -1.575 v -0.738 h 2.385 v 4.212 h 1.485 v 0.738 z m 1.98,-6.885 h 0.18 q 0.261,0 0.423,0.153 0.162,0.153 0.162,0.396 0,0.243 -0.162,0.387 -0.162,0.144 -0.423,0.144 h -0.18 q -0.261,0 -0.423,-0.135 -0.162,-0.144 -0.162,-0.396 0,-0.243 0.162,-0.396 0.162,-0.153 0.423,-0.153 z" /><path
           id="path601"
           style=""
           d="m 290.37187,-181.82498 h 0.855 l 1.20601,3.501 q 0.072,0.207 0.108,0.369 0.036,0.153 0.054,0.261 0.018,0.135 0.018,0.234 h 0.081 q -0.009,-0.099 0.009,-0.234 0.018,-0.108 0.045,-0.261 0.027,-0.162 0.099,-0.369 l 1.143,-3.501 h 0.882 l -1.77299,4.95 h -0.918 z" /><path
           id="path603"
           style=""
           d="m 297.62587,-176.78498 q -0.927,0 -1.458,-0.504 -0.522,-0.504 -0.522,-1.386 v -1.35 q 0,-0.882 0.522,-1.386 0.531,-0.504 1.458,-0.504 0.927,0 1.449,0.504 0.531,0.504 0.531,1.386 v 0.909 h -3.15 v 0.396 q 0,0.567 0.306,0.891 0.315,0.324 0.864,0.324 0.405,0 0.702,-0.126 0.297,-0.126 0.441,-0.369 h 0.81 q -0.153,0.567 -0.684,0.891 -0.522,0.324 -1.269,0.324 z m 1.17,-3.006 v -0.234 q 0,-0.558 -0.306,-0.864 -0.306,-0.306 -0.864,-0.306 -0.558,0 -0.864,0.306 -0.306,0.306 -0.306,0.864 v 0.234 z" /><path
           id="path605"
           style=""
           d="m 300.46087,-176.64998 h 4.32 v 0.675 h -4.32 z" /><path
           id="path607"
           style=""
           d="m 305.64487,-179.97998 q 0,-0.45 0.117,-0.81 0.126,-0.36 0.342,-0.603 0.216,-0.252 0.522,-0.387 0.306,-0.135 0.684,-0.135 0.549,0 0.909,0.252 0.36,0.243 0.477,0.693 h 0.072 q -0.009,-0.153 -0.018,-0.306 -0.018,-0.135 -0.027,-0.279 0,-0.153 0,-0.27 v -1.62 h 0.81 v 6.57 h -0.765 v -0.855 h -0.072 q -0.117,0.45 -0.477,0.702 -0.36,0.243 -0.909,0.243 -0.378,0 -0.684,-0.135 -0.306,-0.135 -0.522,-0.378 -0.216,-0.252 -0.342,-0.612 -0.117,-0.36 -0.117,-0.81 z m 1.971,2.493 q 0.504,0 0.801,-0.333 0.306,-0.333 0.306,-0.9 v -1.26 q 0,-0.567 -0.306,-0.9 -0.297,-0.333 -0.801,-0.333 -0.549,0 -0.855,0.324 -0.306,0.324 -0.306,0.909 v 1.26 q 0,0.567 0.306,0.9 0.315,0.333 0.855,0.333 z" /><path
           id="path609"
           style=""
           d="m 312.61989,-176.78498 q -0.927,0 -1.458,-0.504 -0.522,-0.504 -0.522,-1.386 v -1.35 q 0,-0.882 0.522,-1.386 0.531,-0.504 1.458,-0.504 0.927,0 1.449,0.504 0.531,0.504 0.531,1.386 v 0.909 h -3.15 v 0.396 q 0,0.567 0.306,0.891 0.315,0.324 0.864,0.324 0.405,0 0.702,-0.126 0.297,-0.126 0.441,-0.369 h 0.81 q -0.153,0.567 -0.684,0.891 -0.522,0.324 -1.269,0.324 z m 1.17,-3.006 v -0.234 q 0,-0.558 -0.306,-0.864 -0.306,-0.306 -0.864,-0.306 -0.558,0 -0.864,0.306 -0.306,0.306 -0.306,0.864 v 0.234 z" /><path
           id="path611"
           style=""
           d="m 315.49089,-178.31498 q 0,-0.351 0.117,-0.63 0.126,-0.288 0.351,-0.486 0.234,-0.198 0.558,-0.306 0.324,-0.108 0.729,-0.108 h 1.476 v -0.405 q 0,-0.459 -0.306,-0.711 -0.297,-0.261 -0.864,-0.261 -0.414,0 -0.711,0.153 -0.288,0.153 -0.387,0.423 h -0.81 q 0.126,-0.585 0.639,-0.927 0.522,-0.342 1.287,-0.342 0.918,0 1.44,0.432 0.522,0.423 0.522,1.188 v 3.42 h -0.738 v -0.945 h -0.072 q -0.117,0.477 -0.549,0.756 -0.432,0.279 -1.053,0.279 -0.747,0 -1.188,-0.414 -0.441,-0.414 -0.441,-1.116 z m 1.809,0.864 q 0.306,0 0.567,-0.081 0.261,-0.081 0.45,-0.225 0.189,-0.153 0.297,-0.351 0.108,-0.198 0.108,-0.432 v -0.675 h -1.458 q -0.45,0 -0.711,0.234 -0.252,0.234 -0.252,0.648 0,0.414 0.261,0.648 0.261,0.234 0.738,0.234 z" /><path
           id="path613"
           style=""
           d="m 320.45888,-181.82498 h 1.44 v -1.53 h 0.81 v 1.53 h 1.935 v 0.738 h -1.935 v 2.934 q 0,0.252 0.153,0.396 0.162,0.144 0.432,0.144 h 1.26 v 0.738 h -1.26 q -0.639,0 -1.017,-0.351 -0.378,-0.351 -0.378,-0.927 v -2.934 h -1.44 z" /><path
           id="path615"
           style=""
           d="m 325.71488,-183.44498 h 0.81 v 1.62 q 0,0.126 -0.009,0.279 0,0.144 -0.009,0.27 -0.018,0.153 -0.027,0.306 h 0.072 q 0.117,-0.45 0.468,-0.693 0.36,-0.252 0.891,-0.252 0.369,0 0.666,0.126 0.306,0.126 0.513,0.36 0.216,0.225 0.333,0.549 0.117,0.315 0.117,0.711 v 3.294 h -0.81 v -3.159 q 0,-0.567 -0.288,-0.882 -0.288,-0.315 -0.801,-0.315 -0.513,0 -0.819,0.342 -0.297,0.333 -0.297,0.909 v 3.105 h -0.81 z" /><path
           id="path617"
           style=""
           d="m 332.48288,-176.78498 q -0.783,0 -1.296,-0.351 -0.504,-0.36 -0.576,-0.954 h 0.855 q 0.054,0.261 0.333,0.423 0.279,0.162 0.684,0.162 h 0.252 q 0.486,0 0.756,-0.198 0.27,-0.207 0.27,-0.549 0,-0.585 -0.828,-0.711 l -0.747,-0.108 q -0.729,-0.108 -1.089,-0.459 -0.36,-0.351 -0.36,-0.981 0,-0.666 0.468,-1.035 0.477,-0.369 1.323,-0.369 h 0.252 q 0.36,0 0.666,0.09 0.306,0.09 0.54,0.261 0.234,0.162 0.378,0.396 0.153,0.225 0.198,0.504 h -0.855 q -0.054,-0.234 -0.306,-0.378 -0.252,-0.153 -0.621,-0.153 h -0.252 q -0.459,0 -0.72,0.18 -0.252,0.18 -0.252,0.54 0,0.288 0.171,0.441 0.18,0.144 0.576,0.198 l 0.747,0.108 q 0.801,0.117 1.161,0.468 0.369,0.351 0.369,0.999 0,0.693 -0.486,1.089 -0.477,0.387 -1.359,0.387 z" /><path
           id="path619"
           style=""
           d="m 336.45187,-184.03898 h 0.99 l 0.99,1.314 h -0.81 z" /><path
           id="path621"
           style=""
           d="m 348.79087,-184.34498 h 0.855 l -3.195,8.46 h -0.855 z" /><path
           id="path623"
           style=""
           d="m 356.44989,-184.03898 h 0.99 l 0.99,1.314 h -0.81 z" /><path
           id="path625"
           style=""
           d="m 360.64389,-179.97998 q 0,-0.45 0.117,-0.81 0.126,-0.36 0.342,-0.603 0.216,-0.252 0.522,-0.387 0.306,-0.135 0.684,-0.135 0.549,0 0.909,0.252 0.36,0.243 0.477,0.693 h 0.072 q -0.009,-0.153 -0.018,-0.306 -0.018,-0.135 -0.027,-0.279 0,-0.153 0,-0.27 v -1.62 h 0.81 v 6.57 h -0.765 v -0.855 h -0.072 q -0.117,0.45 -0.477,0.702 -0.36,0.243 -0.909,0.243 -0.378,0 -0.684,-0.135 -0.306,-0.135 -0.522,-0.378 -0.216,-0.252 -0.342,-0.612 -0.117,-0.36 -0.117,-0.81 z m 1.971,2.493 q 0.504,0 0.801,-0.333 0.306,-0.333 0.306,-0.9 v -1.26 q 0,-0.567 -0.306,-0.9 -0.297,-0.333 -0.801,-0.333 -0.549,0 -0.855,0.324 -0.306,0.324 -0.306,0.909 v 1.26 q 0,0.567 0.306,0.9 0.315,0.333 0.855,0.333 z" /><path
           id="path627"
           style=""
           d="m 365.48588,-178.31498 q 0,-0.351 0.117,-0.63 0.126,-0.288 0.351,-0.486 0.234,-0.198 0.558,-0.306 0.324,-0.108 0.729,-0.108 h 1.476 v -0.405 q 0,-0.459 -0.306,-0.711 -0.297,-0.261 -0.864,-0.261 -0.414,0 -0.711,0.153 -0.288,0.153 -0.387,0.423 h -0.81 q 0.126,-0.585 0.639,-0.927 0.522,-0.342 1.287,-0.342 0.918,0 1.44,0.432 0.522,0.423 0.522,1.188 v 3.42 h -0.738 v -0.945 h -0.072 q -0.117,0.477 -0.549,0.756 -0.432,0.279 -1.053,0.279 -0.747,0 -1.188,-0.414 -0.441,-0.414 -0.441,-1.116 z m 1.809,0.864 q 0.306,0 0.567,-0.081 0.261,-0.081 0.45,-0.225 0.189,-0.153 0.297,-0.351 0.108,-0.198 0.108,-0.432 v -0.675 h -1.458 q -0.45,0 -0.711,0.234 -0.252,0.234 -0.252,0.648 0,0.414 0.261,0.648 0.261,0.234 0.738,0.234 z" /><path
           id="path629"
           style=""
           d="m 371.27288,-181.82498 1.134,2.844 q 0.081,0.207 0.126,0.387 0.054,0.18 0.081,0.315 0.036,0.171 0.045,0.306 h 0.063 q 0.009,-0.135 0.045,-0.297 0.027,-0.144 0.072,-0.324 0.045,-0.18 0.117,-0.387 l 1.044,-2.844 h 0.873 l -2.403,6.435 h -0.864 l 0.684,-1.845 -1.917,-4.59 z" /><path
           id="path631"
           style=""
           d="m 375.45788,-176.64998 h 4.32 v 0.675 h -4.32 z" /><path
           id="path633"
           style=""
           d="m 380.77688,-176.87498 v -0.738 h 1.79999 v -3.474 h -1.575 v -0.738 h 2.385 v 4.212 h 1.485 v 0.738 z m 1.97999,-6.885 h 0.18 q 0.261,0 0.423,0.153 0.16201,0.153 0.16201,0.396 0,0.243 -0.16201,0.387 -0.162,0.144 -0.423,0.144 h -0.18 q -0.261,0 -0.423,-0.135 -0.162,-0.144 -0.162,-0.396 0,-0.243 0.162,-0.396 0.162,-0.153 0.423,-0.153 z" /><path
           id="path635"
           style=""
           d="m 385.71787,-176.87498 v -4.95 h 0.765 v 0.855 h 0.072 q 0.117,-0.45 0.468,-0.693 0.36,-0.252 0.891,-0.252 0.369,0 0.666,0.126 0.306,0.126 0.513,0.36 0.216,0.225 0.333,0.549 0.117,0.315 0.117,0.711 v 3.294 h -0.81 v -3.159 q 0,-0.567 -0.288,-0.882 -0.288,-0.315 -0.801,-0.315 -0.513,0 -0.819,0.342 -0.297,0.333 -0.297,0.909 v 3.105 z" /><path
           id="path637"
           style=""
           d="m 390.64087,-179.97998 q 0,-0.45 0.117,-0.81 0.126,-0.36 0.342,-0.603 0.216,-0.252 0.522,-0.387 0.306,-0.135 0.684,-0.135 0.549,0 0.909,0.252 0.36,0.243 0.477,0.693 h 0.072 q -0.009,-0.153 -0.018,-0.306 -0.018,-0.135 -0.027,-0.279 0,-0.153 0,-0.27 v -1.62 h 0.81 v 6.57 h -0.765 v -0.855 h -0.072 q -0.117,0.45 -0.477,0.702 -0.36,0.243 -0.909,0.243 -0.378,0 -0.684,-0.135 -0.306,-0.135 -0.522,-0.378 -0.216,-0.252 -0.342,-0.612 -0.117,-0.36 -0.117,-0.81 z m 1.971,2.493 q 0.504,0 0.801,-0.333 0.306,-0.333 0.306,-0.9 v -1.26 q 0,-0.567 -0.306,-0.9 -0.297,-0.333 -0.801,-0.333 -0.549,0 -0.855,0.324 -0.306,0.324 -0.306,0.909 v 1.26 q 0,0.567 0.306,0.9 0.315,0.333 0.855,0.333 z" /><path
           id="path639"
           style=""
           d="m 397.62487,-176.78498 q -0.927,0 -1.458,-0.504 -0.522,-0.504 -0.522,-1.386 v -1.35 q 0,-0.882 0.522,-1.386 0.531,-0.504 1.458,-0.504 0.927,0 1.449,0.504 0.531,0.504 0.531,1.386 v 0.909 h -3.15 v 0.396 q 0,0.567 0.306,0.891 0.315,0.324 0.864,0.324 0.405,0 0.702,-0.126 0.297,-0.126 0.441,-0.369 h 0.81 q -0.153,0.567 -0.684,0.891 -0.522,0.324 -1.269,0.324 z m 1.17,-3.006 v -0.234 q 0,-0.558 -0.306,-0.864 -0.306,-0.306 -0.864,-0.306 -0.558,0 -0.864,0.306 -0.306,0.306 -0.306,0.864 v 0.234 z" /><path
           id="path641"
           style=""
           d="m 400.35189,-176.87498 1.791,-2.538 -1.683,-2.412 h 0.972 l 1.035,1.575 q 0.045,0.063 0.072,0.126 0.027,0.054 0.045,0.099 0.018,0.045 0.027,0.09 h 0.036 q 0.009,-0.045 0.027,-0.09 0.018,-0.045 0.045,-0.099 0.027,-0.063 0.072,-0.126 l 1.035,-1.575 h 0.963 l -1.683,2.403 1.782,2.547 h -0.972 l -1.107,-1.674 q -0.036,-0.063 -0.072,-0.117 -0.027,-0.063 -0.054,-0.117 -0.027,-0.063 -0.045,-0.117 h -0.036 q -0.018,0.063 -0.045,0.117 -0.027,0.054 -0.054,0.117 -0.027,0.063 -0.072,0.117 l -1.116,1.674 z" /><path
           id="path643"
           style=""
           d="m 405.46389,-176.64998 h 4.32 v 0.675 h -4.32 z" /><path
           id="path645"
           style=""
           d="m 410.72888,-177.59498 h 1.737 v -4.545 q 0,-0.072 0,-0.162 0.009,-0.099 0.009,-0.18 0,-0.081 0,-0.135 0.009,-0.063 0.009,-0.063 h -0.018 q -0.063,0.054 -0.126,0.099 -0.054,0.045 -0.117,0.09 -0.054,0.045 -0.108,0.081 l -1.269,0.864 v -0.819 l 1.395,-0.99 h 1.035 v 5.76 h 1.458 v 0.72 h -4.005 z" /><path
           id="path647"
           style=""
           d="m 416.45288,-178.71998 q 0,0.558 0.315,0.891 0.315,0.324 0.855,0.324 0.54,0 0.855,-0.324 0.315,-0.333 0.315,-0.891 v -2.79 q 0,-0.558 -0.315,-0.882 -0.315,-0.333 -0.855,-0.333 -0.54,0 -0.855,0.333 -0.315,0.324 -0.315,0.882 z m -0.81,-2.79 q 0,-0.441 0.135,-0.801 0.144,-0.36 0.396,-0.612 0.261,-0.252 0.621,-0.387 0.369,-0.135 0.828,-0.135 0.459,0 0.819,0.135 0.369,0.135 0.621,0.387 0.261,0.252 0.396,0.612 0.144,0.36 0.144,0.801 v 2.79 q 0,0.441 -0.144,0.801 -0.135,0.351 -0.396,0.603 -0.252,0.252 -0.621,0.396 -0.369,0.135 -0.819,0.135 -0.459,0 -0.828,-0.135 -0.36,-0.135 -0.621,-0.387 -0.252,-0.252 -0.396,-0.612 -0.135,-0.36 -0.135,-0.801 z m 1.53,1.08 q 0,-0.225 0.117,-0.36 0.126,-0.135 0.333,-0.135 0.207,0 0.324,0.135 0.126,0.135 0.126,0.36 v 0.72 q 0,0.225 -0.126,0.36 -0.117,0.135 -0.324,0.135 -0.207,0 -0.333,-0.135 -0.117,-0.135 -0.117,-0.36 z" /><path
           id="path649"
           style=""
           d="m 421.44788,-178.71998 q 0,0.558 0.315,0.891 0.315,0.324 0.855,0.324 0.54,0 0.855,-0.324 0.315,-0.333 0.315,-0.891 v -2.79 q 0,-0.558 -0.315,-0.882 -0.315,-0.333 -0.855,-0.333 -0.54,0 -0.855,0.333 -0.315,0.324 -0.315,0.882 z m -0.81,-2.79 q 0,-0.441 0.135,-0.801 0.144,-0.36 0.396,-0.612 0.261,-0.252 0.621,-0.387 0.369,-0.135 0.828,-0.135 0.459,0 0.819,0.135 0.369,0.135 0.621,0.387 0.261,0.252 0.396,0.612 0.144,0.36 0.144,0.801 v 2.79 q 0,0.441 -0.144,0.801 -0.135,0.351 -0.396,0.603 -0.252,0.252 -0.621,0.396 -0.369,0.135 -0.819,0.135 -0.459,0 -0.828,-0.135 -0.36,-0.135 -0.621,-0.387 -0.252,-0.252 -0.396,-0.612 -0.135,-0.36 -0.135,-0.801 z m 1.53,1.08 q 0,-0.225 0.117,-0.36 0.126,-0.135 0.333,-0.135 0.207,0 0.324,0.135 0.126,0.135 0.126,0.36 v 0.72 q 0,0.225 -0.126,0.36 -0.117,0.135 -0.324,0.135 -0.207,0 -0.333,-0.135 -0.117,-0.135 -0.117,-0.36 z" /><path
           id="path651"
           style=""
           d="m 426.45187,-178.71998 q 0,0.558 0.31501,0.891 0.315,0.324 0.85499,0.324 0.54,0 0.855,-0.324 0.315,-0.333 0.315,-0.891 v -2.79 q 0,-0.558 -0.315,-0.882 -0.315,-0.333 -0.855,-0.333 -0.53999,0 -0.85499,0.333 -0.31501,0.324 -0.31501,0.882 z m -0.80999,-2.79 q 0,-0.441 0.135,-0.801 0.144,-0.36 0.39599,-0.612 0.261,-0.252 0.62101,-0.387 0.36899,-0.135 0.82799,-0.135 0.459,0 0.819,0.135 0.369,0.135 0.621,0.387 0.261,0.252 0.396,0.612 0.144,0.36 0.144,0.801 v 2.79 q 0,0.441 -0.144,0.801 -0.135,0.351 -0.396,0.603 -0.252,0.252 -0.621,0.396 -0.369,0.135 -0.819,0.135 -0.459,0 -0.82799,-0.135 -0.36001,-0.135 -0.62101,-0.387 -0.25199,-0.252 -0.39599,-0.612 -0.135,-0.36 -0.135,-0.801 z m 1.52999,1.08 q 0,-0.225 0.11701,-0.36 0.12599,-0.135 0.33299,-0.135 0.207,0 0.324,0.135 0.126,0.135 0.126,0.36 v 0.72 q 0,0.225 -0.126,0.36 -0.117,0.135 -0.324,0.135 -0.207,0 -0.33299,-0.135 -0.11701,-0.135 -0.11701,-0.36 z" /><path
           id="path653"
           style=""
           d="m 431.45587,-184.03898 h 0.99 l 0.99,1.314 h -0.81 z" /></g></g></g></svg>