<?xml version="1.0" encoding="UTF-8" standalone="no"?>
<svg
   xmlns:dc="http://purl.org/dc/elements/1.1/"
   xmlns:cc="http://creativecommons.org/ns#"
   xmlns:rdf="http://www.w3.org/1999/02/22-rdf-syntax-ns#"
   xmlns:svg="http://www.w3.org/2000/svg"
   xmlns="http://www.w3.org/2000/svg"
   viewBox="0 0 799.90002 399.95001"
   height="399.95001"
   width="799.90002"
   xml:space="preserve"
   id="svg2"
   version="1.1"><metadata
     id="metadata8"><rdf:RDF><cc:Work
         rdf:about=""><dc:format>image/svg+xml</dc:format><dc:type
           rdf:resource="http://purl.org/dc/dcmitype/StillImage" /></cc:Work></rdf:RDF></metadata><defs
     id="defs6"><clipPath
       id="clipPath54"
       clipPathUnits="userSpaceOnUse"><path
         id="path52"
         d="M 42.668,26.668 H 541.84 V 276.293 H 42.668 Z" /></clipPath><clipPath
       id="clipPath64"
       clipPathUnits="userSpaceOnUse"><path
         id="path62"
         d="M 42.668,226 H 541.84 v 1 H 42.668 Z" /></clipPath><clipPath
       id="clipPath74"
       clipPathUnits="userSpaceOnUse"><path
         id="path72"
         d="M 42.668,155 H 541.84 v 2 H 42.668 Z" /></clipPath><clipPath
       id="clipPath84"
       clipPathUnits="userSpaceOnUse"><path
         id="path82"
         d="M 42.668,84 H 541.84 v 2 H 42.668 Z" /></clipPath><clipPath
       id="clipPath94"
       clipPathUnits="userSpaceOnUse"><path
         id="path92"
         d="m 127,26.668 h 2 v 249.625 h -2 z" /></clipPath><clipPath
       id="clipPath104"
       clipPathUnits="userSpaceOnUse"><path
         id="path102"
         d="m 216,26.668 h 2 v 249.625 h -2 z" /></clipPath><clipPath
       id="clipPath114"
       clipPathUnits="userSpaceOnUse"><path
         id="path112"
         d="m 305,26.668 h 1 v 249.625 h -1 z" /></clipPath><clipPath
       id="clipPath124"
       clipPathUnits="userSpaceOnUse"><path
         id="path122"
         d="m 393,26.668 h 2 v 249.625 h -2 z" /></clipPath><clipPath
       id="clipPath134"
       clipPathUnits="userSpaceOnUse"><path
         id="path132"
         d="m 482,26.668 h 2 v 249.625 h -2 z" /></clipPath></defs><g
     transform="matrix(1.3333333,0,0,1.3333333,0,1.3332084e-5)"
     id="g10"><g
       id="g12"><path
         id="path14"
         style="fill:#222831;fill-opacity:1;fill-rule:nonzero;stroke:none"
         d="M 0,0 H 599.926 V 299.961 H 0 Z" /><g
         id="text32"
         style="font-variant:normal;font-weight:normal;font-size:9px;font-family:'JetBrains Mono';-inkscape-font-specification:JetBrainsMono-Regular;writing-mode:lr-tb;fill:#a1a1a1;fill-opacity:1;fill-rule:nonzero;stroke:none"
         transform="translate(123.16406,287.99414)"
         aria-label="1020304050
Spain
Germany
US
France
Italy
Iran
China"><path
           id="path448"
           style=""
           d="m 0.81,-0.72 h 1.737 v -4.545 q 0,-0.072 0,-0.162 0.009,-0.099 0.009,-0.18 0,-0.081 0,-0.135 0.009,-0.063 0.009,-0.063 H 2.547 Q 2.484,-5.751 2.421,-5.706 2.367,-5.661 2.304,-5.616 2.25,-5.571 2.196,-5.535 L 0.927,-4.671 V -5.49 l 1.395,-0.99 h 1.035 v 5.76 H 4.815 V 0 H 0.81 Z" /><path
           id="path450"
           style=""
           d="m 6.5340002,-1.845 q 0,0.558 0.315,0.891 0.315,0.324 0.855,0.324 0.54,0 0.855,-0.324 0.315,-0.333 0.315,-0.891 v -2.79 q 0,-0.558 -0.315,-0.882 -0.315,-0.333 -0.855,-0.333 -0.54,0 -0.855,0.333 -0.315,0.324 -0.315,0.882 z m -0.81,-2.79 q 0,-0.441 0.135,-0.801 0.144,-0.36 0.396,-0.612 0.261,-0.252 0.621,-0.387 0.369,-0.135 0.828,-0.135 0.459,0 0.819,0.135 0.369,0.135 0.621,0.387 0.261,0.252 0.396,0.612 0.144,0.36 0.144,0.801 v 2.79 q 0,0.441 -0.144,0.801 -0.135,0.351 -0.396,0.603 -0.252,0.252 -0.621,0.396 -0.369,0.135 -0.819,0.135 -0.459,0 -0.828,-0.135 -0.36,-0.135 -0.621,-0.387 -0.252,-0.252 -0.396,-0.612 -0.135,-0.36 -0.135,-0.801 z m 1.53,1.08 q 0,-0.225 0.117,-0.36 0.126,-0.135 0.333,-0.135 0.207,0 0.324,0.135 0.126,0.135 0.126,0.36 v 0.72 q 0,0.225 -0.126,0.36 -0.117,0.135 -0.324,0.135 -0.207,0 -0.333,-0.135 -0.117,-0.135 -0.117,-0.36 z" /><path
           id="path452"
           style=""
           d="m 93.312,-4.77 q 0,0.729 -0.405,1.413 -0.396,0.675 -1.269,1.431 l -1.089,0.945 q -0.045,0.036 -0.099,0.072 -0.054,0.036 -0.108,0.072 -0.072,0.045 -0.135,0.081 v 0.036 q 0.144,-0.009 0.279,-0.009 0.126,-0.009 0.252,-0.009 0.135,0 0.243,0 h 2.394 V 0 h -4.05 v -0.9 l 1.71,-1.467 q 0.387,-0.333 0.657,-0.63 0.279,-0.297 0.45,-0.585 0.171,-0.288 0.252,-0.576 0.081,-0.288 0.081,-0.603 0,-0.504 -0.306,-0.792 -0.297,-0.297 -0.81,-0.297 -0.567,0 -0.909,0.297 -0.333,0.297 -0.333,0.783 H 89.28 q 0.018,-0.405 0.171,-0.738 0.153,-0.333 0.423,-0.567 0.279,-0.234 0.648,-0.36 0.378,-0.135 0.837,-0.135 0.45,0 0.81,0.126 0.36,0.126 0.612,0.36 0.252,0.234 0.387,0.567 0.144,0.333 0.144,0.747 z" /><path
           id="path454"
           style=""
           d="m 95.228997,-1.845 q 0,0.558 0.315,0.891 0.315,0.324 0.855,0.324 0.54,0 0.855,-0.324 0.315,-0.333 0.315,-0.891 v -2.79 q 0,-0.558 -0.315,-0.882 -0.315,-0.333 -0.855,-0.333 -0.54,0 -0.855,0.333 -0.315,0.324 -0.315,0.882 z m -0.81,-2.79 q 0,-0.441 0.135,-0.801 0.144,-0.36 0.396,-0.612 0.261,-0.252 0.621,-0.387 0.369,-0.135 0.828,-0.135 0.459,0 0.819,0.135 0.369,0.135 0.621,0.387 0.261,0.252 0.396,0.612 0.144,0.36 0.144,0.801 v 2.79 q 0,0.441 -0.144,0.801 -0.135,0.351 -0.396,0.603 -0.252,0.252 -0.621,0.396 -0.369,0.135 -0.819,0.135 -0.459,0 -0.828,-0.135 -0.36,-0.135 -0.621,-0.387 -0.252,-0.252 -0.396,-0.612 -0.135,-0.36 -0.135,-0.801 z m 1.53,1.08 q 0,-0.225 0.117,-0.36 0.126,-0.135 0.333,-0.135 0.207,0 0.324,0.135 0.126,0.135 0.126,0.36 v 0.72 q 0,0.225 -0.126,0.36 -0.117,0.135 -0.324,0.135 -0.207,0 -0.333,-0.135 -0.117,-0.135 -0.117,-0.36 z" /><path
           id="path456"
           style=""
           d="m 179.98653,-3.87 q 0.486,0 0.873,0.144 0.396,0.135 0.666,0.396 0.279,0.252 0.432,0.621 0.153,0.369 0.153,0.819 0,0.459 -0.144,0.828 -0.144,0.36 -0.414,0.621 -0.27,0.252 -0.657,0.396 -0.378,0.135 -0.855,0.135 -0.423,0 -0.783,-0.126 -0.351,-0.126 -0.621,-0.351 -0.261,-0.234 -0.432,-0.558 -0.162,-0.324 -0.198,-0.72 h 0.81 q 0.072,0.468 0.405,0.756 0.333,0.279 0.819,0.279 0.567,0 0.909,-0.342 0.342,-0.351 0.342,-0.918 0,-0.567 -0.351,-0.909 -0.351,-0.351 -0.936,-0.351 h -0.756 v -0.855 l 1.287,-1.305 q 0.09,-0.09 0.189,-0.171 0.099,-0.081 0.189,-0.144 0.099,-0.081 0.207,-0.153 v -0.018 q -0.099,0.009 -0.207,0.018 -0.099,0.009 -0.216,0.018 -0.108,0 -0.234,0 h -2.259 v -0.72 h 3.6 v 0.9 l -1.521,1.449 q -0.054,0.054 -0.108,0.099 -0.054,0.045 -0.099,0.081 -0.045,0.045 -0.09,0.081 z" /><path
           id="path458"
           style=""
           d="m 183.92853,-1.845 q 0,0.558 0.315,0.891 0.315,0.324 0.855,0.324 0.54,0 0.855,-0.324 0.315,-0.333 0.315,-0.891 v -2.79 q 0,-0.558 -0.315,-0.882 -0.315,-0.333 -0.855,-0.333 -0.54,0 -0.855,0.333 -0.315,0.324 -0.315,0.882 z m -0.81,-2.79 q 0,-0.441 0.135,-0.801 0.144,-0.36 0.396,-0.612 0.261,-0.252 0.621,-0.387 0.369,-0.135 0.828,-0.135 0.459,0 0.819,0.135 0.369,0.135 0.621,0.387 0.261,0.252 0.396,0.612 0.144,0.36 0.144,0.801 v 2.79 q 0,0.441 -0.144,0.801 -0.135,0.351 -0.396,0.603 -0.252,0.252 -0.621,0.396 -0.369,0.135 -0.819,0.135 -0.459,0 -0.828,-0.135 -0.36,-0.135 -0.621,-0.387 -0.252,-0.252 -0.396,-0.612 -0.135,-0.36 -0.135,-0.801 z m 1.53,1.08 q 0,-0.225 0.117,-0.36 0.126,-0.135 0.333,-0.135 0.207,0 0.324,0.135 0.126,0.135 0.126,0.36 v 0.72 q 0,0.225 -0.126,0.36 -0.117,0.135 -0.324,0.135 -0.207,0 -0.333,-0.135 -0.117,-0.135 -0.117,-0.36 z" /><path
           id="path460"
           style=""
           d="m 269.41054,-6.48 h 0.882 l -2.628,4.005 v 0.36 h 2.115 V -3.69 h 0.81 V 0 h -0.81 v -1.395 h -2.925 v -1.17 z" /><path
           id="path462"
           style=""
           d="m 272.62354,-1.845 q 0,0.558 0.315,0.891 0.315,0.324 0.855,0.324 0.54,0 0.855,-0.324 0.315,-0.333 0.315,-0.891 v -2.79 q 0,-0.558 -0.315,-0.882 -0.315,-0.333 -0.855,-0.333 -0.54,0 -0.855,0.333 -0.315,0.324 -0.315,0.882 z m -0.81,-2.79 q 0,-0.441 0.135,-0.801 0.144,-0.36 0.396,-0.612 0.261,-0.252 0.621,-0.387 0.369,-0.135 0.828,-0.135 0.459,0 0.819,0.135 0.369,0.135 0.621,0.387 0.261,0.252 0.396,0.612 0.144,0.36 0.144,0.801 v 2.79 q 0,0.441 -0.144,0.801 -0.135,0.351 -0.396,0.603 -0.252,0.252 -0.621,0.396 -0.369,0.135 -0.819,0.135 -0.459,0 -0.828,-0.135 -0.36,-0.135 -0.621,-0.387 -0.252,-0.252 -0.396,-0.612 -0.135,-0.36 -0.135,-0.801 z m 1.53,1.08 q 0,-0.225 0.117,-0.36 0.126,-0.135 0.333,-0.135 0.207,0 0.324,0.135 0.126,0.135 0.126,0.36 v 0.72 q 0,0.225 -0.126,0.36 -0.117,0.135 -0.324,0.135 -0.207,0 -0.333,-0.135 -0.117,-0.135 -0.117,-0.36 z" /><path
           id="path464"
           style=""
           d="m 357.76806,-4.14 q 0.819,0 1.278,0.513 0.468,0.504 0.468,1.377 v 0.45 q 0,0.432 -0.144,0.783 -0.144,0.351 -0.414,0.594 -0.261,0.243 -0.639,0.378 -0.378,0.135 -0.846,0.135 -0.828,0 -1.359,-0.387 -0.531,-0.396 -0.648,-1.053 h 0.855 q 0.09,0.324 0.387,0.522 0.306,0.198 0.774,0.198 0.549,0 0.873,-0.315 0.324,-0.315 0.324,-0.855 v -0.45 q 0,-0.54 -0.324,-0.855 -0.324,-0.315 -0.882,-0.315 -0.693,0 -1.026,0.495 h -0.828 l 0.045,-3.555 h 3.564 v 0.738 h -2.781 l -0.027,2.286 h 0.054 q 0.081,-0.189 0.252,-0.342 0.144,-0.126 0.387,-0.234 0.252,-0.108 0.657,-0.108 z" /><path
           id="path466"
           style=""
           d="m 361.32306,-1.845 q 0,0.558 0.315,0.891 0.315,0.324 0.855,0.324 0.54,0 0.855,-0.324 0.315,-0.333 0.315,-0.891 v -2.79 q 0,-0.558 -0.315,-0.882 -0.315,-0.333 -0.855,-0.333 -0.54,0 -0.855,0.333 -0.315,0.324 -0.315,0.882 z m -0.81,-2.79 q 0,-0.441 0.135,-0.801 0.144,-0.36 0.396,-0.612 0.261,-0.252 0.621,-0.387 0.369,-0.135 0.828,-0.135 0.459,0 0.819,0.135 0.369,0.135 0.621,0.387 0.261,0.252 0.396,0.612 0.144,0.36 0.144,0.801 v 2.79 q 0,0.441 -0.144,0.801 -0.135,0.351 -0.396,0.603 -0.252,0.252 -0.621,0.396 -0.369,0.135 -0.819,0.135 -0.459,0 -0.828,-0.135 -0.36,-0.135 -0.621,-0.387 -0.252,-0.252 -0.396,-0.612 -0.135,-0.36 -0.135,-0.801 z m 1.53,1.08 q 0,-0.225 0.117,-0.36 0.126,-0.135 0.333,-0.135 0.207,0 0.324,0.135 0.126,0.135 0.126,0.36 v 0.72 q 0,0.225 -0.126,0.36 -0.117,0.135 -0.324,0.135 -0.207,0 -0.333,-0.135 -0.117,-0.135 -0.117,-0.36 z" /><path
           id="path468"
           style=""
           d="m 432.46172,-160.64437 q -0.441,0 -0.819,-0.117 -0.378,-0.126 -0.657,-0.351 -0.27,-0.234 -0.432,-0.558 -0.153,-0.324 -0.162,-0.729 h 0.855 q 0,0.234 0.09,0.423 0.099,0.189 0.27,0.324 0.171,0.135 0.396,0.216 0.225,0.072 0.477,0.072 0.567,0 0.9,-0.261 0.333,-0.27 0.333,-0.729 0,-0.387 -0.243,-0.684 -0.243,-0.30601 -0.702,-0.477 l -0.684,-0.252 q -1.503,-0.549 -1.503,-1.818 0,-0.81 0.513,-1.26 0.513,-0.459 1.413,-0.459 0.423,0 0.774,0.117 0.351,0.11699 0.603,0.342 0.261,0.225 0.405,0.549 0.153,0.31499 0.162,0.711 h -0.855 q 0,-0.225 -0.09,-0.405 -0.09,-0.189 -0.243,-0.315 -0.144,-0.135 -0.342,-0.207 -0.198,-0.072 -0.423,-0.072 -0.513,0 -0.81,0.243 -0.288,0.243 -0.288,0.657 0,0.405 0.216,0.675 0.225,0.261 0.72,0.441 l 0.72,0.261 q 0.72,0.261 1.098,0.756 0.378,0.495 0.378,1.17 0,0.81 -0.558,1.278 -0.549,0.459 -1.512,0.459 z" /><path
           id="path470"
           style=""
           d="m 436.32272,-165.68437 v 0.855 h 0.072 q 0.117,-0.45 0.477,-0.693 0.36,-0.252 0.909,-0.252 0.378,0 0.684,0.135 0.306,0.135 0.522,0.387 0.216,0.243 0.333,0.603 0.126,0.36 0.126,0.81 v 1.26 q 0,0.45 -0.126,0.81 -0.117,0.36 -0.333,0.612 -0.216,0.243 -0.522,0.378 -0.306,0.135 -0.684,0.135 -0.549,0 -0.909,-0.243 -0.36,-0.252 -0.477,-0.702 h -0.072 q 0.009,0.153 0.027,0.306 0.009,0.135 0.009,0.279 0.009,0.144 0.009,0.27 v 1.485 h -0.81 v -6.435 z m 0.045,3.105 q 0,0.567 0.297,0.9 0.306,0.333 0.81,0.333 0.54,0 0.846,-0.333 0.315,-0.333 0.315,-0.9 v -1.26 q 0,-0.585 -0.306,-0.909 -0.306,-0.324 -0.855,-0.324 -0.504,0 -0.81,0.333 -0.297,0.333 -0.297,0.9 z" /><path
           id="path472"
           style=""
           d="m 440.32771,-162.17437 q 0,-0.351 0.117,-0.63 0.126,-0.288 0.351,-0.486 0.234,-0.198 0.558,-0.306 0.324,-0.108 0.729,-0.108 h 1.476 v -0.405 q 0,-0.459 -0.306,-0.71101 -0.297,-0.26099 -0.864,-0.26099 -0.414,0 -0.711,0.153 -0.288,0.153 -0.387,0.423 h -0.81 q 0.126,-0.585 0.639,-0.927 0.522,-0.342 1.287,-0.342 0.918,0 1.44,0.432 0.522,0.423 0.522,1.188 v 3.42 h -0.738 v -0.945 h -0.072 q -0.117,0.477 -0.549,0.756 -0.432,0.279 -1.053,0.279 -0.747,0 -1.188,-0.414 -0.441,-0.414 -0.441,-1.116 z m 1.809,0.864 q 0.306,0 0.567,-0.081 0.261,-0.081 0.45,-0.225 0.189,-0.153 0.297,-0.351 0.108,-0.198 0.108,-0.432 v -0.675 h -1.458 q -0.45,0 -0.711,0.234 -0.252,0.23399 -0.252,0.648 0,0.414 0.261,0.648 0.261,0.234 0.738,0.234 z" /><path
           id="path474"
           style=""
           d="m 445.61971,-160.73437 v -0.738 h 1.8 v -3.474 h -1.575 v -0.738 h 2.385 v 4.212 h 1.485 v 0.738 z m 1.98,-6.885 h 0.18 q 0.261,0 0.423,0.153 0.162,0.153 0.162,0.39599 0,0.24301 -0.162,0.38701 -0.162,0.144 -0.423,0.144 h -0.18 q -0.261,0 -0.423,-0.135 -0.162,-0.144 -0.162,-0.39601 0,-0.24299 0.162,-0.39599 0.162,-0.153 0.423,-0.153 z" /><path
           id="path476"
           style=""
           d="m 450.5517,-160.73437 v -4.95 h 0.765 v 0.855 h 0.072 q 0.117,-0.45 0.468,-0.693 0.36,-0.252 0.891,-0.252 0.369,0 0.666,0.126 0.306,0.126 0.513,0.36 0.216,0.225 0.333,0.549 0.117,0.315 0.117,0.711 v 3.294 h -0.81 v -3.159 q 0,-0.567 -0.288,-0.882 -0.288,-0.315 -0.801,-0.315 -0.513,0 -0.819,0.342 -0.297,0.333 -0.297,0.909 v 3.105 z" /><path
           id="path478"
           style=""
           d="m 432.31772,-153.22844 h 2.124 v 1.485 q 0,0.441 -0.144,0.801 -0.135,0.36 -0.396,0.612 -0.252,0.252 -0.621,0.387 -0.36,0.135 -0.819,0.135 -0.45,0 -0.819,-0.135 -0.369,-0.135 -0.63,-0.387 -0.252,-0.252 -0.396,-0.612 -0.135,-0.36 -0.135,-0.801 v -2.79 q 0,-0.432 0.144,-0.792 0.144,-0.36 0.396,-0.612 0.261,-0.252 0.63,-0.387 0.369,-0.144 0.81,-0.144 0.819,0 1.341,0.414 0.522,0.414 0.684,1.206 h -0.828 q -0.09,-0.423 -0.405,-0.657 -0.315,-0.243 -0.792,-0.243 -0.54,0 -0.855,0.324 -0.315,0.324 -0.315,0.891 v 2.79 q 0,0.567 0.315,0.891 0.315,0.324 0.855,0.324 0.54,0 0.855,-0.324 0.315,-0.324 0.315,-0.891 v -0.765 h -1.314 z" /><path
           id="path480"
           style=""
           d="m 437.46572,-149.80844 q -0.927,0 -1.458,-0.504 -0.522,-0.504 -0.522,-1.386 v -1.35 q 0,-0.882 0.522,-1.386 0.531,-0.504 1.458,-0.504 0.927,0 1.449,0.504 0.531,0.504 0.531,1.386 v 0.909 h -3.15 v 0.396 q 0,0.567 0.306,0.891 0.315,0.324 0.864,0.324 0.405,0 0.702,-0.126 0.297,-0.126 0.441,-0.369 h 0.81 q -0.153,0.567 -0.684,0.891 -0.522,0.324 -1.269,0.324 z m 1.17,-3.006 v -0.234 q 0,-0.558 -0.306,-0.864 -0.306,-0.306 -0.864,-0.306 -0.558,0 -0.864,0.306 -0.306,0.306 -0.306,0.864 v 0.234 z" /><path
           id="path482"
           style=""
           d="m 440.76871,-154.84844 h 0.765 v 0.855 h 0.072 q 0.117,-0.441 0.486,-0.693 0.369,-0.252 0.909,-0.252 0.783,0 1.224,0.495 0.45,0.486 0.45,1.341 v 0.279 h -0.81 v -0.18 q 0,-0.585 -0.297,-0.9 -0.288,-0.324 -0.828,-0.324 -0.531,0 -0.846,0.333 -0.315,0.324 -0.315,0.891 v 3.105 h -0.81 z" /><path
           id="path484"
           style=""
           d="m 445.32271,-154.84844 h 0.639 v 0.729 h 0.063 q 0.036,-0.396 0.252,-0.603 0.216,-0.216 0.576,-0.216 0.36,0 0.594,0.216 0.234,0.207 0.324,0.603 h 0.045 q 0.036,-0.396 0.252,-0.603 0.216,-0.216 0.576,-0.216 0.459,0 0.711,0.342 0.252,0.333 0.252,0.927 v 3.771 h -0.702 v -3.771 q 0,-0.315 -0.144,-0.477 -0.135,-0.171 -0.396,-0.171 -0.549,0 -0.549,0.693 v 3.726 h -0.702 v -3.771 q 0,-0.261 -0.126,-0.45 -0.117,-0.198 -0.414,-0.198 -0.27,0 -0.423,0.198 -0.126,0.18 -0.126,0.495 v 3.726 h -0.702 z" /><path
           id="path486"
           style=""
           d="m 450.3267,-151.33844 q 0,-0.351 0.117,-0.63 0.126,-0.288 0.351,-0.486 0.234,-0.198 0.558,-0.306 0.324,-0.108 0.729,-0.108 h 1.476 v -0.405 q 0,-0.459 -0.306,-0.711 -0.297,-0.261 -0.864,-0.261 -0.414,0 -0.711,0.153 -0.288,0.153 -0.387,0.423 h -0.81 q 0.126,-0.585 0.639,-0.927 0.522,-0.342 1.287,-0.342 0.918,0 1.44,0.432 0.522,0.423 0.522,1.188 v 3.42 h -0.738 v -0.945 h -0.072 q -0.117,0.477 -0.549,0.756 -0.432,0.279 -1.053,0.279 -0.747,0 -1.188,-0.414 -0.441,-0.414 -0.441,-1.116 z m 1.809,0.864 q 0.306,0 0.567,-0.081 0.261,-0.081 0.45,-0.225 0.189,-0.153 0.297,-0.351 0.108,-0.198 0.108,-0.432 v -0.675 h -1.458 q -0.45,0 -0.711,0.234 -0.252,0.234 -0.252,0.648 0,0.414 0.261,0.648 0.261,0.234 0.738,0.234 z" /><path
           id="path488"
           style=""
           d="m 455.5557,-149.89844 v -4.95 h 0.765 v 0.855 h 0.072 q 0.117,-0.45 0.468,-0.693 0.36,-0.252 0.891,-0.252 0.369,0 0.666,0.126 0.306,0.126 0.513,0.36 0.216,0.225 0.333,0.549 0.117,0.315 0.117,0.711 v 3.294 h -0.81 v -3.159 q 0,-0.567 -0.288,-0.882 -0.288,-0.315 -0.801,-0.315 -0.513,0 -0.819,0.342 -0.297,0.333 -0.297,0.909 v 3.105 z" /><path
           id="path490"
           style=""
           d="m 461.1087,-154.84844 1.134,2.844 q 0.081,0.207 0.126,0.387 0.054,0.18 0.081,0.315 0.036,0.171 0.045,0.306 h 0.063 q 0.009,-0.135 0.045,-0.297 0.027,-0.144 0.072,-0.324 0.045,-0.18 0.117,-0.387 l 1.044,-2.844 h 0.873 l -2.403,6.435 h -0.864 l 0.684,-1.845 -1.917,-4.59 z" /><path
           id="path492"
           style=""
           d="m 432.46172,-138.97641 q -0.927,0 -1.431,-0.504 -0.504,-0.504 -0.504,-1.386 v -4.68 h 0.81 v 4.68 q 0,0.54 0.288,0.855 0.288,0.315 0.837,0.315 0.54,0 0.828,-0.315 0.297,-0.315 0.297,-0.855 v -4.68 h 0.81 v 4.68 q 0,0.891 -0.504,1.395 -0.504,0.495 -1.431,0.495 z" /><path
           id="path494"
           style=""
           d="m 437.46572,-138.97641 q -0.441,0 -0.819,-0.117 -0.378,-0.126 -0.657,-0.351 -0.27,-0.234 -0.432,-0.558 -0.153,-0.324 -0.162,-0.729 h 0.855 q 0,0.234 0.09,0.423 0.099,0.189 0.27,0.324 0.171,0.135 0.396,0.216 0.225,0.072 0.477,0.072 0.567,0 0.9,-0.261 0.333,-0.27 0.333,-0.729 0,-0.387 -0.243,-0.684 -0.243,-0.306 -0.702,-0.477 l -0.684,-0.252 q -1.503,-0.549 -1.503,-1.818 0,-0.81 0.513,-1.26 0.513,-0.459 1.413,-0.459 0.423,0 0.774,0.117 0.351,0.117 0.603,0.342 0.261,0.225 0.405,0.549 0.153,0.315 0.162,0.711 h -0.855 q 0,-0.225 -0.09,-0.405 -0.09,-0.189 -0.243,-0.315 -0.144,-0.135 -0.342,-0.207 -0.198,-0.072 -0.423,-0.072 -0.513,0 -0.81,0.243 -0.288,0.243 -0.288,0.657 0,0.405 0.216,0.675 0.225,0.261 0.72,0.441 l 0.72,0.261 q 0.72,0.261 1.098,0.756 0.378,0.495 0.378,1.17 0,0.81 -0.558,1.278 -0.549,0.459 -1.512,0.459 z" /><path
           id="path496"
           style=""
           d="m 430.61672,-134.71947 h 3.87 v 0.72 h -3.078 v 2.097 h 2.844 v 0.72 h -2.826 v 2.952 h -0.81 z" /><path
           id="path498"
           style=""
           d="m 435.77372,-133.18047 h 0.765 v 0.855 h 0.072 q 0.117,-0.441 0.486,-0.693 0.369,-0.252 0.909,-0.252 0.783,0 1.224,0.495 0.45,0.486 0.45,1.341 v 0.279 h -0.81 v -0.18 q 0,-0.585 -0.297,-0.9 -0.288,-0.324 -0.828,-0.324 -0.531,0 -0.846,0.333 -0.315,0.324 -0.315,0.891 v 3.105 h -0.81 z" /><path
           id="path500"
           style=""
           d="m 440.32771,-129.67047 q 0,-0.351 0.117,-0.63 0.126,-0.288 0.351,-0.486 0.234,-0.198 0.558,-0.306 0.324,-0.108 0.729,-0.108 h 1.476 v -0.405 q 0,-0.459 -0.306,-0.711 -0.297,-0.261 -0.864,-0.261 -0.414,0 -0.711,0.153 -0.288,0.153 -0.387,0.423 h -0.81 q 0.126,-0.585 0.639,-0.927 0.522,-0.342 1.287,-0.342 0.918,0 1.44,0.432 0.522,0.423 0.522,1.188 v 3.42 h -0.738 v -0.945 h -0.072 q -0.117,0.477 -0.549,0.756 -0.432,0.279 -1.053,0.279 -0.747,0 -1.188,-0.414 -0.441,-0.414 -0.441,-1.116 z m 1.809,0.864 q 0.306,0 0.567,-0.081 0.261,-0.081 0.45,-0.225 0.189,-0.153 0.297,-0.351 0.108,-0.198 0.108,-0.432 v -0.675 h -1.458 q -0.45,0 -0.711,0.234 -0.252,0.234 -0.252,0.648 0,0.414 0.261,0.648 0.261,0.234 0.738,0.234 z" /><path
           id="path502"
           style=""
           d="m 445.55671,-128.23047 v -4.95 h 0.765 v 0.855 h 0.072 q 0.117,-0.45 0.468,-0.693 0.36,-0.252 0.891,-0.252 0.369,0 0.666,0.126 0.306,0.126 0.513,0.36 0.216,0.225 0.333,0.549 0.117,0.315 0.117,0.711 v 3.294 h -0.81 v -3.159 q 0,-0.567 -0.288,-0.882 -0.288,-0.315 -0.801,-0.315 -0.513,0 -0.819,0.342 -0.297,0.333 -0.297,0.909 v 3.105 z" /><path
           id="path504"
           style=""
           d="m 452.5317,-128.14047 q -0.459,0 -0.828,-0.135 -0.36,-0.135 -0.621,-0.387 -0.252,-0.252 -0.396,-0.612 -0.135,-0.36 -0.135,-0.801 v -1.26 q 0,-0.441 0.135,-0.801 0.144,-0.36 0.396,-0.612 0.261,-0.252 0.621,-0.387 0.369,-0.135 0.828,-0.135 0.819,0 1.341,0.45 0.531,0.441 0.639,1.215 h -0.81 q -0.063,-0.432 -0.387,-0.684 -0.315,-0.261 -0.783,-0.261 -0.54,0 -0.855,0.324 -0.315,0.324 -0.315,0.891 v 1.26 q 0,0.567 0.306,0.891 0.315,0.324 0.864,0.324 0.468,0 0.783,-0.252 0.324,-0.261 0.387,-0.693 h 0.81 q -0.117,0.783 -0.648,1.224 -0.522,0.441 -1.332,0.441 z" /><path
           id="path506"
           style=""
           d="m 457.4637,-128.14047 q -0.927,0 -1.458,-0.504 -0.522,-0.504 -0.522,-1.386 v -1.35 q 0,-0.882 0.522,-1.386 0.531,-0.504 1.458,-0.504 0.927,0 1.449,0.504 0.531,0.504 0.531,1.386 v 0.909 h -3.15 v 0.396 q 0,0.567 0.306,0.891 0.315,0.324 0.864,0.324 0.405,0 0.702,-0.126 0.297,-0.126 0.441,-0.369 h 0.81 q -0.153,0.567 -0.684,0.891 -0.522,0.324 -1.269,0.324 z m 1.17,-3.006 v -0.234 q 0,-0.558 -0.306,-0.864 -0.306,-0.306 -0.864,-0.306 -0.558,0 -0.864,0.306 -0.306,0.306 -0.306,0.864 v 0.234 z" /><path
           id="path508"
           style=""
           d="m 432.04772,-118.10553 v -5.058 h -1.431 v -0.711 h 3.69 v 0.711 h -1.431 v 5.058 h 1.431 v 0.711 h -3.69 v -0.711 z" /><path
           id="path510"
           style=""
           d="m 435.30572,-122.34453 h 1.44 v -1.53 h 0.81 v 1.53 h 1.935 v 0.738 h -1.935 v 2.934 q 0,0.252 0.153,0.396 0.162,0.144 0.432,0.144 h 1.26 v 0.738 h -1.26 q -0.639,0 -1.017,-0.351 -0.378,-0.351 -0.378,-0.927 v -2.934 h -1.44 z" /><path
           id="path512"
           style=""
           d="m 440.32771,-118.83453 q 0,-0.351 0.117,-0.63 0.126,-0.288 0.351,-0.486 0.234,-0.198 0.558,-0.306 0.324,-0.108 0.729,-0.108 h 1.476 v -0.405 q 0,-0.459 -0.306,-0.711 -0.297,-0.261 -0.864,-0.261 -0.414,0 -0.711,0.153 -0.288,0.153 -0.387,0.423 h -0.81 q 0.126,-0.585 0.639,-0.927 0.522,-0.342 1.287,-0.342 0.918,0 1.44,0.432 0.522,0.423 0.522,1.188 v 3.42 h -0.738 v -0.945 h -0.072 q -0.117,0.477 -0.549,0.756 -0.432,0.279 -1.053,0.279 -0.747,0 -1.188,-0.414 -0.441,-0.414 -0.441,-1.116 z m 1.809,0.864 q 0.306,0 0.567,-0.081 0.261,-0.081 0.45,-0.225 0.189,-0.153 0.297,-0.351 0.108,-0.198 0.108,-0.432 v -0.675 h -1.458 q -0.45,0 -0.711,0.234 -0.252,0.234 -0.252,0.648 0,0.414 0.261,0.648 0.261,0.234 0.738,0.234 z" /><path
           id="path514"
           style=""
           d="m 447.57271,-123.96453 v 5.13 q 0,0.333 0.18,0.522 0.18,0.18 0.495,0.18 h 1.467 v 0.738 h -1.467 q -0.693,0 -1.089,-0.378 -0.396,-0.387 -0.396,-1.062 v -4.392 h -1.638 v -0.738 z" /><path
           id="path516"
           style=""
           d="m 451.1097,-122.34453 1.134,2.844 q 0.081,0.207 0.126,0.387 0.054,0.18 0.081,0.315 0.036,0.171 0.045,0.306 h 0.063 q 0.009,-0.135 0.045,-0.297 0.027,-0.144 0.072,-0.324 0.045,-0.18 0.117,-0.387 l 1.044,-2.844 h 0.873 l -2.403,6.435 h -0.864 l 0.684,-1.845 -1.917,-4.59 z" /><path
           id="path518"
           style=""
           d="m 432.04772,-107.2735 v -5.058 h -1.431 v -0.711 h 3.69 v 0.711 h -1.431 v 5.058 h 1.431 v 0.711 h -3.69 v -0.711 z" /><path
           id="path520"
           style=""
           d="m 435.77372,-111.5125 h 0.765 v 0.855 h 0.072 q 0.117,-0.441 0.486,-0.693 0.369,-0.252 0.909,-0.252 0.783,0 1.224,0.495 0.45,0.486 0.45,1.341 v 0.279 h -0.81 v -0.18 q 0,-0.585 -0.297,-0.9 -0.288,-0.324 -0.828,-0.324 -0.531,0 -0.846,0.333 -0.315,0.324 -0.315,0.891 v 3.105 h -0.81 z" /><path
           id="path522"
           style=""
           d="m 440.32771,-108.0025 q 0,-0.351 0.117,-0.63 0.126,-0.288 0.351,-0.486 0.234,-0.198 0.558,-0.306 0.324,-0.108 0.729,-0.108 h 1.476 v -0.405 q 0,-0.459 -0.306,-0.711 -0.297,-0.261 -0.864,-0.261 -0.414,0 -0.711,0.153 -0.288,0.153 -0.387,0.423 h -0.81 q 0.126,-0.585 0.639,-0.927 0.522,-0.342 1.287,-0.342 0.918,0 1.44,0.432 0.522,0.423 0.522,1.188 v 3.42 h -0.738 v -0.945 h -0.072 q -0.117,0.477 -0.549,0.756 -0.432,0.279 -1.053,0.279 -0.747,0 -1.188,-0.414 -0.441,-0.414 -0.441,-1.116 z m 1.809,0.864 q 0.306,0 0.567,-0.081 0.261,-0.081 0.45,-0.225 0.189,-0.153 0.297,-0.351 0.108,-0.198 0.108,-0.432 v -0.675 h -1.458 q -0.45,0 -0.711,0.234 -0.252,0.234 -0.252,0.648 0,0.414 0.261,0.648 0.261,0.234 0.738,0.234 z" /><path
           id="path524"
           style=""
           d="m 445.55671,-106.5625 v -4.95 h 0.765 v 0.855 h 0.072 q 0.117,-0.45 0.468,-0.693 0.36,-0.252 0.891,-0.252 0.369,0 0.666,0.126 0.306,0.126 0.513,0.36 0.216,0.225 0.333,0.549 0.117,0.315 0.117,0.711 v 3.294 h -0.81 v -3.159 q 0,-0.567 -0.288,-0.882 -0.288,-0.315 -0.801,-0.315 -0.513,0 -0.819,0.342 -0.297,0.333 -0.297,0.909 v 3.105 z" /><path
           id="path526"
           style=""
           d="m 432.51572,-102.29656 q 0.846,0 1.359,0.468 0.522,0.459 0.621,1.287 h -0.81 q -0.054,-0.486 -0.369,-0.756 -0.306,-0.279 -0.801,-0.279 -0.54,0 -0.855,0.324 -0.315,0.324 -0.315,0.891 v 2.789998 q 0,0.566999 0.306,0.891 0.315,0.324 0.864,0.324 0.495,0 0.801,-0.270001 0.315,-0.279 0.369,-0.765 h 0.81 q -0.099,0.828 -0.621,1.296001 -0.513,0.459 -1.359,0.459 -0.459,0 -0.828,-0.135001 -0.36,-0.135 -0.621,-0.387 -0.252,-0.251999 -0.396,-0.611999 -0.135,-0.36 -0.135,-0.801 v -2.789998 q 0,-0.441 0.135,-0.801 0.144,-0.36 0.396,-0.612 0.261,-0.252 0.621,-0.387 0.369,-0.135 0.828,-0.135 z" /><path
           id="path528"
           style=""
           d="m 435.55772,-102.29656 h 0.81 v 1.62 q 0,0.126 -0.009,0.279 0,0.144 -0.009,0.27 -0.018,0.152997 -0.027,0.305998 h 0.072 q 0.117,-0.449998 0.468,-0.692998 0.36,-0.252 0.891,-0.252 0.369,0 0.666,0.126 0.306,0.126 0.513,0.36 0.216,0.225 0.333,0.548998 0.117,0.315 0.117,0.711 v 3.294 h -0.81 v -3.159001 q 0,-0.566999 -0.288,-0.881999 -0.288,-0.314998 -0.801,-0.314998 -0.513,0 -0.819,0.341998 -0.297,0.333 -0.297,0.908999 v 3.105001 h -0.81 z" /><path
           id="path530"
           style=""
           d="m 440.61571,-95.726562 v -0.738 h 1.8 v -3.474001 h -1.575 v -0.737997 h 2.385 v 4.211998 h 1.485 v 0.738 z m 1.98,-6.884998 h 0.18 q 0.261,0 0.423,0.153 0.162,0.153 0.162,0.396 0,0.243 -0.162,0.387 -0.162,0.144 -0.423,0.144 h -0.18 q -0.261,0 -0.423,-0.135 -0.162,-0.144 -0.162,-0.396 0,-0.243 0.162,-0.396 0.162,-0.153 0.423,-0.153 z" /><path
           id="path532"
           style=""
           d="m 445.55671,-95.726562 v -4.949998 h 0.765 v 0.854998 h 0.072 q 0.117,-0.449998 0.468,-0.692998 0.36,-0.252 0.891,-0.252 0.369,0 0.666,0.126 0.306,0.126 0.513,0.36 0.216,0.225 0.333,0.548998 0.117,0.315 0.117,0.711 v 3.294 h -0.81 v -3.159001 q 0,-0.566999 -0.288,-0.881999 -0.288,-0.314998 -0.801,-0.314998 -0.513,0 -0.819,0.341998 -0.297,0.333 -0.297,0.908999 v 3.105001 z" /><path
           id="path534"
           style=""
           d="m 450.3267,-97.166562 q 0,-0.351 0.117,-0.63 0.126,-0.288001 0.351,-0.486 0.234,-0.198001 0.558,-0.306 0.324,-0.108 0.729,-0.108 h 1.476 v -0.405 q 0,-0.459001 -0.306,-0.711 -0.297,-0.260998 -0.864,-0.260998 -0.414,0 -0.711,0.152997 -0.288,0.153001 -0.387,0.423001 h -0.81 q 0.126,-0.584998 0.639,-0.926998 0.522,-0.342 1.287,-0.342 0.918,0 1.44,0.432 0.522,0.422997 0.522,1.187997 v 3.420001 h -0.738 v -0.945 h -0.072 q -0.117,0.476999 -0.549,0.756 -0.432,0.279 -1.053,0.279 -0.747,0 -1.188,-0.414 -0.441,-0.414 -0.441,-1.116 z m 1.809,0.864 q 0.306,0 0.567,-0.081 0.261,-0.081 0.45,-0.225001 0.189,-0.152999 0.297,-0.351 0.108,-0.197999 0.108,-0.432 v -0.675 h -1.458 q -0.45,0 -0.711,0.234001 -0.252,0.234 -0.252,0.648 0,0.414 0.261,0.647999 0.261,0.234001 0.738,0.234001 z" /></g><path
         id="path34"
         style="fill:#fe4365;fill-opacity:1;fill-rule:nonzero;stroke:none"
         d="m 544.676,121.688 h 5.418 v 5.418 h -5.418 z" /><path
         id="path36"
         style="fill:#eca25c;fill-opacity:1;fill-rule:nonzero;stroke:none"
         d="m 544.676,132.52 h 5.418 v 5.418 h -5.418 z" /><path
         id="path38"
         style="fill:#3f9778;fill-opacity:1;fill-rule:nonzero;stroke:none"
         d="m 544.676,143.355 h 5.418 v 5.418 h -5.418 z" /><path
         id="path40"
         style="fill:#eedbff;fill-opacity:1;fill-rule:nonzero;stroke:none"
         d="m 544.676,154.191 h 5.418 v 5.418 h -5.418 z" /><path
         id="path42"
         style="fill:#236ead;fill-opacity:1;fill-rule:nonzero;stroke:none"
         d="m 544.676,165.023 h 5.418 v 5.418 h -5.418 z" /><path
         id="path44"
         style="fill:#60f6ff;fill-opacity:1;fill-rule:nonzero;stroke:none"
         d="m 544.676,175.859 h 5.418 v 5.418 h -5.418 z" /><path
         id="path46"
         style="fill:#d4ec9f;fill-opacity:1;fill-rule:nonzero;stroke:none"
         d="m 544.676,186.695 h 5.418 v 5.418 h -5.418 z" /></g><g
       id="g48"><g
         clip-path="url(#clipPath54)"
         id="g50"><path
           id="path56"
           style="fill:#222831;fill-opacity:1;fill-rule:nonzero;stroke:none"
           d="M 42.668,26.668 H 541.84 V 276.293 H 42.668 Z" /></g></g><g
       id="g58"><g
         clip-path="url(#clipPath64)"
         id="g60"><path
           id="path66"
           style="fill:none;stroke:#575757;stroke-width:0.749906;stroke-linecap:butt;stroke-linejoin:miter;stroke-miterlimit:10;stroke-dasharray:1.417323, 1.417323;stroke-dashoffset:0;stroke-opacity:1"
           d="M 42.668,226.609 H 541.84" /></g></g><g
       id="g68"><g
         clip-path="url(#clipPath74)"
         id="g70"><path
           id="path76"
           style="fill:none;stroke:#575757;stroke-width:0.749906;stroke-linecap:butt;stroke-linejoin:miter;stroke-miterlimit:10;stroke-dasharray:1.417323, 1.417323;stroke-dashoffset:0;stroke-opacity:1"
           d="M 42.668,155.961 H 541.84" /></g></g><g
       id="g78"><g
         clip-path="url(#clipPath84)"
         id="g80"><path
           id="path86"
           style="fill:none;stroke:#575757;stroke-width:0.749906;stroke-linecap:butt;stroke-linejoin:miter;stroke-miterlimit:10;stroke-dasharray:1.417323, 1.417323;stroke-dashoffset:0;stroke-opacity:1"
           d="M 42.668,85.309 H 541.84" /></g></g><g
       id="g88"><g
         clip-path="url(#clipPath94)"
         id="g90"><path
           id="path96"
           style="fill:none;stroke:#575757;stroke-width:0.749906;stroke-linecap:butt;stroke-linejoin:miter;stroke-miterlimit:10;stroke-dasharray:1.417323, 1.417323;stroke-dashoffset:0;stroke-opacity:1"
           d="M 128.164,26.668 V 276.293" /></g></g><g
       id="g98"><g
         clip-path="url(#clipPath104)"
         id="g100"><path
           id="path106"
           style="fill:none;stroke:#575757;stroke-width:0.749906;stroke-linecap:butt;stroke-linejoin:miter;stroke-miterlimit:10;stroke-dasharray:1.417323, 1.417323;stroke-dashoffset:0;stroke-opacity:1"
           d="M 216.863,26.668 V 276.293" /></g></g><g
       id="g108"><g
         clip-path="url(#clipPath114)"
         id="g110"><path
           id="path116"
           style="fill:none;stroke:#575757;stroke-width:0.749906;stroke-linecap:butt;stroke-linejoin:miter;stroke-miterlimit:10;stroke-dasharray:1.417323, 1.417323;stroke-dashoffset:0;stroke-opacity:1"
           d="M 305.559,26.668 V 276.293" /></g></g><g
       id="g118"><g
         clip-path="url(#clipPath124)"
         id="g120"><path
           id="path126"
           style="fill:none;stroke:#575757;stroke-width:0.749906;stroke-linecap:butt;stroke-linejoin:miter;stroke-miterlimit:10;stroke-dasharray:1.417323, 1.417323;stroke-dashoffset:0;stroke-opacity:1"
           d="M 394.254,26.668 V 276.293" /></g></g><g
       id="g128"><g
         clip-path="url(#clipPath134)"
         id="g130"><path
           id="path136"
           style="fill:none;stroke:#575757;stroke-width:0.749906;stroke-linecap:butt;stroke-linejoin:miter;stroke-miterlimit:10;stroke-dasharray:1.417323, 1.417323;stroke-dashoffset:0;stroke-opacity:1"
           d="M 482.953,26.668 V 276.293" /></g></g><g
       id="g138"><path
         id="path140"
         style="fill:none;stroke:#fe4365;stroke-width:1.49981296;stroke-linecap:butt;stroke-linejoin:miter;stroke-miterlimit:10;stroke-dasharray:none;stroke-opacity:1"
         d="m 48.336,220.668 8.871,0.016 8.871,-3.012 8.867,-4.805 8.871,-4.988 8.872,-3.406 8.867,2.757 8.871,-0.582 8.867,-5.836 8.871,-6.046 8.871,-2.739 8.867,0.703" /><path
         id="path142"
         style="fill:none;stroke:#eedbff;stroke-width:1.49981296;stroke-linecap:butt;stroke-linejoin:miter;stroke-miterlimit:10;stroke-dasharray:none;stroke-opacity:1"
         d="m 48.336,225.512 8.871,-2.629 8.871,-3.039 8.867,-3.317 17.743,-2.125 8.867,0.567 8.871,-0.977 8.867,-2.945 8.871,-3.262 8.871,-2.437 8.867,-1.227 8.871,-0.348" /><path
         id="path144"
         style="fill:none;stroke:#60f6ff;stroke-width:1.49981296;stroke-linecap:butt;stroke-linejoin:miter;stroke-miterlimit:10;stroke-dasharray:none;stroke-opacity:1"
         d="m 48.336,218.703 8.871,0.332 8.871,0.465 8.867,0.523 8.871,0.477 8.872,0.344 8.867,0.238 8.871,-0.594 8.867,-1.211 8.871,-3.238 8.871,-2.426 8.867,0.473 8.871,1.629 8.872,0.902 8.867,0.813 8.871,1.078 8.871,1.172 8.867,1.152 8.871,1.199" /><path
         id="path146"
         style="fill:none;stroke:#d4ec9f;stroke-width:1.49981296;stroke-linecap:butt;stroke-linejoin:miter;stroke-miterlimit:10;stroke-dasharray:none;stroke-opacity:1"
         d="m 48.336,224.414 8.871,-6.344 8.871,-5.871 8.867,-5.383 8.871,-4.898 8.872,-4.398 8.867,-3.891 8.871,-3.383 8.867,-2.867 8.871,-2.352 8.871,-1.808 8.867,-1.285 8.871,-0.735 8.872,-0.183 8.867,0.402 8.871,0.988 8.871,1.516 8.867,2.285 8.871,2.809 8.871,3.379 8.867,3.976 8.872,4.852 8.867,5.593 8.871,5.618 8.871,6.203 8.867,6.445 8.871,6.527 8.871,6.715 8.868,5.992 8.871,5.262 8.871,4.86 8.867,3.031 8.871,2.508 8.871,1.375 8.867,0.187 8.871,-0.227 8.868,-0.503 8.871,-0.649 8.871,-0.637 8.867,-0.804 8.871,-0.836 8.871,-0.914 8.867,-1.024 8.871,-1.156 8.871,-1.285 8.868,-1.41 8.871,-1.535 8.871,-1.649 8.867,-1.754 8.871,-1.851 8.867,-1.934 8.871,-2.008 8.871,-2.082 8.868,-2.136 8.871,-2.192 8.871,-2.23" /><path
         id="path148"
         style="fill:none;stroke:#236ead;stroke-width:1.49981296;stroke-linecap:butt;stroke-linejoin:miter;stroke-miterlimit:10;stroke-dasharray:none;stroke-opacity:1"
         d="m 48.336,222.227 8.871,-0.118 8.871,-0.574 8.867,-0.992 8.871,-1.363 8.872,-1.688 8.867,-2.008 8.871,-2.382 8.867,-1.551 8.871,-3.145 8.871,-5.187 8.867,-6.805 17.743,-10.629 8.867,0.242 8.871,-1.117 8.871,-2.551 8.867,-3.707 8.871,-4.871 8.871,-6.406 8.867,-8.492" /><path
         id="path150"
         style="fill:none;stroke:#3f9778;stroke-width:1.49981296;stroke-linecap:butt;stroke-linejoin:miter;stroke-miterlimit:10;stroke-dasharray:none;stroke-opacity:1"
         d="m 48.336,222.047 8.871,-0.645 8.871,-1.129 8.867,-1.589 8.871,-3.102 8.872,-4.516 8.867,-3.046 8.871,-19.051 8.867,-21.586 8.871,-25.149" /><path
         id="path152"
         style="fill:none;stroke:#eca25c;stroke-width:1.49981296;stroke-linecap:butt;stroke-linejoin:miter;stroke-miterlimit:10;stroke-dasharray:none;stroke-opacity:1"
         d="m 48.336,223.441 8.871,0.571 8.871,-0.871 8.867,-2.286 8.871,-3.652 8.872,-3.715 8.867,-2.902 8.871,-1.02 8.867,-4.363 8.871,-6.98 8.871,-8.743 8.867,-10.824 8.871,-12.715" /><path
         id="path154"
         style="fill:#d4ec9f;fill-opacity:1;fill-rule:nonzero;stroke:none"
         d="m 539.172,235.668 c 0,4 -6,4 -6,0 0,-4 6,-4 6,0" /><path
         id="path156"
         style="fill:#d4ec9f;fill-opacity:1;fill-rule:nonzero;stroke:none"
         d="m 530.301,236.98 c 0,4 -6,4 -6,0 0,-4 6,-4 6,0" /><path
         id="path158"
         style="fill:#d4ec9f;fill-opacity:1;fill-rule:nonzero;stroke:none"
         d="m 521.43,239.668 c 0,4 -6,4 -6,0 0,-4 6,-4 6,0" /><path
         id="path160"
         style="fill:#d4ec9f;fill-opacity:1;fill-rule:nonzero;stroke:none"
         d="m 512.562,238.988 c 0,4 -6,4 -6,0 0,-4 6,-4 6,0" /><path
         id="path162"
         style="fill:#d4ec9f;fill-opacity:1;fill-rule:nonzero;stroke:none"
         d="m 503.691,239.004 c 0,4 -6,4 -6,0 0,-4 6,-4 6,0" /><path
         id="path164"
         style="fill:#d4ec9f;fill-opacity:1;fill-rule:nonzero;stroke:none"
         d="m 494.82,245.559 c 0,4 -5.996,4 -5.996,0 0,-4 5.996,-4 5.996,0" /><path
         id="path166"
         style="fill:#d4ec9f;fill-opacity:1;fill-rule:nonzero;stroke:none"
         d="m 485.953,247.027 c 0,4 -6,4 -6,0 0,-4 6,-4 6,0" /><path
         id="path168"
         style="fill:#d4ec9f;fill-opacity:1;fill-rule:nonzero;stroke:none"
         d="m 477.082,244.84 c 0,3.996 -6,3.996 -6,0 0,-4 6,-4 6,0" /><path
         id="path170"
         style="fill:#d4ec9f;fill-opacity:1;fill-rule:nonzero;stroke:none"
         d="m 468.211,244.371 c 0,4 -5.996,4 -5.996,0 0,-4 5.996,-4 5.996,0" /><path
         id="path172"
         style="fill:#d4ec9f;fill-opacity:1;fill-rule:nonzero;stroke:none"
         d="m 459.344,247.113 c 0,4 -6,4 -6,0 0,-4 6,-4 6,0" /><path
         id="path174"
         style="fill:#d4ec9f;fill-opacity:1;fill-rule:nonzero;stroke:none"
         d="m 450.473,245.91 c 0,4 -6,4 -6,0 0,-3.996 6,-3.996 6,0" /><path
         id="path176"
         style="fill:#d4ec9f;fill-opacity:1;fill-rule:nonzero;stroke:none"
         d="m 441.605,246.422 c 0,4 -6,4 -6,0 0,-4 6,-4 6,0" /><path
         id="path178"
         style="fill:#d4ec9f;fill-opacity:1;fill-rule:nonzero;stroke:none"
         d="m 432.734,252.383 c 0,4 -6,4 -6,0 0,-4 6,-4 6,0" /><path
         id="path180"
         style="fill:#d4ec9f;fill-opacity:1;fill-rule:nonzero;stroke:none"
         d="m 423.863,248.414 c 0,4 -6,4 -6,0 0,-4 6,-4 6,0" /><path
         id="path182"
         style="fill:#d4ec9f;fill-opacity:1;fill-rule:nonzero;stroke:none"
         d="m 414.996,248.199 c 0,4 -6,4 -6,0 0,-3.996 6,-3.996 6,0" /><path
         id="path184"
         style="fill:#d4ec9f;fill-opacity:1;fill-rule:nonzero;stroke:none"
         d="m 406.125,257.301 c 0,4 -6,4 -6,0 0,-4 6,-4 6,0" /><path
         id="path186"
         style="fill:#d4ec9f;fill-opacity:1;fill-rule:nonzero;stroke:none"
         d="m 397.254,261.398 c 0,4 -6,4 -6,0 0,-4 6,-4 6,0" /><path
         id="path188"
         style="fill:#d4ec9f;fill-opacity:1;fill-rule:nonzero;stroke:none"
         d="m 388.387,261.992 c 0,4 -6,4 -6,0 0,-4 6,-4 6,0" /><path
         id="path190"
         style="fill:#d4ec9f;fill-opacity:1;fill-rule:nonzero;stroke:none"
         d="m 379.516,262.359 c 0,4 -6,4 -6,0 0,-4 6,-4 6,0" /><path
         id="path192"
         style="fill:#d4ec9f;fill-opacity:1;fill-rule:nonzero;stroke:none"
         d="m 370.645,259.125 c 0,4 -5.997,4 -5.997,0 0,-4 5.997,-4 5.997,0" /><path
         id="path194"
         style="fill:#d4ec9f;fill-opacity:1;fill-rule:nonzero;stroke:none"
         d="m 361.777,263.488 c 0,4 -6,4 -6,0 0,-3.996 6,-3.996 6,0" /><path
         id="path196"
         style="fill:#d4ec9f;fill-opacity:1;fill-rule:nonzero;stroke:none"
         d="m 352.906,270.625 c 0,4 -6,4 -6,0 0,-4 6,-4 6,0" /><path
         id="path198"
         style="fill:#d4ec9f;fill-opacity:1;fill-rule:nonzero;stroke:none"
         d="m 344.035,261.102 c 0,4 -5.996,4 -5.996,0 0,-4 5.996,-4 5.996,0" /><path
         id="path200"
         style="fill:#d4ec9f;fill-opacity:1;fill-rule:nonzero;stroke:none"
         d="m 335.168,255.547 c 0,4 -6,4 -6,0 0,-3.996 6,-3.996 6,0" /><path
         id="path202"
         style="fill:#d4ec9f;fill-opacity:1;fill-rule:nonzero;stroke:none"
         d="m 326.297,257.949 c 0,4 -6,4 -6,0 0,-3.996 6,-3.996 6,0" /><path
         id="path204"
         style="fill:#d4ec9f;fill-opacity:1;fill-rule:nonzero;stroke:none"
         d="m 317.426,251.465 c 0,4 -5.996,4 -5.996,0 0,-4 5.996,-4 5.996,0" /><path
         id="path206"
         style="fill:#d4ec9f;fill-opacity:1;fill-rule:nonzero;stroke:none"
         d="m 308.559,233.238 c 0,4 -6,4 -6,0 0,-4 6,-4 6,0" /><path
         id="path208"
         style="fill:#d4ec9f;fill-opacity:1;fill-rule:nonzero;stroke:none"
         d="m 299.688,265.453 c 0,4 -6,4 -6,0 0,-4 6,-4 6,0" /><path
         id="path210"
         style="fill:#d4ec9f;fill-opacity:1;fill-rule:nonzero;stroke:none"
         d="m 290.82,229.676 c 0,4 -6,4 -6,0 0,-4 6,-4 6,0" /><path
         id="path212"
         style="fill:#d4ec9f;fill-opacity:1;fill-rule:nonzero;stroke:none"
         d="m 281.949,250.859 c 0,3.996 -6,3.996 -6,0 0,-4 6,-4 6,0" /><path
         id="path214"
         style="fill:#d4ec9f;fill-opacity:1;fill-rule:nonzero;stroke:none"
         d="m 273.078,247.254 c 0,4 -6,4 -6,0 0,-4 6,-4 6,0" /><path
         id="path216"
         style="fill:#d4ec9f;fill-opacity:1;fill-rule:nonzero;stroke:none"
         d="m 264.211,228.109 c 0,4 -6,4 -6,0 0,-4 6,-4 6,0" /><path
         id="path218"
         style="fill:#d4ec9f;fill-opacity:1;fill-rule:nonzero;stroke:none"
         d="m 255.34,224.973 c 0,4 -6,4 -6,0 0,-4 6,-4 6,0" /><path
         id="path220"
         style="fill:#d4ec9f;fill-opacity:1;fill-rule:nonzero;stroke:none"
         d="m 246.469,218.98 c 0,4 -5.996,4 -5.996,0 0,-4 5.996,-4 5.996,0" /><path
         id="path222"
         style="fill:#d4ec9f;fill-opacity:1;fill-rule:nonzero;stroke:none"
         d="m 237.602,218.246 c 0,4 -6,4 -6,0 0,-4 6,-4 6,0" /><path
         id="path224"
         style="fill:#d4ec9f;fill-opacity:1;fill-rule:nonzero;stroke:none"
         d="m 228.73,162.305 c 0,4 -6,4 -6,0 0,-4 6,-4 6,0" /><path
         id="path226"
         style="fill:#d4ec9f;fill-opacity:1;fill-rule:nonzero;stroke:none"
         d="m 219.859,32.336 c 0,4 -5.996,4 -5.996,0 0,-4 5.996,-4 5.996,0" /><path
         id="path228"
         style="fill:#d4ec9f;fill-opacity:1;fill-rule:nonzero;stroke:none"
         d="m 210.992,227.711 c 0,4 -6,4 -6,0 0,-3.996 6,-3.996 6,0" /><path
         id="path230"
         style="fill:#d4ec9f;fill-opacity:1;fill-rule:nonzero;stroke:none"
         d="m 202.121,209.457 c 0,4 -6,4 -6,0 0,-4 6,-4 6,0" /><path
         id="path232"
         style="fill:#d4ec9f;fill-opacity:1;fill-rule:nonzero;stroke:none"
         d="m 193.25,202.32 c 0,4 -5.996,4 -5.996,0 0,-4 5.996,-4 5.996,0" /><path
         id="path234"
         style="fill:#d4ec9f;fill-opacity:1;fill-rule:nonzero;stroke:none"
         d="m 184.383,194.223 c 0,4 -6,4 -6,0 0,-3.996 6,-3.996 6,0" /><path
         id="path236"
         style="fill:#d4ec9f;fill-opacity:1;fill-rule:nonzero;stroke:none"
         d="m 175.512,198.066 c 0,4 -6,4 -6,0 0,-3.996 6,-3.996 6,0" /><path
         id="path238"
         style="fill:#d4ec9f;fill-opacity:1;fill-rule:nonzero;stroke:none"
         d="m 166.645,185.406 c 0,4 -6,4 -6,0 0,-4 6,-4 6,0" /><path
         id="path240"
         style="fill:#d4ec9f;fill-opacity:1;fill-rule:nonzero;stroke:none"
         d="m 157.773,188.246 c 0,4 -6,4 -6,0 0,-4 6,-4 6,0" /><path
         id="path242"
         style="fill:#d4ec9f;fill-opacity:1;fill-rule:nonzero;stroke:none"
         d="m 148.902,178.723 c 0,4 -6,4 -6,0 0,-4 6,-4 6,0" /><path
         id="path244"
         style="fill:#d4ec9f;fill-opacity:1;fill-rule:nonzero;stroke:none"
         d="m 140.035,174.387 c 0,4 -6,4 -6,0 0,-4 6,-4 6,0" /><path
         id="path246"
         style="fill:#d4ec9f;fill-opacity:1;fill-rule:nonzero;stroke:none"
         d="m 131.164,186.043 c 0,4 -6,4 -6,0 0,-4 6,-4 6,0" /><path
         id="path248"
         style="fill:#d4ec9f;fill-opacity:1;fill-rule:nonzero;stroke:none"
         d="m 122.293,163.746 c 0,4 -5.996,4 -5.996,0 0,-4 5.996,-4 5.996,0" /><path
         id="path250"
         style="fill:#d4ec9f;fill-opacity:1;fill-rule:nonzero;stroke:none"
         d="m 113.426,198.605 c 0,4 -6,4 -6,0 0,-4 6,-4 6,0" /><path
         id="path252"
         style="fill:#d4ec9f;fill-opacity:1;fill-rule:nonzero;stroke:none"
         d="m 104.555,204.852 c 0,4 -6,4 -6,0 0,-4 6,-4 6,0" /><path
         id="path254"
         style="fill:#d4ec9f;fill-opacity:1;fill-rule:nonzero;stroke:none"
         d="m 95.684,198.336 c 0,4 -5.996,4 -5.996,0 0,-4 5.996,-4 5.996,0" /><path
         id="path256"
         style="fill:#d4ec9f;fill-opacity:1;fill-rule:nonzero;stroke:none"
         d="m 86.816,218.738 c 0,4 -6,4 -6,0 0,-3.996 6,-3.996 6,0" /><path
         id="path258"
         style="fill:#d4ec9f;fill-opacity:1;fill-rule:nonzero;stroke:none"
         d="m 77.945,190.719 c 0,4 -6,4 -6,0 0,-3.996 6,-3.996 6,0" /><path
         id="path260"
         style="fill:#d4ec9f;fill-opacity:1;fill-rule:nonzero;stroke:none"
         d="m 69.074,215.773 c 0,4 -5.996,4 -5.996,0 0,-4 5.996,-4 5.996,0" /><path
         id="path262"
         style="fill:#d4ec9f;fill-opacity:1;fill-rule:nonzero;stroke:none"
         d="m 60.207,217.496 c 0,4 -6,4 -6,0 0,-4 6,-4 6,0" /><path
         id="path264"
         style="fill:#d4ec9f;fill-opacity:1;fill-rule:nonzero;stroke:none"
         d="m 51.336,220.012 c 0,4 -6,4 -6,0 0,-4 6,-4 6,0" /><path
         id="path266"
         style="fill:#60f6ff;fill-opacity:1;fill-rule:nonzero;stroke:none"
         d="m 210.992,225.863 c 0,3.996 -6,3.996 -6,0 0,-4 6,-4 6,0" /><path
         id="path268"
         style="fill:#60f6ff;fill-opacity:1;fill-rule:nonzero;stroke:none"
         d="m 202.121,218.473 c 0,4 -6,4 -6,0 0,-4 6,-4 6,0" /><path
         id="path270"
         style="fill:#60f6ff;fill-opacity:1;fill-rule:nonzero;stroke:none"
         d="m 193.25,211.844 c 0,4 -5.996,4 -5.996,0 0,-4 5.996,-4 5.996,0" /><path
         id="path272"
         style="fill:#60f6ff;fill-opacity:1;fill-rule:nonzero;stroke:none"
         d="m 184.383,223.164 c 0,4 -6,4 -6,0 0,-4 6,-4 6,0" /><path
         id="path274"
         style="fill:#60f6ff;fill-opacity:1;fill-rule:nonzero;stroke:none"
         d="m 175.512,213.555 c 0,4 -6,4 -6,0 0,-4 6,-4 6,0" /><path
         id="path276"
         style="fill:#60f6ff;fill-opacity:1;fill-rule:nonzero;stroke:none"
         d="m 166.645,234.172 c 0,3.996 -6,3.996 -6,0 0,-4 6,-4 6,0" /><path
         id="path278"
         style="fill:#60f6ff;fill-opacity:1;fill-rule:nonzero;stroke:none"
         d="m 157.773,208.695 c 0,3.996 -6,3.996 -6,0 0,-4 6,-4 6,0" /><path
         id="path280"
         style="fill:#60f6ff;fill-opacity:1;fill-rule:nonzero;stroke:none"
         d="m 148.902,209.598 c 0,4 -6,4 -6,0 0,-4 6,-4 6,0" /><path
         id="path282"
         style="fill:#60f6ff;fill-opacity:1;fill-rule:nonzero;stroke:none"
         d="m 140.035,212.48 c 0,4 -6,4 -6,0 0,-4 6,-4 6,0" /><path
         id="path284"
         style="fill:#60f6ff;fill-opacity:1;fill-rule:nonzero;stroke:none"
         d="m 131.164,217.188 c 0,3.996 -6,3.996 -6,0 0,-4 6,-4 6,0" /><path
         id="path286"
         style="fill:#60f6ff;fill-opacity:1;fill-rule:nonzero;stroke:none"
         d="m 122.293,219.688 c 0,4 -5.996,4 -5.996,0 0,-4 5.996,-4 5.996,0" /><path
         id="path288"
         style="fill:#60f6ff;fill-opacity:1;fill-rule:nonzero;stroke:none"
         d="m 113.426,222.484 c 0,4 -6,4 -6,0 0,-4 6,-4 6,0" /><path
         id="path290"
         style="fill:#60f6ff;fill-opacity:1;fill-rule:nonzero;stroke:none"
         d="m 104.555,223.375 c 0,4 -6,4 -6,0 0,-4 6,-4 6,0" /><path
         id="path292"
         style="fill:#60f6ff;fill-opacity:1;fill-rule:nonzero;stroke:none"
         d="m 95.684,222.387 c 0,4 -5.996,4 -5.996,0 0,-4 5.996,-4 5.996,0" /><path
         id="path294"
         style="fill:#60f6ff;fill-opacity:1;fill-rule:nonzero;stroke:none"
         d="m 86.816,211.871 c 0,4 -6,4 -6,0 0,-3.996 6,-3.996 6,0" /><path
         id="path296"
         style="fill:#60f6ff;fill-opacity:1;fill-rule:nonzero;stroke:none"
         d="m 77.945,221.113 c 0,4 -6,4 -6,0 0,-4 6,-4 6,0" /><path
         id="path298"
         style="fill:#60f6ff;fill-opacity:1;fill-rule:nonzero;stroke:none"
         d="m 69.074,222.23 c 0,4 -5.996,4 -5.996,0 0,-4 5.996,-4 5.996,0" /><path
         id="path300"
         style="fill:#60f6ff;fill-opacity:1;fill-rule:nonzero;stroke:none"
         d="m 60.207,214.969 c 0,4 -6,4 -6,0 0,-4 6,-4 6,0" /><path
         id="path302"
         style="fill:#60f6ff;fill-opacity:1;fill-rule:nonzero;stroke:none"
         d="m 51.336,221.027 c 0,4 -6,4 -6,0 0,-3.996 6,-3.996 6,0" /><path
         id="path304"
         style="fill:#236ead;fill-opacity:1;fill-rule:nonzero;stroke:none"
         d="m 228.73,150.887 c 0,4 -6,4 -6,0 0,-4 6,-4 6,0" /><path
         id="path306"
         style="fill:#236ead;fill-opacity:1;fill-rule:nonzero;stroke:none"
         d="m 219.859,163.309 c 0,4 -5.996,4 -5.996,0 0,-4 5.996,-4 5.996,0" /><path
         id="path308"
         style="fill:#236ead;fill-opacity:1;fill-rule:nonzero;stroke:none"
         d="m 210.992,189.195 c 0,4 -6,4 -6,0 0,-4 6,-4 6,0" /><path
         id="path310"
         style="fill:#236ead;fill-opacity:1;fill-rule:nonzero;stroke:none"
         d="m 202.121,184.375 c 0,4 -6,4 -6,0 0,-4 6,-4 6,0" /><path
         id="path312"
         style="fill:#236ead;fill-opacity:1;fill-rule:nonzero;stroke:none"
         d="m 193.25,191.711 c 0,3.996 -5.996,3.996 -5.996,0 0,-4 5.996,-4 5.996,0" /><path
         id="path314"
         style="fill:#236ead;fill-opacity:1;fill-rule:nonzero;stroke:none"
         d="m 184.383,186.297 c 0,4 -6,4 -6,0 0,-4 6,-4 6,0" /><path
         id="path316"
         style="fill:#236ead;fill-opacity:1;fill-rule:nonzero;stroke:none"
         d="m 175.512,187.117 c 0,4 -6,4 -6,0 0,-4 6,-4 6,0" /><path
         id="path318"
         style="fill:#236ead;fill-opacity:1;fill-rule:nonzero;stroke:none"
         d="m 166.645,164.934 c 0,4 -6,4 -6,0 0,-4 6,-4 6,0" /><path
         id="path320"
         style="fill:#236ead;fill-opacity:1;fill-rule:nonzero;stroke:none"
         d="m 148.902,201.234 c 0,4 -6,4 -6,0 0,-4 6,-4 6,0" /><path
         id="path322"
         style="fill:#236ead;fill-opacity:1;fill-rule:nonzero;stroke:none"
         d="m 140.035,215.18 c 0,4 -6,4 -6,0 0,-4 6,-4 6,0" /><path
         id="path324"
         style="fill:#236ead;fill-opacity:1;fill-rule:nonzero;stroke:none"
         d="m 131.164,204.031 c 0,4 -6,4 -6,0 0,-4 6,-4 6,0" /><path
         id="path326"
         style="fill:#236ead;fill-opacity:1;fill-rule:nonzero;stroke:none"
         d="m 122.293,207.875 c 0,4 -5.996,4 -5.996,0 0,-4 5.996,-4 5.996,0" /><path
         id="path328"
         style="fill:#236ead;fill-opacity:1;fill-rule:nonzero;stroke:none"
         d="m 113.426,210.43 c 0,4 -6,4 -6,0 0,-3.996 6,-3.996 6,0" /><path
         id="path330"
         style="fill:#236ead;fill-opacity:1;fill-rule:nonzero;stroke:none"
         d="m 104.555,217.852 c 0,3.996 -6,3.996 -6,0 0,-4 6,-4 6,0" /><path
         id="path332"
         style="fill:#236ead;fill-opacity:1;fill-rule:nonzero;stroke:none"
         d="m 95.684,218.273 c 0,4 -5.996,4 -5.996,0 0,-4 5.996,-4 5.996,0" /><path
         id="path334"
         style="fill:#236ead;fill-opacity:1;fill-rule:nonzero;stroke:none"
         d="m 86.816,220.352 c 0,4 -6,4 -6,0 0,-4 6,-4 6,0" /><path
         id="path336"
         style="fill:#236ead;fill-opacity:1;fill-rule:nonzero;stroke:none"
         d="m 77.945,220.562 c 0,4 -6,4 -6,0 0,-4 6,-4 6,0" /><path
         id="path338"
         style="fill:#236ead;fill-opacity:1;fill-rule:nonzero;stroke:none"
         d="m 69.074,222.965 c 0,4 -5.996,4 -5.996,0 0,-4 5.996,-4 5.996,0" /><path
         id="path340"
         style="fill:#236ead;fill-opacity:1;fill-rule:nonzero;stroke:none"
         d="m 60.207,219.207 c 0,4 -6,4 -6,0 0,-4 6,-4 6,0" /><path
         id="path342"
         style="fill:#236ead;fill-opacity:1;fill-rule:nonzero;stroke:none"
         d="m 51.336,223.332 c 0,4 -6,4 -6,0 0,-4 6,-4 6,0" /><path
         id="path344"
         style="fill:#eedbff;fill-opacity:1;fill-rule:nonzero;stroke:none"
         d="m 157.773,204.398 c 0,4 -6,4 -6,0 0,-4 6,-4 6,0" /><path
         id="path346"
         style="fill:#eedbff;fill-opacity:1;fill-rule:nonzero;stroke:none"
         d="m 148.902,201.926 c 0,4 -6,4 -6,0 0,-4 6,-4 6,0" /><path
         id="path348"
         style="fill:#eedbff;fill-opacity:1;fill-rule:nonzero;stroke:none"
         d="m 140.035,206.742 c 0,4 -6,4 -6,0 0,-3.996 6,-3.996 6,0" /><path
         id="path350"
         style="fill:#eedbff;fill-opacity:1;fill-rule:nonzero;stroke:none"
         d="m 131.164,212.043 c 0,4 -6,4 -6,0 0,-4 6,-4 6,0" /><path
         id="path352"
         style="fill:#eedbff;fill-opacity:1;fill-rule:nonzero;stroke:none"
         d="m 122.293,197.105 c 0,4 -5.996,4 -5.996,0 0,-3.996 5.996,-3.996 5.996,0" /><path
         id="path354"
         style="fill:#eedbff;fill-opacity:1;fill-rule:nonzero;stroke:none"
         d="m 113.426,226.102 c 0,4 -6,4 -6,0 0,-4 6,-4 6,0" /><path
         id="path356"
         style="fill:#eedbff;fill-opacity:1;fill-rule:nonzero;stroke:none"
         d="m 104.555,215.348 c 0,4 -6,4 -6,0 0,-4 6,-4 6,0" /><path
         id="path358"
         style="fill:#eedbff;fill-opacity:1;fill-rule:nonzero;stroke:none"
         d="m 95.684,207.438 c 0,4 -5.996,4 -5.996,0 0,-4 5.996,-4 5.996,0" /><path
         id="path360"
         style="fill:#eedbff;fill-opacity:1;fill-rule:nonzero;stroke:none"
         d="m 77.945,219.785 c 0,4 -6,4 -6,0 0,-4 6,-4 6,0" /><path
         id="path362"
         style="fill:#eedbff;fill-opacity:1;fill-rule:nonzero;stroke:none"
         d="m 69.074,218.684 c 0,4 -5.996,4 -5.996,0 0,-4 5.996,-4 5.996,0" /><path
         id="path364"
         style="fill:#eedbff;fill-opacity:1;fill-rule:nonzero;stroke:none"
         d="m 60.207,225.438 c 0,4 -6,4 -6,0 0,-4 6,-4 6,0" /><path
         id="path366"
         style="fill:#eedbff;fill-opacity:1;fill-rule:nonzero;stroke:none"
         d="m 51.336,224.223 c 0,4 -6,4 -6,0 0,-4 6,-4 6,0" /><path
         id="path368"
         style="fill:#3f9778;fill-opacity:1;fill-rule:nonzero;stroke:none"
         d="m 131.164,150.605 c 0,4 -6,4 -6,0 0,-4 6,-4 6,0" /><path
         id="path370"
         style="fill:#3f9778;fill-opacity:1;fill-rule:nonzero;stroke:none"
         d="m 122.293,144.488 c 0,4 -5.996,4 -5.996,0 0,-4 5.996,-4 5.996,0" /><path
         id="path372"
         style="fill:#3f9778;fill-opacity:1;fill-rule:nonzero;stroke:none"
         d="m 113.426,207.266 c 0,4 -6,4 -6,0 0,-4 6,-4 6,0" /><path
         id="path374"
         style="fill:#3f9778;fill-opacity:1;fill-rule:nonzero;stroke:none"
         d="m 104.555,201.656 c 0,4 -6,4 -6,0 0,-4 6,-4 6,0" /><path
         id="path376"
         style="fill:#3f9778;fill-opacity:1;fill-rule:nonzero;stroke:none"
         d="m 95.684,210.984 c 0,3.996 -5.996,3.996 -5.996,0 0,-4 5.996,-4 5.996,0" /><path
         id="path378"
         style="fill:#3f9778;fill-opacity:1;fill-rule:nonzero;stroke:none"
         d="m 86.816,215.828 c 0,4 -6,4 -6,0 0,-4 6,-4 6,0" /><path
         id="path380"
         style="fill:#3f9778;fill-opacity:1;fill-rule:nonzero;stroke:none"
         d="m 77.945,218.965 c 0,4 -6,4 -6,0 0,-4 6,-4 6,0" /><path
         id="path382"
         style="fill:#3f9778;fill-opacity:1;fill-rule:nonzero;stroke:none"
         d="m 69.074,219.418 c 0,4 -5.996,4 -5.996,0 0,-4 5.996,-4 5.996,0" /><path
         id="path384"
         style="fill:#3f9778;fill-opacity:1;fill-rule:nonzero;stroke:none"
         d="m 60.207,221.324 c 0,4 -6,4 -6,0 0,-3.996 6,-3.996 6,0" /><path
         id="path386"
         style="fill:#3f9778;fill-opacity:1;fill-rule:nonzero;stroke:none"
         d="m 51.336,222.172 c 0,4 -6,4 -6,0 0,-3.996 6,-3.996 6,0" /><path
         id="path388"
         style="fill:#eca25c;fill-opacity:1;fill-rule:nonzero;stroke:none"
         d="m 157.773,163.902 c 0,4 -6,4 -6,0 0,-4 6,-4 6,0" /><path
         id="path390"
         style="fill:#eca25c;fill-opacity:1;fill-rule:nonzero;stroke:none"
         d="m 148.902,184.66 c 0,3.996 -6,3.996 -6,0 0,-4 6,-4 6,0" /><path
         id="path392"
         style="fill:#eca25c;fill-opacity:1;fill-rule:nonzero;stroke:none"
         d="m 140.035,183.824 c 0,4 -6,4 -6,0 0,-4 6,-4 6,0" /><path
         id="path394"
         style="fill:#eca25c;fill-opacity:1;fill-rule:nonzero;stroke:none"
         d="m 131.164,198.66 c 0,4 -6,4 -6,0 0,-4 6,-4 6,0" /><path
         id="path396"
         style="fill:#eca25c;fill-opacity:1;fill-rule:nonzero;stroke:none"
         d="m 122.293,206.121 c 0,4 -5.996,4 -5.996,0 0,-4 5.996,-4 5.996,0" /><path
         id="path398"
         style="fill:#eca25c;fill-opacity:1;fill-rule:nonzero;stroke:none"
         d="m 113.426,209.543 c 0,3.996 -6,3.996 -6,0 0,-4 6,-4 6,0" /><path
         id="path400"
         style="fill:#eca25c;fill-opacity:1;fill-rule:nonzero;stroke:none"
         d="m 104.555,213.781 c 0,4 -6,4 -6,0 0,-4 6,-4 6,0" /><path
         id="path402"
         style="fill:#eca25c;fill-opacity:1;fill-rule:nonzero;stroke:none"
         d="m 95.684,204.398 c 0,4 -5.996,4 -5.996,0 0,-4 5.996,-4 5.996,0" /><path
         id="path404"
         style="fill:#eca25c;fill-opacity:1;fill-rule:nonzero;stroke:none"
         d="m 86.816,224.207 c 0,4 -6,4 -6,0 0,-4 6,-4 6,0" /><path
         id="path406"
         style="fill:#eca25c;fill-opacity:1;fill-rule:nonzero;stroke:none"
         d="m 77.945,220.352 c 0,4 -6,4 -6,0 0,-4 6,-4 6,0" /><path
         id="path408"
         style="fill:#eca25c;fill-opacity:1;fill-rule:nonzero;stroke:none"
         d="m 69.074,222.641 c 0,4 -5.996,4 -5.996,0 0,-4 5.996,-4 5.996,0" /><path
         id="path410"
         style="fill:#eca25c;fill-opacity:1;fill-rule:nonzero;stroke:none"
         d="m 60.207,224.719 c 0,3.996 -6,3.996 -6,0 0,-4 6,-4 6,0" /><path
         id="path412"
         style="fill:#eca25c;fill-opacity:1;fill-rule:nonzero;stroke:none"
         d="m 51.336,223.207 c 0,3.996 -6,3.996 -6,0 0,-4 6,-4 6,0" /><path
         id="path414"
         style="fill:#fe4365;fill-opacity:1;fill-rule:nonzero;stroke:none"
         d="m 148.902,201.84 c 0,4 -6,4 -6,0 0,-4 6,-4 6,0" /><path
         id="path416"
         style="fill:#fe4365;fill-opacity:1;fill-rule:nonzero;stroke:none"
         d="m 140.035,172.633 c 0,4 -6,4 -6,0 0,-4 6,-4 6,0" /><path
         id="path418"
         style="fill:#fe4365;fill-opacity:1;fill-rule:nonzero;stroke:none"
         d="m 131.164,198.082 c 0,4 -6,4 -6,0 0,-4 6,-4 6,0" /><path
         id="path420"
         style="fill:#fe4365;fill-opacity:1;fill-rule:nonzero;stroke:none"
         d="m 122.293,210.828 c 0,4 -5.996,4 -5.996,0 0,-4 5.996,-4 5.996,0" /><path
         id="path422"
         style="fill:#fe4365;fill-opacity:1;fill-rule:nonzero;stroke:none"
         d="m 113.426,197.25 c 0,3.996 -6,3.996 -6,0 0,-4 6,-4 6,0" /><path
         id="path424"
         style="fill:#fe4365;fill-opacity:1;fill-rule:nonzero;stroke:none"
         d="m 104.555,208.059 c 0,4 -6,4 -6,0 0,-4 6,-4 6,0" /><path
         id="path426"
         style="fill:#fe4365;fill-opacity:1;fill-rule:nonzero;stroke:none"
         d="m 95.684,215.688 c 0,4 -5.996,4 -5.996,0 0,-4 5.996,-4 5.996,0" /><path
         id="path428"
         style="fill:#fe4365;fill-opacity:1;fill-rule:nonzero;stroke:none"
         d="m 86.816,186.102 c 0,3.996 -6,3.996 -6,0 0,-4 6,-4 6,0" /><path
         id="path430"
         style="fill:#fe4365;fill-opacity:1;fill-rule:nonzero;stroke:none"
         d="m 77.945,226.625 c 0,4 -6,4 -6,0 0,-4 6,-4 6,0" /><path
         id="path432"
         style="fill:#fe4365;fill-opacity:1;fill-rule:nonzero;stroke:none"
         d="m 69.074,220.789 c 0,4 -5.996,4 -5.996,0 0,-4 5.996,-4 5.996,0" /><path
         id="path434"
         style="fill:#fe4365;fill-opacity:1;fill-rule:nonzero;stroke:none"
         d="m 60.207,217.922 c 0,4 -6,4 -6,0 0,-4 6,-4 6,0" /><path
         id="path436"
         style="fill:#fe4365;fill-opacity:1;fill-rule:nonzero;stroke:none"
         d="m 51.336,221.141 c 0,4 -6,4 -6,0 0,-3.996 6,-3.996 6,0" /><g
         id="text446"
         style="font-variant:normal;font-weight:normal;font-size:9px;font-family:'JetBrains Mono';-inkscape-font-specification:JetBrainsMono-Regular;writing-mode:lr-tb;fill:#a1a1a1;fill-opacity:1;fill-rule:nonzero;stroke:none"
         transform="translate(34.832031,229.47461)"
         aria-label="0
5000
10000
JHU CSSE COVID-19 dataset -- `relative_infected` / `day_index_1000`"><path
           id="path537"
           style=""
           d="m 1.53,-1.845 q 0,0.558 0.315,0.891 0.315,0.324 0.855,0.324 0.54,0 0.855,-0.324 0.315,-0.333 0.315,-0.891 v -2.79 Q 3.87,-5.193 3.555,-5.517 3.24,-5.85 2.7,-5.85 2.16,-5.85 1.845,-5.517 1.53,-5.193 1.53,-4.635 Z m -0.81,-2.79 q 0,-0.441 0.135,-0.801 0.144,-0.36 0.396,-0.612 Q 1.512,-6.3 1.872,-6.435 2.241,-6.57 2.7,-6.57 q 0.459,0 0.819,0.135 0.369,0.135 0.621,0.387 0.261,0.252 0.396,0.612 0.144,0.36 0.144,0.801 v 2.79 q 0,0.441 -0.144,0.801 Q 4.401,-0.693 4.14,-0.441 3.888,-0.189 3.519,-0.045 3.15,0.09 2.7,0.09 2.241,0.09 1.872,-0.045 1.512,-0.18 1.251,-0.432 0.999,-0.684 0.855,-1.044 0.72,-1.404 0.72,-1.845 Z m 1.53,1.08 q 0,-0.225 0.117,-0.36 0.126,-0.135 0.333,-0.135 0.207,0 0.324,0.135 0.126,0.135 0.126,0.36 v 0.72 q 0,0.225 -0.126,0.36 Q 2.907,-2.34 2.7,-2.34 2.493,-2.34 2.367,-2.475 2.25,-2.61 2.25,-2.835 Z" /><path
           id="path539"
           style=""
           d="m -12.021003,-74.788437 q 0.819,0 1.278,0.513 0.468,0.503999 0.468,1.377 v 0.45 q 0,0.432 -0.144,0.783 -0.144,0.351 -0.414,0.593999 -0.261,0.243 -0.639,0.378 -0.378,0.135001 -0.846,0.135001 -0.828,0 -1.359,-0.387 -0.531,-0.396 -0.648,-1.053 h 0.855 q 0.09,0.324 0.387,0.521999 0.306,0.198001 0.774,0.198001 0.549,0 0.873,-0.315 0.324,-0.315001 0.324,-0.855 v -0.45 q 0,-0.540001 -0.324,-0.855001 -0.324,-0.315 -0.882,-0.315 -0.693,0 -1.026,0.495001 h -0.828 l 0.045,-3.555001 h 3.564 v 0.738 h -2.781 l -0.027,2.286 h 0.054 q 0.081,-0.188999 0.252,-0.342 0.144,-0.126 0.387,-0.233999 0.252,-0.108 0.657,-0.108 z" /><path
           id="path541"
           style=""
           d="m -8.4660032,-72.493437 q 0,0.557999 0.315,0.891 0.315,0.324 0.855,0.324 0.54,0 0.855,-0.324 0.315,-0.333001 0.315,-0.891 v -2.790001 q 0,-0.557999 -0.315,-0.881999 -0.315,-0.333 -0.855,-0.333 -0.54,0 -0.855,0.333 -0.315,0.324 -0.315,0.881999 z m -0.81,-2.790001 q 0,-0.440999 0.135,-0.801 0.144,-0.36 0.396,-0.612 0.261,-0.251999 0.621,-0.387 0.369,-0.134999 0.828,-0.134999 0.459,0 0.819,0.134999 0.369,0.135001 0.621,0.387 0.261,0.252 0.396,0.612 0.144,0.360001 0.144,0.801 v 2.790001 q 0,0.441 -0.144,0.801 -0.135,0.351 -0.396,0.602999 -0.252,0.252001 -0.621,0.396 -0.369,0.135001 -0.819,0.135001 -0.459,0 -0.828,-0.135001 -0.36,-0.135 -0.621,-0.387 -0.252,-0.251999 -0.396,-0.611999 -0.135,-0.36 -0.135,-0.801 z m 1.53,1.08 q 0,-0.224999 0.117,-0.36 0.126,-0.134999 0.333,-0.134999 0.207,0 0.324,0.134999 0.126,0.135001 0.126,0.36 v 0.720001 q 0,0.225 -0.126,0.36 -0.117,0.134999 -0.324,0.134999 -0.207,0 -0.333,-0.134999 -0.117,-0.135 -0.117,-0.36 z" /><path
           id="path543"
           style=""
           d="m -3.4710028,-72.493437 q 0,0.557999 0.315,0.891 0.315,0.324 0.855,0.324 0.54,0 0.855,-0.324 0.315,-0.333001 0.315,-0.891 v -2.790001 q 0,-0.557999 -0.315,-0.881999 -0.315,-0.333 -0.855,-0.333 -0.54,0 -0.855,0.333 -0.315,0.324 -0.315,0.881999 z m -0.81,-2.790001 q 0,-0.440999 0.135,-0.801 0.144,-0.36 0.396,-0.612 0.261,-0.251999 0.621,-0.387 0.369,-0.134999 0.828,-0.134999 0.459,0 0.819,0.134999 0.369,0.135001 0.62100001,0.387 0.261,0.252 0.396,0.612 0.144,0.360001 0.144,0.801 v 2.790001 q 0,0.441 -0.144,0.801 -0.135,0.351 -0.396,0.602999 -0.25200001,0.252001 -0.62100001,0.396 -0.369,0.135001 -0.819,0.135001 -0.459,0 -0.828,-0.135001 -0.36,-0.135 -0.621,-0.387 -0.252,-0.251999 -0.396,-0.611999 -0.135,-0.36 -0.135,-0.801 z m 1.53,1.08 q 0,-0.224999 0.117,-0.36 0.126,-0.134999 0.333,-0.134999 0.207,0 0.324,0.134999 0.126,0.135001 0.126,0.36 v 0.720001 q 0,0.225 -0.126,0.36 -0.117,0.134999 -0.324,0.134999 -0.207,0 -0.333,-0.134999 -0.117,-0.135 -0.117,-0.36 z" /><path
           id="path545"
           style=""
           d="m 1.532997,-72.493437 q 0,0.557999 0.315,0.891 0.315,0.324 0.855,0.324 0.54,0 0.855,-0.324 0.315,-0.333001 0.315,-0.891 v -2.790001 q 0,-0.557999 -0.315,-0.881999 -0.315,-0.333 -0.855,-0.333 -0.54,0 -0.855,0.333 -0.315,0.324 -0.315,0.881999 z m -0.81,-2.790001 q 0,-0.440999 0.135,-0.801 0.144,-0.36 0.396,-0.612 0.261,-0.251999 0.621,-0.387 0.369,-0.134999 0.828,-0.134999 0.459,0 0.819,0.134999 0.369,0.135001 0.621,0.387 0.261,0.252 0.396,0.612 0.144,0.360001 0.144,0.801 v 2.790001 q 0,0.441 -0.144,0.801 -0.135,0.351 -0.396,0.602999 -0.252,0.252001 -0.621,0.396 -0.369,0.135001 -0.819,0.135001 -0.459,0 -0.828,-0.135001 -0.36,-0.135 -0.621,-0.387 -0.252,-0.251999 -0.396,-0.611999 -0.135,-0.36 -0.135,-0.801 z m 1.53,1.08 q 0,-0.224999 0.117,-0.36 0.126,-0.134999 0.333,-0.134999 0.207,0 0.324,0.134999 0.126,0.135001 0.126,0.36 v 0.720001 q 0,0.225 -0.126,0.36 -0.117,0.134999 -0.324,0.134999 -0.207,0 -0.333,-0.134999 -0.117,-0.135 -0.117,-0.36 z" /><path
           id="path547"
           style=""
           d="m -19.190008,-142.02077 h 1.737 v -4.545 q 0,-0.072 0,-0.162 0.009,-0.099 0.009,-0.18 0,-0.081 0,-0.135 0.009,-0.063 0.009,-0.063 h -0.018 q -0.063,0.054 -0.126,0.099 -0.054,0.045 -0.117,0.09 -0.054,0.045 -0.108,0.081 l -1.269,0.864 v -0.819 l 1.395,-0.99 h 1.035 v 5.76 h 1.458 v 0.72 h -4.005 z" /><path
           id="path549"
           style=""
           d="m -13.466007,-143.14577 q 0,0.558 0.315,0.891 0.315,0.324 0.855,0.324 0.54,0 0.855,-0.324 0.315,-0.333 0.315,-0.891 v -2.79 q 0,-0.558 -0.315,-0.882 -0.315,-0.333 -0.855,-0.333 -0.54,0 -0.855,0.333 -0.315,0.324 -0.315,0.882 z m -0.81,-2.79 q 0,-0.441 0.135,-0.801 0.144,-0.36 0.396,-0.612 0.261,-0.252 0.621,-0.387 0.369,-0.135 0.828,-0.135 0.459,0 0.819,0.135 0.369,0.135 0.621,0.387 0.261,0.252 0.396,0.612 0.144,0.36 0.144,0.801 v 2.79 q 0,0.441 -0.144,0.801 -0.135,0.351 -0.396,0.603 -0.252,0.252 -0.621,0.396 -0.369,0.135 -0.819,0.135 -0.459,0 -0.828,-0.135 -0.36,-0.135 -0.621,-0.387 -0.252,-0.252 -0.396,-0.612 -0.135,-0.36 -0.135,-0.801 z m 1.53,1.08 q 0,-0.225 0.117,-0.36 0.126,-0.135 0.333,-0.135 0.207,0 0.324,0.135 0.126,0.135 0.126,0.36 v 0.72 q 0,0.225 -0.126,0.36 -0.117,0.135 -0.324,0.135 -0.207,0 -0.333,-0.135 -0.117,-0.135 -0.117,-0.36 z" /><path
           id="path551"
           style=""
           d="m -8.4710071,-143.14577 q 0,0.558 0.315,0.891 0.315,0.324 0.855,0.324 0.54,0 0.855,-0.324 0.315,-0.333 0.315,-0.891 v -2.79 q 0,-0.558 -0.315,-0.882 -0.315,-0.333 -0.855,-0.333 -0.54,0 -0.855,0.333 -0.315,0.324 -0.315,0.882 z m -0.81,-2.79 q 0,-0.441 0.135,-0.801 0.144,-0.36 0.396,-0.612 0.261,-0.252 0.621,-0.387 0.369,-0.135 0.828,-0.135 0.459,0 0.819,0.135 0.369,0.135 0.621,0.387 0.261,0.252 0.396,0.612 0.144,0.36 0.144,0.801 v 2.79 q 0,0.441 -0.144,0.801 -0.135,0.351 -0.396,0.603 -0.252,0.252 -0.621,0.396 -0.369,0.135 -0.819,0.135 -0.459,0 -0.828,-0.135 -0.36,-0.135 -0.621,-0.387 -0.252,-0.252 -0.396,-0.612 -0.135,-0.36 -0.135,-0.801 z m 1.53,1.08 q 0,-0.225 0.117,-0.36 0.126,-0.135 0.333,-0.135 0.207,0 0.324,0.135 0.126,0.135 0.126,0.36 v 0.72 q 0,0.225 -0.126,0.36 -0.117,0.135 -0.324,0.135 -0.207,0 -0.333,-0.135 -0.117,-0.135 -0.117,-0.36 z" /><path
           id="path553"
           style=""
           d="m -3.4670069,-143.14577 q 0,0.558 0.315,0.891 0.315,0.324 0.855,0.324 0.54,0 0.855,-0.324 0.315,-0.333 0.315,-0.891 v -2.79 q 0,-0.558 -0.315,-0.882 -0.315,-0.333 -0.855,-0.333 -0.54,0 -0.855,0.333 -0.315,0.324 -0.315,0.882 z m -0.81,-2.79 q 0,-0.441 0.135,-0.801 0.144,-0.36 0.396,-0.612 0.261,-0.252 0.621,-0.387 0.369,-0.135 0.828,-0.135 0.459,0 0.819,0.135 0.369,0.135 0.62100001,0.387 0.261,0.252 0.396,0.612 0.144,0.36 0.144,0.801 v 2.79 q 0,0.441 -0.144,0.801 -0.135,0.351 -0.396,0.603 -0.25200001,0.252 -0.62100001,0.396 -0.369,0.135 -0.819,0.135 -0.459,0 -0.828,-0.135 -0.36,-0.135 -0.621,-0.387 -0.252,-0.252 -0.396,-0.612 -0.135,-0.36 -0.135,-0.801 z m 1.53,1.08 q 0,-0.225 0.117,-0.36 0.126,-0.135 0.333,-0.135 0.207,0 0.324,0.135 0.126,0.135 0.126,0.36 v 0.72 q 0,0.225 -0.126,0.36 -0.117,0.135 -0.324,0.135 -0.207,0 -0.333,-0.135 -0.117,-0.135 -0.117,-0.36 z" /><path
           id="path555"
           style=""
           d="m 1.527993,-143.14577 q 0,0.558 0.315,0.891 0.315,0.324 0.855,0.324 0.54,0 0.855,-0.324 0.315,-0.333 0.315,-0.891 v -2.79 q 0,-0.558 -0.315,-0.882 -0.315,-0.333 -0.855,-0.333 -0.54,0 -0.855,0.333 -0.315,0.324 -0.315,0.882 z m -0.81,-2.79 q 0,-0.441 0.135,-0.801 0.144,-0.36 0.396,-0.612 0.261,-0.252 0.621,-0.387 0.369,-0.135 0.828,-0.135 0.459,0 0.819,0.135 0.369,0.135 0.621,0.387 0.261,0.252 0.396,0.612 0.144,0.36 0.144,0.801 v 2.79 q 0,0.441 -0.144,0.801 -0.135,0.351 -0.396,0.603 -0.252,0.252 -0.621,0.396 -0.369,0.135 -0.819,0.135 -0.459,0 -0.828,-0.135 -0.36,-0.135 -0.621,-0.387 -0.252,-0.252 -0.396,-0.612 -0.135,-0.36 -0.135,-0.801 z m 1.53,1.08 q 0,-0.225 0.117,-0.36 0.126,-0.135 0.333,-0.135 0.207,0 0.324,0.135 0.126,0.135 0.126,0.36 v 0.72 q 0,0.225 -0.126,0.36 -0.117,0.135 -0.324,0.135 -0.207,0 -0.333,-0.135 -0.117,-0.135 -0.117,-0.36 z" /><path
           id="path557"
           style=""
           d="m 92.351867,-209.23937 q 0.576,0 0.918,-0.324 0.342,-0.333 0.342,-0.891 v -3.915 h -2.52 v -0.72 h 3.33 v 4.635 q 0,0.441 -0.144,0.801 -0.144,0.36 -0.414,0.612 -0.27,0.252 -0.657,0.387 -0.378,0.135 -0.855,0.135 -0.396,0 -0.738,-0.117 -0.342,-0.117 -0.612,-0.33301 -0.261,-0.22499 -0.441,-0.53099 -0.171,-0.306 -0.234,-0.684 h 0.81 q 0.081,0.432 0.414,0.693 0.333,0.252 0.801,0.252 z" /><path
           id="path559"
           style=""
           d="m 96.545873,-215.08937 v 2.736 h 2.16 v -2.736 h 0.81 v 6.48 h -0.81 v -3.006 h -2.16 v 3.006 h -0.81 v -6.48 z" /><path
           id="path561"
           style=""
           d="m 102.62087,-208.51937 q -0.927,0 -1.431,-0.504 -0.504,-0.504 -0.504,-1.386 v -4.68 h 0.81 v 4.68 q 0,0.54 0.288,0.855 0.288,0.315 0.837,0.315 0.54,0 0.828,-0.315 0.297,-0.315 0.297,-0.855 v -4.68 h 0.81 v 4.68 q 0,0.891 -0.504,1.395 -0.504,0.495 -1.431,0.495 z" /><path
           id="path563"
           style=""
           d="m 112.67387,-215.17937 q 0.846,0 1.359,0.468 0.522,0.459 0.621,1.287 h -0.81 q -0.054,-0.486 -0.369,-0.756 -0.306,-0.279 -0.801,-0.279 -0.54,0 -0.855,0.324 -0.315,0.324 -0.315,0.891 v 2.79 q 0,0.567 0.306,0.891 0.315,0.324 0.864,0.324 0.495,0 0.801,-0.27 0.315,-0.279 0.369,-0.765 h 0.81 q -0.099,0.828 -0.621,1.296 -0.513,0.459 -1.359,0.459 -0.459,0 -0.828,-0.135 -0.36,-0.135 -0.621,-0.387 -0.252,-0.252 -0.396,-0.612 -0.135,-0.36 -0.135,-0.801 v -2.79 q 0,-0.441 0.135,-0.801 0.144,-0.36 0.396,-0.612 0.261,-0.252 0.621,-0.387 0.369,-0.135 0.828,-0.135 z" /><path
           id="path565"
           style=""
           d="m 117.62387,-208.51937 q -0.441,0 -0.819,-0.117 -0.378,-0.126 -0.657,-0.351 -0.27,-0.234 -0.432,-0.558 -0.153,-0.324 -0.162,-0.729 h 0.855 q 0,0.234 0.09,0.423 0.099,0.189 0.27,0.324 0.171,0.135 0.396,0.216 0.225,0.072 0.477,0.072 0.567,0 0.9,-0.261 0.333,-0.27 0.333,-0.729 0,-0.387 -0.243,-0.684 -0.243,-0.30601 -0.702,-0.477 l -0.684,-0.252 q -1.503,-0.549 -1.503,-1.818 0,-0.81 0.513,-1.26 0.513,-0.459 1.413,-0.459 0.423,0 0.774,0.117 0.351,0.11699 0.603,0.342 0.261,0.225 0.405,0.549 0.153,0.31499 0.162,0.711 h -0.855 q 0,-0.225 -0.09,-0.405 -0.09,-0.189 -0.243,-0.315 -0.144,-0.135 -0.342,-0.207 -0.198,-0.072 -0.423,-0.072 -0.513,0 -0.81,0.243 -0.288,0.243 -0.288,0.657 0,0.405 0.216,0.675 0.225,0.261 0.72,0.441 l 0.72,0.261 q 0.72,0.261 1.098,0.756 0.378,0.495 0.378,1.17 0,0.81 -0.558,1.278 -0.549,0.459 -1.512,0.459 z" /><path
           id="path567"
           style=""
           d="m 122.61887,-208.51937 q -0.441,0 -0.819,-0.117 -0.378,-0.126 -0.657,-0.351 -0.27,-0.234 -0.432,-0.558 -0.153,-0.324 -0.162,-0.729 h 0.855 q 0,0.234 0.09,0.423 0.099,0.189 0.27,0.324 0.171,0.135 0.396,0.216 0.225,0.072 0.477,0.072 0.567,0 0.9,-0.261 0.333,-0.27 0.333,-0.729 0,-0.387 -0.243,-0.684 -0.243,-0.30601 -0.702,-0.477 l -0.684,-0.252 q -1.503,-0.549 -1.503,-1.818 0,-0.81 0.513,-1.26 0.513,-0.459 1.413,-0.459 0.423,0 0.774,0.117 0.351,0.11699 0.603,0.342 0.261,0.225 0.405,0.549 0.153,0.31499 0.162,0.711 h -0.855 q 0,-0.225 -0.09,-0.405 -0.09,-0.189 -0.243,-0.315 -0.144,-0.135 -0.342,-0.207 -0.198,-0.072 -0.423,-0.072 -0.513,0 -0.81,0.243 -0.288,0.243 -0.288,0.657 0,0.405 0.216,0.675 0.225,0.261 0.72,0.441 l 0.72,0.261 q 0.72,0.261 1.098,0.756 0.378,0.495 0.378,1.17 0,0.81 -0.558,1.278 -0.549,0.459 -1.512,0.459 z" /><path
           id="path569"
           style=""
           d="m 125.77787,-208.60937 v -6.48 h 3.825 v 0.738 h -3.015 v 2.034 h 2.7 v 0.738 h -2.7 v 2.232 h 3.015 v 0.738 z" /><path
           id="path571"
           style=""
           d="m 137.67587,-215.17937 q 0.846,0 1.359,0.468 0.522,0.459 0.621,1.287 h -0.81 q -0.054,-0.486 -0.369,-0.756 -0.306,-0.279 -0.801,-0.279 -0.54,0 -0.855,0.324 -0.315,0.324 -0.315,0.891 v 2.79 q 0,0.567 0.306,0.891 0.315,0.324 0.864,0.324 0.495,0 0.801,-0.27 0.315,-0.279 0.369,-0.765 h 0.81 q -0.099,0.828 -0.621,1.296 -0.513,0.459 -1.359,0.459 -0.459,0 -0.828,-0.135 -0.36,-0.135 -0.621,-0.387 -0.252,-0.252 -0.396,-0.612 -0.135,-0.36 -0.135,-0.801 v -2.79 q 0,-0.441 0.135,-0.801 0.144,-0.36 0.396,-0.612 0.261,-0.252 0.621,-0.387 0.369,-0.135 0.828,-0.135 z" /><path
           id="path573"
           style=""
           d="m 141.45587,-210.45437 q 0,0.558 0.315,0.891 0.315,0.324 0.855,0.324 0.54,0 0.855,-0.324 0.315,-0.333 0.315,-0.891 v -2.79 q 0,-0.558 -0.315,-0.882 -0.315,-0.333 -0.855,-0.333 -0.54,0 -0.855,0.333 -0.315,0.324 -0.315,0.882 z m -0.81,-2.79 q 0,-0.441 0.135,-0.801 0.144,-0.36 0.396,-0.612 0.261,-0.252 0.621,-0.387 0.369,-0.135 0.828,-0.135 0.459,0 0.819,0.135 0.369,0.135 0.621,0.387 0.261,0.252 0.396,0.612 0.144,0.36 0.144,0.801 v 2.79 q 0,0.441 -0.144,0.801 -0.135,0.351 -0.396,0.603 -0.252,0.252 -0.621,0.396 -0.369,0.135 -0.819,0.135 -0.459,0 -0.828,-0.135 -0.36,-0.135 -0.621,-0.387 -0.252,-0.252 -0.396,-0.612 -0.135,-0.36 -0.135,-0.801 z" /><path
           id="path575"
           style=""
           d="m 145.31687,-215.08937 h 0.864 l 1.242,5.067 q 0.045,0.189 0.081,0.351 0.036,0.153 0.054,0.27 0.018,0.144 0.036,0.252 h 0.036 q 0.018,-0.108 0.045,-0.252 0.018,-0.117 0.054,-0.27 0.036,-0.162 0.081,-0.351 l 1.269,-5.067 h 0.846 l -1.764,6.48 h -1.134 z" /><path
           id="path577"
           style=""
           d="m 152.21087,-209.32038 v -5.05799 h -1.431 v -0.711 h 3.69 v 0.711 h -1.431 v 5.05799 h 1.431 v 0.71101 h -3.69 v -0.71101 z" /><path
           id="path579"
           style=""
           d="m 157.52088,-209.32937 q 0.567,0 0.909,-0.342 0.351,-0.351 0.351,-0.918 v -2.52901 q 0,-0.56699 -0.351,-0.90899 -0.342,-0.342 -0.909,-0.342 h -0.999 v 5.04 z m -1.809,0.72 v -6.48 h 1.809 q 0.468,0 0.846,0.14399 0.387,0.14401 0.657,0.40501 0.279,0.252 0.423,0.621 0.153,0.36 0.153,0.80099 v 2.52901 q 0,0.441 -0.153,0.81 -0.144,0.369 -0.423,0.63 -0.27,0.252 -0.657,0.396 -0.378,0.144 -0.846,0.144 z" /><path
           id="path581"
           style=""
           d="m 160.82387,-211.93937 h 3.6 v 0.71999 h -3.6 z" /><path
           id="path583"
           style=""
           d="m 165.72887,-209.32937 h 1.737 v -4.545 q 0,-0.072 0,-0.162 0.009,-0.099 0.009,-0.18 0,-0.081 0,-0.135 0.009,-0.063 0.009,-0.063 h -0.018 q -0.063,0.054 -0.126,0.099 -0.054,0.045 -0.117,0.09 -0.054,0.045 -0.108,0.081 l -1.269,0.864 v -0.819 l 1.395,-0.99 h 1.035 v 5.76 h 1.458 v 0.72 h -4.005 z" /><path
           id="path585"
           style=""
           d="m 172.61387,-215.17937 q 0.459,0 0.837,0.144 0.387,0.144 0.657,0.414 0.279,0.261 0.432,0.639 0.153,0.369 0.153,0.828 0,0.54 -0.252,1.152 -0.243,0.612 -0.693,1.35 l -1.224,2.043 h -0.981 l 1.368,-2.16 q 0.189,-0.297 0.306,-0.468 0.117,-0.18 0.189,-0.279 0.081,-0.108 0.126,-0.153 h -0.135 q -0.072,0.144 -0.207,0.252 -0.126,0.099 -0.324,0.18 -0.189,0.072 -0.504,0.072 -0.396,0 -0.729,-0.144 -0.333,-0.144 -0.576,-0.405 -0.234,-0.26101 -0.369,-0.621 -0.135,-0.369 -0.135,-0.819 0,-0.45 0.153,-0.819 0.153,-0.378 0.423,-0.639 0.279,-0.27 0.657,-0.414 0.378,-0.153 0.828,-0.153 z m -1.251,2.025 q 0,0.297 0.09,0.54 0.099,0.234 0.261,0.405 0.171,0.171 0.396,0.27 0.234,0.09 0.504,0.09 0.558,0 0.909,-0.36 0.36,-0.36 0.36,-0.945 0,-0.594 -0.351,-0.945 -0.351,-0.36 -0.918,-0.36 -0.27,0 -0.504,0.099 -0.225,0.09 -0.396,0.261 -0.162,0.171 -0.261,0.414 -0.09,0.23399 -0.09,0.531 z" /><path
           id="path587"
           style=""
           d="m 180.64187,-211.71437 q 0,-0.45 0.117,-0.81 0.126,-0.36 0.342,-0.603 0.216,-0.252 0.522,-0.387 0.306,-0.135 0.684,-0.135 0.549,0 0.909,0.252 0.36,0.243 0.477,0.693 h 0.072 q -0.009,-0.153 -0.018,-0.306 -0.018,-0.135 -0.027,-0.279 0,-0.153 0,-0.27 v -1.62 h 0.81 v 6.57 h -0.765 v -0.855 h -0.072 q -0.117,0.45 -0.477,0.702 -0.36,0.243 -0.909,0.243 -0.378,0 -0.684,-0.135 -0.306,-0.135 -0.522,-0.378 -0.216,-0.252 -0.342,-0.612 -0.117,-0.36 -0.117,-0.81 z m 1.971,2.493 q 0.504,0 0.801,-0.333 0.306,-0.333 0.306,-0.9 v -1.26 q 0,-0.567 -0.306,-0.9 -0.297,-0.333 -0.801,-0.333 -0.549,0 -0.85499,0.324 -0.30601,0.324 -0.30601,0.909 v 1.26 q 0,0.567 0.30601,0.9 0.31499,0.333 0.85499,0.333 z" /><path
           id="path589"
           style=""
           d="m 185.49287,-210.04937 q 0,-0.351 0.117,-0.63 0.126,-0.288 0.351,-0.486 0.234,-0.198 0.558,-0.306 0.324,-0.108 0.729,-0.108 h 1.476 v -0.405 q 0,-0.459 -0.306,-0.71101 -0.297,-0.26099 -0.864,-0.26099 -0.414,0 -0.711,0.153 -0.288,0.153 -0.387,0.423 h -0.81 q 0.126,-0.585 0.639,-0.927 0.522,-0.342 1.287,-0.342 0.918,0 1.44,0.432 0.522,0.423 0.522,1.188 v 3.42 h -0.738 v -0.945 h -0.072 q -0.117,0.477 -0.549,0.756 -0.432,0.279 -1.053,0.279 -0.747,0 -1.188,-0.414 -0.441,-0.414 -0.441,-1.116 z m 1.809,0.864 q 0.306,0 0.567,-0.081 0.261,-0.081 0.45,-0.225 0.189,-0.153 0.297,-0.351 0.108,-0.198 0.108,-0.432 v -0.675 h -1.458 q -0.45,0 -0.711,0.234 -0.252,0.23399 -0.252,0.648 0,0.414 0.261,0.648 0.261,0.234 0.738,0.234 z" /><path
           id="path591"
           style=""
           d="m 190.46087,-213.55937 h 1.44 v -1.53 h 0.81 v 1.53 h 1.935 v 0.738 h -1.935 v 2.934 q 0,0.252 0.153,0.396 0.162,0.144 0.432,0.144 h 1.26 v 0.738 h -1.26 q -0.639,0 -1.017,-0.351 -0.378,-0.351 -0.378,-0.927 v -2.934 h -1.44 z" /><path
           id="path593"
           style=""
           d="m 195.49187,-210.04937 q 0,-0.351 0.117,-0.63 0.126,-0.288 0.351,-0.486 0.234,-0.198 0.558,-0.306 0.324,-0.108 0.729,-0.108 h 1.476 v -0.405 q 0,-0.459 -0.306,-0.71101 -0.297,-0.26099 -0.864,-0.26099 -0.414,0 -0.711,0.153 -0.288,0.153 -0.387,0.423 h -0.81 q 0.126,-0.585 0.639,-0.927 0.522,-0.342 1.287,-0.342 0.918,0 1.44,0.432 0.522,0.423 0.522,1.188 v 3.42 h -0.738 v -0.945 h -0.072 q -0.117,0.477 -0.549,0.756 -0.432,0.279 -1.053,0.279 -0.747,0 -1.188,-0.414 -0.441,-0.414 -0.441,-1.116 z m 1.809,0.864 q 0.306,0 0.567,-0.081 0.261,-0.081 0.45,-0.225 0.189,-0.153 0.297,-0.351 0.108,-0.198 0.108,-0.432 v -0.675 h -1.458 q -0.45,0 -0.711,0.234 -0.252,0.23399 -0.252,0.648 0,0.414 0.261,0.648 0.261,0.234 0.738,0.234 z" /><path
           id="path595"
           style=""
           d="m 202.48488,-208.51937 q -0.783,0 -1.296,-0.351 -0.504,-0.36 -0.576,-0.954 h 0.855 q 0.054,0.261 0.333,0.423 0.279,0.162 0.684,0.162 h 0.252 q 0.486,0 0.756,-0.198 0.27,-0.207 0.27,-0.549 0,-0.585 -0.828,-0.711 l -0.747,-0.108 q -0.729,-0.108 -1.089,-0.459 -0.36,-0.351 -0.36,-0.981 0,-0.666 0.468,-1.035 0.477,-0.369 1.323,-0.369 h 0.252 q 0.36,0 0.666,0.09 0.306,0.09 0.54,0.261 0.234,0.162 0.378,0.396 0.153,0.225 0.198,0.504 h -0.855 q -0.054,-0.234 -0.306,-0.378 -0.252,-0.153 -0.621,-0.153 h -0.252 q -0.459,0 -0.72,0.18 -0.252,0.18 -0.252,0.54 0,0.288 0.171,0.441 0.18,0.144 0.576,0.19799 l 0.747,0.10801 q 0.801,0.117 1.161,0.468 0.369,0.351 0.369,0.999 0,0.693 -0.486,1.089 -0.477,0.387 -1.359,0.387 z" /><path
           id="path597"
           style=""
           d="m 207.62387,-208.51937 q -0.927,0 -1.458,-0.504 -0.522,-0.504 -0.522,-1.386 v -1.35 q 0,-0.882 0.522,-1.386 0.531,-0.504 1.458,-0.504 0.927,0 1.449,0.504 0.531,0.504 0.531,1.386 v 0.90899 h -3.15 v 0.39601 q 0,0.567 0.306,0.891 0.315,0.324 0.864,0.324 0.405,0 0.702,-0.126 0.297,-0.126 0.441,-0.369 h 0.81 q -0.153,0.567 -0.684,0.891 -0.522,0.324 -1.269,0.324 z m 1.17,-3.006 v -0.234 q 0,-0.558 -0.306,-0.864 -0.306,-0.306 -0.864,-0.306 -0.558,0 -0.864,0.306 -0.306,0.306 -0.306,0.864 v 0.234 z" /><path
           id="path599"
           style=""
           d="m 210.45887,-213.55937 h 1.44 v -1.53 h 0.81 v 1.53 h 1.935 v 0.738 h -1.935 v 2.934 q 0,0.252 0.153,0.396 0.162,0.144 0.432,0.144 h 1.26 v 0.738 h -1.26 q -0.639,0 -1.017,-0.351 -0.378,-0.351 -0.378,-0.927 v -2.934 h -1.44 z" /><path
           id="path601"
           style=""
           d="m 220.81788,-211.93937 h 3.6 v 0.71999 h -3.6 z" /><path
           id="path603"
           style=""
           d="m 225.82187,-211.93937 h 3.6 v 0.71999 h -3.6 z" /><path
           id="path605"
           style=""
           d="m 236.45087,-215.77337 h 0.99 l 0.99,1.314 h -0.81 z" /><path
           id="path607"
           style=""
           d="m 240.93287,-213.55937 h 0.765 v 0.855 h 0.072 q 0.117,-0.441 0.486,-0.693 0.369,-0.252 0.909,-0.252 0.783,0 1.224,0.495 0.45,0.486 0.45,1.341 v 0.279 h -0.81 v -0.18 q 0,-0.585 -0.297,-0.9 -0.288,-0.324 -0.828,-0.324 -0.531,0 -0.846,0.333 -0.315,0.324 -0.315,0.891 v 3.105 h -0.81 z" /><path
           id="path609"
           style=""
           d="m 247.61988,-208.51937 q -0.927,0 -1.458,-0.504 -0.522,-0.504 -0.522,-1.386 v -1.35 q 0,-0.882 0.522,-1.386 0.531,-0.504 1.458,-0.504 0.927,0 1.449,0.504 0.531,0.504 0.531,1.386 v 0.90899 h -3.15 v 0.39601 q 0,0.567 0.306,0.891 0.315,0.324 0.864,0.324 0.405,0 0.702,-0.126 0.297,-0.126 0.441,-0.369 h 0.81 q -0.153,0.567 -0.684,0.891 -0.522,0.324 -1.269,0.324 z m 1.17,-3.006 v -0.234 q 0,-0.558 -0.306,-0.864 -0.306,-0.306 -0.864,-0.306 -0.558,0 -0.864,0.306 -0.306,0.306 -0.306,0.864 v 0.234 z" /><path
           id="path611"
           style=""
           d="m 252.73187,-215.17937 v 5.13 q 0,0.333 0.18,0.522 0.18,0.18 0.495,0.18 h 1.467 v 0.738 h -1.467 q -0.693,0 -1.089,-0.378 -0.396,-0.387 -0.396,-1.062 v -4.392 h -1.638 v -0.738 z" /><path
           id="path613"
           style=""
           d="m 255.48587,-210.04937 q 0,-0.351 0.117,-0.63 0.126,-0.288 0.351,-0.486 0.234,-0.198 0.558,-0.306 0.324,-0.108 0.729,-0.108 h 1.476 v -0.405 q 0,-0.459 -0.306,-0.71101 -0.297,-0.26099 -0.864,-0.26099 -0.414,0 -0.711,0.153 -0.288,0.153 -0.387,0.423 h -0.81 q 0.126,-0.585 0.639,-0.927 0.522,-0.342 1.287,-0.342 0.918,0 1.44,0.432 0.522,0.423 0.522,1.188 v 3.42 h -0.738 v -0.945 h -0.072 q -0.117,0.477 -0.549,0.756 -0.432,0.279 -1.053,0.279 -0.747,0 -1.188,-0.414 -0.441,-0.414 -0.441,-1.116 z m 1.809,0.864 q 0.306,0 0.567,-0.081 0.261,-0.081 0.45,-0.225 0.189,-0.153 0.297,-0.351 0.108,-0.198 0.108,-0.432 v -0.675 h -1.458 q -0.45,0 -0.711,0.234 -0.252,0.23399 -0.252,0.648 0,0.414 0.261,0.648 0.261,0.234 0.738,0.234 z" /><path
           id="path615"
           style=""
           d="m 260.46288,-213.55937 h 1.44 v -1.53 h 0.81 v 1.53 h 1.935 v 0.738 h -1.935 v 2.934 q 0,0.252 0.153,0.396 0.162,0.144 0.432,0.144 h 1.26 v 0.738 h -1.26 q -0.639,0 -1.017,-0.351 -0.378,-0.351 -0.378,-0.927 v -2.934 h -1.44 z" /><path
           id="path617"
           style=""
           d="m 265.77288,-208.60937 v -0.738 h 1.8 v -3.474 h -1.575 v -0.738 h 2.385 v 4.212 h 1.485 v 0.738 z m 1.98,-6.885 h 0.18 q 0.261,0 0.423,0.153 0.162,0.153 0.162,0.39599 0,0.24301 -0.162,0.38701 -0.162,0.144 -0.423,0.144 h -0.18 q -0.261,0 -0.423,-0.135 -0.162,-0.144 -0.162,-0.39601 0,-0.24299 0.162,-0.39599 0.162,-0.153 0.423,-0.153 z" /><path
           id="path619"
           style=""
           d="m 270.37187,-213.55937 h 0.855 l 1.20601,3.501 q 0.072,0.207 0.108,0.369 0.036,0.153 0.054,0.261 0.018,0.135 0.018,0.234 h 0.081 q -0.009,-0.099 0.009,-0.234 0.018,-0.108 0.045,-0.261 0.027,-0.162 0.099,-0.369 l 1.143,-3.501 h 0.882 l -1.77299,4.95 h -0.918 z" /><path
           id="path621"
           style=""
           d="m 277.62587,-208.51937 q -0.927,0 -1.458,-0.504 -0.522,-0.504 -0.522,-1.386 v -1.35 q 0,-0.882 0.522,-1.386 0.531,-0.504 1.458,-0.504 0.927,0 1.449,0.504 0.531,0.504 0.531,1.386 v 0.90899 h -3.15 v 0.39601 q 0,0.567 0.306,0.891 0.315,0.324 0.864,0.324 0.405,0 0.702,-0.126 0.297,-0.126 0.441,-0.369 h 0.81 q -0.153,0.567 -0.684,0.891 -0.522,0.324 -1.269,0.324 z m 1.17,-3.006 v -0.234 q 0,-0.558 -0.306,-0.864 -0.306,-0.306 -0.864,-0.306 -0.558,0 -0.864,0.306 -0.306,0.306 -0.306,0.864 v 0.234 z" /><path
           id="path623"
           style=""
           d="m 280.46087,-208.38437 h 4.32 v 0.675 h -4.32 z" /><path
           id="path625"
           style=""
           d="m 285.77987,-208.60937 v -0.738 h 1.8 v -3.474 h -1.575 v -0.738 h 2.385 v 4.212 h 1.485 v 0.738 z m 1.98,-6.885 h 0.18 q 0.261,0 0.423,0.153 0.162,0.153 0.162,0.39599 0,0.24301 -0.162,0.38701 -0.162,0.144 -0.423,0.144 h -0.18 q -0.261,0 -0.423,-0.135 -0.162,-0.144 -0.162,-0.39601 0,-0.24299 0.162,-0.39599 0.162,-0.153 0.423,-0.153 z" /><path
           id="path627"
           style=""
           d="m 290.71186,-208.60937 v -4.95 h 0.765 v 0.855 h 0.072 q 0.117,-0.45 0.468,-0.693 0.36,-0.252 0.891,-0.252 0.369,0 0.666,0.126 0.306,0.126 0.513,0.36 0.216,0.225 0.333,0.549 0.117,0.315 0.117,0.711 v 3.294 h -0.81 v -3.159 q 0,-0.567 -0.288,-0.882 -0.288,-0.315 -0.801,-0.315 -0.513,0 -0.819,0.342 -0.297,0.333 -0.297,0.909 v 3.105 z" /><path
           id="path629"
           style=""
           d="m 295.46386,-212.32638 v -0.73799 h 1.44 v -0.855 q 0,-0.594 0.369,-0.927 0.369,-0.333 1.017,-0.333 h 1.449 v 0.738 h -1.449 q -0.576,0 -0.576,0.522 v 0.855 h 2.025 v 0.73799 h -2.025 v 3.71701 h -0.81 v -3.71701 z" /><path
           id="path631"
           style=""
           d="m 302.61888,-208.51937 q -0.927,0 -1.458,-0.504 -0.522,-0.504 -0.522,-1.386 v -1.35 q 0,-0.882 0.522,-1.386 0.531,-0.504 1.458,-0.504 0.927,0 1.449,0.504 0.531,0.504 0.531,1.386 v 0.90899 h -3.15 v 0.39601 q 0,0.567 0.306,0.891 0.315,0.324 0.864,0.324 0.405,0 0.702,-0.126 0.297,-0.126 0.441,-0.369 h 0.81 q -0.153,0.567 -0.684,0.891 -0.522,0.324 -1.269,0.324 z m 1.17,-3.006 v -0.234 q 0,-0.558 -0.306,-0.864 -0.306,-0.306 -0.864,-0.306 -0.558,0 -0.864,0.306 -0.306,0.306 -0.306,0.864 v 0.234 z" /><path
           id="path633"
           style=""
           d="m 307.69488,-208.51937 q -0.459,0 -0.828,-0.135 -0.36,-0.135 -0.621,-0.387 -0.252,-0.252 -0.396,-0.612 -0.135,-0.36 -0.135,-0.801 v -1.26 q 0,-0.441 0.135,-0.801 0.144,-0.36 0.396,-0.612 0.261,-0.252 0.621,-0.387 0.369,-0.135 0.828,-0.135 0.819,0 1.341,0.45 0.531,0.441 0.639,1.215 h -0.81 q -0.063,-0.432 -0.387,-0.684 -0.315,-0.261 -0.783,-0.261 -0.54,0 -0.855,0.324 -0.315,0.324 -0.315,0.891 v 1.26 q 0,0.567 0.306,0.891 0.315,0.324 0.864,0.324 0.468,0 0.783,-0.252 0.324,-0.261 0.387,-0.693 h 0.81 q -0.117,0.783 -0.648,1.224 -0.522,0.441 -1.332,0.441 z" /><path
           id="path635"
           style=""
           d="m 310.45788,-213.55937 h 1.44 v -1.53 h 0.81 v 1.53 h 1.935 v 0.738 h -1.935 v 2.934 q 0,0.252 0.153,0.396 0.162,0.144 0.432,0.144 h 1.26 v 0.738 h -1.26 q -0.639,0 -1.017,-0.351 -0.378,-0.351 -0.378,-0.927 v -2.934 h -1.44 z" /><path
           id="path637"
           style=""
           d="m 317.62187,-208.51937 q -0.92699,0 -1.45799,-0.504 -0.522,-0.504 -0.522,-1.386 v -1.35 q 0,-0.882 0.522,-1.386 0.531,-0.504 1.45799,-0.504 0.927,0 1.449,0.504 0.531,0.504 0.531,1.386 v 0.90899 h -3.15 v 0.39601 q 0,0.567 0.30601,0.891 0.31499,0.324 0.86399,0.324 0.40501,0 0.702,-0.126 0.297,-0.126 0.44101,-0.369 h 0.81 q -0.15301,0.567 -0.68401,0.891 -0.522,0.324 -1.269,0.324 z m 1.17,-3.006 v -0.234 q 0,-0.558 -0.30599,-0.864 -0.30601,-0.306 -0.86401,-0.306 -0.558,0 -0.86399,0.306 -0.30601,0.306 -0.30601,0.864 v 0.234 z" /><path
           id="path639"
           style=""
           d="m 320.64587,-211.71437 q 0,-0.45 0.117,-0.81 0.126,-0.36 0.342,-0.603 0.216,-0.252 0.522,-0.387 0.306,-0.135 0.684,-0.135 0.549,0 0.909,0.252 0.36,0.243 0.477,0.693 h 0.072 q -0.009,-0.153 -0.018,-0.306 -0.018,-0.135 -0.027,-0.279 0,-0.153 0,-0.27 v -1.62 h 0.81 v 6.57 h -0.765 v -0.855 h -0.072 q -0.117,0.45 -0.477,0.702 -0.36,0.243 -0.909,0.243 -0.378,0 -0.684,-0.135 -0.306,-0.135 -0.522,-0.378 -0.216,-0.252 -0.342,-0.612 -0.117,-0.36 -0.117,-0.81 z m 1.971,2.493 q 0.504,0 0.801,-0.333 0.306,-0.333 0.306,-0.9 v -1.26 q 0,-0.567 -0.306,-0.9 -0.297,-0.333 -0.801,-0.333 -0.549,0 -0.855,0.324 -0.306,0.324 -0.306,0.909 v 1.26 q 0,0.567 0.306,0.9 0.315,0.333 0.855,0.333 z" /><path
           id="path641"
           style=""
           d="m 326.45087,-215.77337 h 0.99 l 0.99,1.314 h -0.81 z" /><path
           id="path643"
           style=""
           d="m 338.78986,-216.07937 h 0.855 l -3.195,8.46 h -0.855 z" /><path
           id="path645"
           style=""
           d="m 346.44888,-215.77337 h 0.99 l 0.99,1.314 h -0.81 z" /><path
           id="path647"
           style=""
           d="m 350.64288,-211.71437 q 0,-0.45 0.117,-0.81 0.126,-0.36 0.342,-0.603 0.216,-0.252 0.522,-0.387 0.306,-0.135 0.684,-0.135 0.549,0 0.909,0.252 0.36,0.243 0.477,0.693 h 0.072 q -0.009,-0.153 -0.018,-0.306 -0.018,-0.135 -0.027,-0.279 0,-0.153 0,-0.27 v -1.62 h 0.81 v 6.57 h -0.765 v -0.855 h -0.072 q -0.117,0.45 -0.477,0.702 -0.36,0.243 -0.909,0.243 -0.378,0 -0.684,-0.135 -0.306,-0.135 -0.522,-0.378 -0.216,-0.252 -0.342,-0.612 -0.117,-0.36 -0.117,-0.81 z m 1.971,2.493 q 0.504,0 0.801,-0.333 0.306,-0.333 0.306,-0.9 v -1.26 q 0,-0.567 -0.306,-0.9 -0.297,-0.333 -0.801,-0.333 -0.549,0 -0.855,0.324 -0.306,0.324 -0.306,0.909 v 1.26 q 0,0.567 0.306,0.9 0.315,0.333 0.855,0.333 z" /><path
           id="path649"
           style=""
           d="m 355.48488,-210.04937 q 0,-0.351 0.117,-0.63 0.126,-0.288 0.351,-0.486 0.234,-0.198 0.558,-0.306 0.324,-0.108 0.729,-0.108 h 1.476 v -0.405 q 0,-0.459 -0.306,-0.71101 -0.297,-0.26099 -0.864,-0.26099 -0.414,0 -0.711,0.153 -0.288,0.153 -0.387,0.423 h -0.81 q 0.126,-0.585 0.639,-0.927 0.522,-0.342 1.287,-0.342 0.918,0 1.44,0.432 0.522,0.423 0.522,1.188 v 3.42 h -0.738 v -0.945 h -0.072 q -0.117,0.477 -0.549,0.756 -0.432,0.279 -1.053,0.279 -0.747,0 -1.188,-0.414 -0.441,-0.414 -0.441,-1.116 z m 1.809,0.864 q 0.306,0 0.567,-0.081 0.261,-0.081 0.45,-0.225 0.189,-0.153 0.297,-0.351 0.108,-0.198 0.108,-0.432 v -0.675 h -1.458 q -0.45,0 -0.711,0.234 -0.252,0.23399 -0.252,0.648 0,0.414 0.261,0.648 0.261,0.234 0.738,0.234 z" /><path
           id="path651"
           style=""
           d="m 361.27188,-213.55937 1.13399,2.844 q 0.081,0.207 0.12601,0.387 0.054,0.18 0.081,0.315 0.036,0.171 0.045,0.30599 h 0.063 q 0.009,-0.13499 0.045,-0.29699 0.027,-0.144 0.072,-0.324 0.045,-0.18 0.11701,-0.387 l 1.04399,-2.844 h 0.873 l -2.40299,6.435 h -0.86401 l 0.68401,-1.84501 -1.91701,-4.58999 z" /><path
           id="path653"
           style=""
           d="m 365.46587,-208.38437 h 4.32 v 0.675 h -4.32 z" /><path
           id="path655"
           style=""
           d="m 370.77587,-208.60937 v -0.738 h 1.8 v -3.474 h -1.575 v -0.738 h 2.385 v 4.212 h 1.485 v 0.738 z m 1.98,-6.885 h 0.18 q 0.261,0 0.423,0.153 0.162,0.153 0.162,0.39599 0,0.24301 -0.162,0.38701 -0.162,0.144 -0.423,0.144 h -0.18 q -0.261,0 -0.423,-0.135 -0.162,-0.144 -0.162,-0.39601 0,-0.24299 0.162,-0.39599 0.162,-0.153 0.423,-0.153 z" /><path
           id="path657"
           style=""
           d="m 375.71687,-208.60937 v -4.95 h 0.765 v 0.855 h 0.072 q 0.117,-0.45 0.468,-0.693 0.36,-0.252 0.891,-0.252 0.369,0 0.666,0.126 0.306,0.126 0.513,0.36 0.216,0.225 0.333,0.549 0.117,0.315 0.117,0.711 v 3.294 h -0.81 v -3.159 q 0,-0.567 -0.288,-0.882 -0.288,-0.315 -0.801,-0.315 -0.513,0 -0.819,0.342 -0.297,0.333 -0.297,0.909 v 3.105 z" /><path
           id="path659"
           style=""
           d="m 380.63986,-211.71437 q 0,-0.45 0.117,-0.81 0.126,-0.36 0.342,-0.603 0.216,-0.252 0.522,-0.387 0.306,-0.135 0.684,-0.135 0.549,0 0.909,0.252 0.36,0.243 0.477,0.693 h 0.072 q -0.009,-0.153 -0.018,-0.306 -0.018,-0.135 -0.027,-0.279 0,-0.153 0,-0.27 v -1.62 h 0.81 v 6.57 h -0.765 v -0.855 h -0.072 q -0.117,0.45 -0.477,0.702 -0.36,0.243 -0.909,0.243 -0.378,0 -0.684,-0.135 -0.306,-0.135 -0.522,-0.378 -0.216,-0.252 -0.342,-0.612 -0.117,-0.36 -0.117,-0.81 z m 1.971,2.493 q 0.504,0 0.801,-0.333 0.306,-0.333 0.306,-0.9 v -1.26 q 0,-0.567 -0.306,-0.9 -0.297,-0.333 -0.801,-0.333 -0.549,0 -0.855,0.324 -0.306,0.324 -0.306,0.909 v 1.26 q 0,0.567 0.306,0.9 0.315,0.333 0.855,0.333 z" /><path
           id="path661"
           style=""
           d="m 387.62386,-208.51937 q -0.927,0 -1.458,-0.504 -0.522,-0.504 -0.522,-1.386 v -1.35 q 0,-0.882 0.522,-1.386 0.531,-0.504 1.458,-0.504 0.927,0 1.449,0.504 0.531,0.504 0.531,1.386 v 0.90899 h -3.15 v 0.39601 q 0,0.567 0.306,0.891 0.315,0.324 0.864,0.324 0.405,0 0.702,-0.126 0.297,-0.126 0.441,-0.369 h 0.81 q -0.153,0.567 -0.684,0.891 -0.522,0.324 -1.269,0.324 z m 1.17,-3.006 v -0.234 q 0,-0.558 -0.306,-0.864 -0.306,-0.306 -0.864,-0.306 -0.558,0 -0.864,0.306 -0.306,0.306 -0.306,0.864 v 0.234 z" /><path
           id="path663"
           style=""
           d="m 390.35088,-208.60937 1.791,-2.538 -1.683,-2.412 h 0.972 l 1.035,1.575 q 0.045,0.063 0.072,0.126 0.027,0.054 0.045,0.099 0.018,0.045 0.027,0.09 h 0.036 q 0.009,-0.045 0.027,-0.09 0.018,-0.045 0.045,-0.099 0.027,-0.063 0.072,-0.126 l 1.035,-1.575 h 0.963 l -1.683,2.403 1.782,2.547 h -0.972 l -1.107,-1.674 q -0.036,-0.063 -0.072,-0.117 -0.027,-0.063 -0.054,-0.117 -0.027,-0.063 -0.045,-0.117 h -0.036 q -0.018,0.063 -0.045,0.117 -0.027,0.054 -0.054,0.117 -0.027,0.063 -0.072,0.117 l -1.116,1.674 z" /><path
           id="path665"
           style=""
           d="m 395.46288,-208.38437 h 4.32 v 0.675 h -4.32 z" /><path
           id="path667"
           style=""
           d="m 400.72788,-209.32937 h 1.737 v -4.545 q 0,-0.072 0,-0.162 0.009,-0.099 0.009,-0.18 0,-0.081 0,-0.135 0.009,-0.063 0.009,-0.063 h -0.018 q -0.063,0.054 -0.126,0.099 -0.054,0.045 -0.117,0.09 -0.054,0.045 -0.108,0.081 l -1.269,0.864 v -0.819 l 1.395,-0.99 h 1.035 v 5.76 h 1.458 v 0.72 h -4.005 z" /><path
           id="path669"
           style=""
           d="m 406.45187,-210.45437 q 0,0.558 0.31501,0.891 0.315,0.324 0.85499,0.324 0.54,0 0.855,-0.324 0.315,-0.333 0.315,-0.891 v -2.79 q 0,-0.558 -0.315,-0.882 -0.315,-0.333 -0.855,-0.333 -0.53999,0 -0.85499,0.333 -0.31501,0.324 -0.31501,0.882 z m -0.80999,-2.79 q 0,-0.441 0.135,-0.801 0.144,-0.36 0.39599,-0.612 0.261,-0.252 0.62101,-0.387 0.36899,-0.135 0.82799,-0.135 0.459,0 0.819,0.135 0.369,0.135 0.621,0.387 0.261,0.252 0.396,0.612 0.144,0.36 0.144,0.801 v 2.79 q 0,0.441 -0.144,0.801 -0.135,0.351 -0.396,0.603 -0.252,0.252 -0.621,0.396 -0.369,0.135 -0.819,0.135 -0.459,0 -0.82799,-0.135 -0.36001,-0.135 -0.62101,-0.387 -0.25199,-0.252 -0.39599,-0.612 -0.135,-0.36 -0.135,-0.801 z m 1.52999,1.08 q 0,-0.225 0.11701,-0.36 0.12599,-0.135 0.33299,-0.135 0.207,0 0.324,0.135 0.126,0.135 0.126,0.36 v 0.72 q 0,0.22499 -0.126,0.36 -0.117,0.135 -0.324,0.135 -0.207,0 -0.33299,-0.135 -0.11701,-0.13501 -0.11701,-0.36 z" /><path
           id="path671"
           style=""
           d="m 411.45587,-210.45437 q 0,0.558 0.315,0.891 0.315,0.324 0.855,0.324 0.54,0 0.855,-0.324 0.315,-0.333 0.315,-0.891 v -2.79 q 0,-0.558 -0.315,-0.882 -0.315,-0.333 -0.855,-0.333 -0.54,0 -0.855,0.333 -0.315,0.324 -0.315,0.882 z m -0.81,-2.79 q 0,-0.441 0.135,-0.801 0.144,-0.36 0.396,-0.612 0.261,-0.252 0.621,-0.387 0.369,-0.135 0.828,-0.135 0.459,0 0.819,0.135 0.369,0.135 0.621,0.387 0.261,0.252 0.396,0.612 0.144,0.36 0.144,0.801 v 2.79 q 0,0.441 -0.144,0.801 -0.135,0.351 -0.396,0.603 -0.252,0.252 -0.621,0.396 -0.369,0.135 -0.819,0.135 -0.459,0 -0.828,-0.135 -0.36,-0.135 -0.621,-0.387 -0.252,-0.252 -0.396,-0.612 -0.135,-0.36 -0.135,-0.801 z m 1.53,1.08 q 0,-0.225 0.117,-0.36 0.126,-0.135 0.333,-0.135 0.207,0 0.324,0.135 0.126,0.135 0.126,0.36 v 0.72 q 0,0.22499 -0.126,0.36 -0.117,0.135 -0.324,0.135 -0.207,0 -0.333,-0.135 -0.117,-0.13501 -0.117,-0.36 z" /><path
           id="path673"
           style=""
           d="m 416.45087,-210.45437 q 0,0.558 0.315,0.891 0.315,0.324 0.855,0.324 0.54,0 0.855,-0.324 0.315,-0.333 0.315,-0.891 v -2.79 q 0,-0.558 -0.315,-0.882 -0.315,-0.333 -0.855,-0.333 -0.54,0 -0.855,0.333 -0.315,0.324 -0.315,0.882 z m -0.81,-2.79 q 0,-0.441 0.135,-0.801 0.144,-0.36 0.396,-0.612 0.261,-0.252 0.621,-0.387 0.369,-0.135 0.828,-0.135 0.459,0 0.819,0.135 0.369,0.135 0.621,0.387 0.261,0.252 0.396,0.612 0.144,0.36 0.144,0.801 v 2.79 q 0,0.441 -0.144,0.801 -0.135,0.351 -0.396,0.603 -0.252,0.252 -0.621,0.396 -0.369,0.135 -0.819,0.135 -0.459,0 -0.828,-0.135 -0.36,-0.135 -0.621,-0.387 -0.252,-0.252 -0.396,-0.612 -0.135,-0.36 -0.135,-0.801 z m 1.53,1.08 q 0,-0.225 0.117,-0.36 0.126,-0.135 0.333,-0.135 0.207,0 0.324,0.135 0.126,0.135 0.126,0.36 v 0.72 q 0,0.22499 -0.126,0.36 -0.117,0.135 -0.324,0.135 -0.207,0 -0.333,-0.135 -0.117,-0.13501 -0.117,-0.36 z" /><path
           id="path675"
           style=""
           d="m 421.45487,-215.77337 h 0.99 l 0.99,1.314 h -0.81 z" /></g></g></g></svg>